<svg xmlns="http://www.w3.org/2000/svg" xmlns:xlink="http://www.w3.org/1999/xlink" width="450" zoomAndPan="magnify" viewBox="0 0 337.91998 277.91998" height="360" preserveAspectRatio="xMidYMid meet" version="1.0"><defs><g/><clipPath id="a312cfa61a"><path d="M 0.0078125 0 L 337.410156 0 L 337.410156 269.921875 L 0.0078125 269.921875 Z M 0.0078125 0 " clip-rule="nonzero"/></clipPath><clipPath id="61a4bbb2cb"><path d="M 179.386719 80 L 299.351562 80 L 299.351562 220.074219 L 179.386719 220.074219 Z M 179.386719 80 " clip-rule="nonzero"/></clipPath><clipPath id="21f3cff974"><path d="M 205 77.613281 L 282 77.613281 L 282 217 L 205 217 Z M 205 77.613281 " clip-rule="nonzero"/></clipPath><clipPath id="9fd2de8263"><path d="M 1 1 L 170.617188 1 L 170.617188 59 L 1 59 Z M 1 1 " clip-rule="nonzero"/></clipPath><clipPath id="883715d5d6"><rect x="0" width="171" y="0" height="60"/></clipPath><clipPath id="8fff8ed178"><rect x="0" width="106" y="0" height="72"/></clipPath></defs><g clip-path="url(#a312cfa61a)"><path fill="#ffffff" d="M 0.0078125 0 L 337.410156 0 L 337.410156 269.921875 L 0.0078125 269.921875 Z M 0.0078125 0 " fill-opacity="1" fill-rule="nonzero"/><path fill="#c4e7fb" d="M 0.0078125 0 L 337.410156 0 L 337.410156 269.921875 L 0.0078125 269.921875 Z M 0.0078125 0 " fill-opacity="1" fill-rule="nonzero"/></g><g clip-path="url(#61a4bbb2cb)"><path fill="#efd8af" d="M 214.261719 220.074219 L 181.164062 174.945312 L 182.941406 153.230469 L 179.390625 148.902344 L 192.457031 96.78125 L 273.351562 80.996094 L 278.253906 86.605469 L 265.613281 136.414062 L 299.347656 182.539062 L 297.003906 201.695312 Z M 214.261719 220.074219 " fill-opacity="1" fill-rule="nonzero"/></g><path fill="#82bfbe" d="M 263.269531 141.167969 L 295.511719 183.390625 L 218.308594 199.851562 L 210.355469 186.9375 L 190.183594 154.722656 Z M 262.414062 137.054688 L 273.210938 89.9375 L 202.117188 104.058594 L 191.035156 149.824219 Z M 262.414062 137.054688 " fill-opacity="1" fill-rule="nonzero"/><path fill="#197584" d="M 218.460938 144.101562 L 218.457031 147.488281 C 220.929688 147.640625 222.445312 148.992188 223.339844 150.300781 C 224.109375 151.421875 224.511719 152.757812 224.503906 154.117188 L 224.394531 177.910156 C 224.394531 177.910156 221.121094 179.054688 212.171875 179.054688 C 203.21875 179.054688 200.742188 177.789062 200.742188 177.789062 C 200.742188 177.789062 200.742188 159.957031 200.742188 153.976562 C 200.742188 148 206.84375 147.929688 206.84375 147.929688 L 206.84375 144.101562 Z M 257.53125 159.449219 C 257.53125 159.449219 263.960938 154.351562 264.855469 153.390625 C 265.746094 152.429688 266.429688 150.960938 265.554688 149.882812 C 264.683594 148.804688 263.003906 149.980469 263.003906 149.980469 L 255.410156 155.492188 C 255.410156 155.492188 263.644531 146.734375 264.476562 145.859375 C 265.308594 144.980469 265.8125 143.449219 264.773438 142.335938 C 263.734375 141.222656 262.113281 142.132812 262.113281 142.132812 L 251.386719 151.207031 C 251.386719 151.207031 260.34375 141.308594 261.429688 140.191406 C 262.511719 139.070312 262.957031 137.621094 261.734375 136.511719 C 260.511719 135.402344 258.707031 136.929688 258.707031 136.929688 L 247.496094 147.773438 C 247.496094 147.773438 252.28125 141.777344 254.574219 139.277344 C 256.867188 136.777344 257.328125 135.292969 255.722656 133.976562 C 254.121094 132.664062 252.246094 135.386719 252.246094 135.386719 L 238.5 150.234375 C 238.5 150.234375 238.5 150.234375 238.398438 147.40625 C 238.292969 144.582031 238.558594 141.179688 236.839844 140.550781 C 235.125 139.921875 233.449219 140.761719 232.742188 141.992188 C 232.039062 143.226562 230.078125 158.726562 230.078125 158.726562 L 227.640625 162.980469 C 226.804688 164.433594 226.667969 166.1875 227.261719 167.753906 C 230.027344 175.058594 236.484375 176.402344 236.484375 176.402344 Z M 257.53125 159.449219 " fill-opacity="1" fill-rule="nonzero"/><path fill="#f2b149" d="M 282.976562 172.042969 C 282.917969 175.773438 280.359375 179 276.734375 179.898438 L 251.546875 186.148438 C 248.570312 186.835938 245.480469 185.902344 243.210938 183.605469 C 241.511719 181.882812 239.925781 179.429688 239.511719 176.082031 C 239.292969 174.296875 239.421875 172.671875 239.75 171.226562 C 240.722656 166.976562 242.285156 163.617188 245.984375 162.386719 C 251.824219 160.445312 262.214844 158.847656 273.273438 157.773438 C 281.695312 156.957031 283.074219 165.660156 282.976562 172.042969 Z M 236.304688 179.664062 C 236.304688 179.664062 220.507812 184.65625 218.863281 185.707031 C 217.484375 186.589844 216.925781 191.027344 221.046875 191.226562 C 219.667969 191.734375 218.648438 192.144531 218.292969 192.375 C 216.648438 193.425781 216.167969 199.542969 223.414062 197.476562 C 230.660156 195.414062 238.535156 191.972656 239.480469 191.015625 C 240.546875 189.945312 239.34375 186.148438 236.6875 186.167969 C 238.472656 185.363281 239.710938 184.695312 240.050781 184.351562 C 241.238281 183.160156 239.617188 178.589844 236.304688 179.664062 Z M 235.433594 177.859375 C 236.621094 176.664062 234.996094 172.097656 231.683594 173.171875 C 231.683594 173.171875 215.890625 178.160156 214.246094 179.214844 C 212.601562 180.265625 212.117188 186.382812 219.367188 184.316406 C 226.613281 182.253906 234.484375 178.8125 235.433594 177.859375 Z M 235.433594 177.859375 " fill-opacity="1" fill-rule="nonzero"/><path fill="#efd8af" d="M 225.726562 183.742188 L 231.707031 181.667969 L 234.570312 185.84375 L 228.453125 188.375 Z M 224.414062 191.035156 L 227.140625 195.667969 L 233.257812 193.136719 L 230.394531 188.960938 Z M 226.347656 175.800781 L 220.367188 177.875 L 223.09375 182.507812 L 229.210938 179.976562 Z M 226.347656 175.800781 " fill-opacity="1" fill-rule="nonzero"/><path fill="#f2b149" d="M 225.789062 177.734375 C 225.75 178.035156 225.480469 178.222656 225.179688 178.183594 C 224.882812 178.144531 224.667969 177.894531 224.707031 177.59375 C 224.746094 177.296875 225.019531 177.085938 225.320312 177.125 C 225.617188 177.164062 225.828125 177.4375 225.789062 177.734375 Z M 222.660156 178.046875 C 222.363281 178.007812 222.089844 178.21875 222.050781 178.515625 C 222.011719 178.816406 222.226562 179.066406 222.523438 179.105469 C 222.820312 179.144531 223.09375 178.957031 223.132812 178.65625 C 223.171875 178.359375 222.960938 178.085938 222.660156 178.046875 Z M 226.449219 180.011719 C 226.746094 180.050781 227.019531 179.863281 227.054688 179.566406 C 227.09375 179.265625 226.886719 178.992188 226.585938 178.957031 C 226.289062 178.917969 226.015625 179.125 225.976562 179.425781 C 225.9375 179.722656 226.152344 179.972656 226.449219 180.011719 Z M 223.851562 179.867188 C 223.554688 179.828125 223.277344 180.035156 223.242188 180.335938 C 223.203125 180.632812 223.414062 180.886719 223.714844 180.925781 C 224.011719 180.960938 224.28125 180.773438 224.320312 180.476562 C 224.359375 180.179688 224.148438 179.90625 223.851562 179.867188 Z M 230.679688 182.992188 C 230.382812 182.957031 230.109375 183.164062 230.070312 183.464844 C 230.03125 183.761719 230.242188 184.011719 230.542969 184.050781 C 230.839844 184.089844 231.109375 183.902344 231.148438 183.605469 C 231.1875 183.304688 230.976562 183.03125 230.679688 182.992188 Z M 229.679688 186.34375 C 229.71875 186.046875 229.511719 185.773438 229.210938 185.734375 C 228.914062 185.695312 228.640625 185.90625 228.601562 186.203125 C 228.5625 186.5 228.773438 186.753906 229.074219 186.792969 C 229.371094 186.832031 229.640625 186.640625 229.679688 186.34375 Z M 231.949219 184.824219 C 231.648438 184.785156 231.375 184.992188 231.335938 185.292969 C 231.296875 185.589844 231.511719 185.84375 231.808594 185.882812 C 232.109375 185.921875 232.378906 185.730469 232.417969 185.433594 C 232.457031 185.136719 232.246094 184.863281 231.949219 184.824219 Z M 228.023438 183.914062 C 227.722656 183.875 227.449219 184.085938 227.410156 184.382812 C 227.371094 184.683594 227.585938 184.933594 227.882812 184.972656 C 228.183594 185.011719 228.453125 184.824219 228.492188 184.527344 C 228.53125 184.226562 228.320312 183.953125 228.023438 183.914062 Z M 230.636719 192.117188 C 230.335938 192.078125 230.0625 192.285156 230.023438 192.585938 C 229.984375 192.882812 230.199219 193.132812 230.496094 193.171875 C 230.796875 193.214844 231.066406 193.023438 231.105469 192.726562 C 231.144531 192.429688 230.933594 192.152344 230.636719 192.117188 Z M 227.898438 193.027344 C 227.601562 192.988281 227.328125 193.195312 227.289062 193.496094 C 227.25 193.792969 227.464844 194.042969 227.761719 194.085938 C 228.058594 194.121094 228.332031 193.933594 228.367188 193.636719 C 228.40625 193.339844 228.199219 193.0625 227.898438 193.027344 Z M 226.710938 191.207031 C 226.410156 191.167969 226.136719 191.378906 226.097656 191.675781 C 226.0625 191.972656 226.273438 192.226562 226.574219 192.265625 C 226.871094 192.304688 227.140625 192.117188 227.179688 191.816406 C 227.21875 191.519531 227.007812 191.246094 226.710938 191.207031 Z M 229.367188 190.285156 C 229.070312 190.246094 228.796875 190.457031 228.757812 190.753906 C 228.71875 191.054688 228.933594 191.304688 229.230469 191.34375 C 229.527344 191.382812 229.796875 191.195312 229.835938 190.898438 C 229.875 190.597656 229.667969 190.324219 229.367188 190.285156 Z M 229.367188 190.285156 " fill-opacity="1" fill-rule="nonzero"/><path fill="#efd8af" d="M 203.945312 163.269531 C 203.945312 158.214844 207.34375 154.140625 212.402344 154.140625 C 217.464844 154.140625 221.796875 157.726562 221.796875 162.78125 C 221.796875 167.835938 218.164062 172.234375 213.105469 172.234375 C 208.042969 172.234375 203.945312 168.324219 203.945312 163.269531 Z M 221.285156 152.601562 C 221.417969 152.9375 221.535156 153.242188 221.636719 153.511719 L 222.460938 153.238281 C 222.1875 152.355469 221.816406 151.414062 221.402344 150.988281 C 220.511719 150.078125 218.152344 149.097656 218.152344 149.097656 L 217.171875 149.84375 C 217.171875 149.84375 220.375 150.289062 221.285156 152.601562 Z M 222.125 154.773438 C 222.21875 154.980469 222.21875 154.980469 222.21875 154.980469 L 223.058594 154.75 L 222.710938 153.90625 L 221.84375 154.09375 C 221.84375 154.09375 222.03125 154.5625 222.125 154.773438 Z M 220.226562 199.140625 L 190.183594 154.722656 L 184.609375 175.050781 L 216.199219 216.230469 L 294.453125 200.730469 L 297.546875 183.21875 Z M 249.84375 174.164062 C 249.347656 179.484375 247.726562 181.601562 247.726562 181.601562 C 247.726562 181.601562 249.054688 181.726562 249.273438 181.601562 C 249.488281 181.472656 250.839844 175.867188 251.050781 174.09375 C 251.265625 172.320312 251.550781 169.480469 248.921875 168.347656 C 246.292969 167.210938 245.011719 167.109375 245.011719 167.109375 L 244.515625 168.132812 C 244.519531 168.132812 250.34375 168.84375 249.84375 174.164062 Z M 246.824219 183.761719 C 246.070312 184.328125 244.617188 185.664062 245.113281 187.738281 C 245.609375 189.8125 248.09375 190.347656 249.164062 190.089844 C 250.234375 189.835938 262.769531 186.84375 262.769531 186.84375 L 275.230469 183.871094 L 273.671875 177.355469 L 258.566406 180.960938 C 258.566406 180.960938 247.582031 183.191406 246.824219 183.761719 Z M 248.039062 165.027344 L 248.660156 165.292969 C 248.746094 165.328125 248.835938 165.34375 248.929688 165.332031 C 251.078125 165.089844 277.183594 162.097656 277.46875 161.0625 C 277.738281 160.082031 275.433594 159.816406 275 159.773438 C 274.953125 159.769531 274.910156 159.773438 274.863281 159.777344 L 248.164062 164.011719 C 247.636719 164.09375 247.546875 164.816406 248.039062 165.027344 Z M 248.039062 165.027344 " fill-opacity="1" fill-rule="nonzero"/><path fill="#82bfbe" d="M 235.851562 142.589844 L 236.066406 143.296875 C 236.066406 143.296875 234.378906 144.128906 234.148438 144.929688 C 233.863281 145.925781 233.816406 148.40625 233.816406 148.40625 L 232.726562 148.40625 C 232.726562 148.40625 232.726562 148.40625 233.152344 145.496094 C 233.578125 142.589844 235.851562 142.589844 235.851562 142.589844 Z M 216.566406 216.816406 L 218.277344 217.402344 L 219.617188 207.867188 L 220.707031 202.910156 L 218.558594 202.609375 Z M 193.167969 99.980469 L 200.894531 103.039062 L 201.617188 101.832031 L 193.890625 98.453125 Z M 272.136719 183.300781 C 272.078125 183.167969 271.984375 183.085938 271.890625 183.039062 C 271.757812 182.964844 271.605469 182.953125 271.46875 182.996094 C 270.917969 183.15625 267.941406 183.8125 266.953125 184.003906 C 266.59375 184.070312 266.644531 184.265625 266.800781 184.453125 C 267.027344 184.726562 267.363281 184.847656 267.675781 184.773438 L 271.960938 183.75 C 272.136719 183.707031 272.222656 183.488281 272.136719 183.300781 Z M 272.136719 183.300781 " fill-opacity="1" fill-rule="nonzero"/><path fill="#197584" d="M 278.484375 184.167969 L 274.65625 184.789062 L 273.75 181.660156 L 272.800781 176.953125 L 276.445312 175.957031 C 276.445312 175.957031 278.078125 175.675781 278.996094 179.503906 C 279.910156 183.332031 278.484375 184.167969 278.484375 184.167969 Z M 213.046875 98.421875 L 209.039062 99.507812 C 209.039062 99.507812 213.96875 99.628906 212.621094 107.644531 L 216.667969 107.078125 C 216.667969 107.078125 216.667969 99.628906 213.046875 98.421875 Z M 262.769531 89.9375 L 258.761719 91.023438 C 258.761719 91.023438 263.695312 91.144531 262.34375 99.164062 L 266.394531 98.59375 C 266.394531 98.59375 266.394531 91.144531 262.769531 89.9375 Z M 262.769531 89.9375 " fill-opacity="1" fill-rule="nonzero"/><g clip-path="url(#21f3cff974)"><path fill="#d3444f" d="M 205.4375 138.613281 L 219.820312 138.613281 L 219.324219 145.222656 L 205.976562 145.222656 Z M 214.675781 157.921875 L 210.929688 157.921875 L 211.210938 162.007812 L 206.851562 162.007812 L 207.074219 165.792969 L 211.210938 165.566406 L 211.210938 169.589844 L 214.296875 169.773438 L 214.765625 165.511719 L 218.433594 165.464844 L 218.613281 162.347656 L 214.71875 162.011719 Z M 264.246094 183.214844 C 263.714844 180.988281 262.363281 180.707031 262.363281 180.707031 L 251.792969 183.230469 C 251.792969 183.230469 247.878906 184.007812 247.277344 184.742188 C 246.675781 185.476562 246.222656 186.152344 246.476562 187.203125 C 246.726562 188.253906 248.242188 189.316406 248.976562 189.214844 C 249.710938 189.113281 263.652344 186.101562 263.652344 186.101562 C 263.652344 186.101562 264.777344 185.445312 264.246094 183.214844 Z M 247.289062 90.347656 L 251.40625 89.417969 C 251.484375 80.789062 246.085938 77.613281 239.597656 77.648438 C 232.933594 77.683594 226.34375 79.503906 222.785156 82.273438 C 218.617188 85.519531 220.511719 95.75 220.511719 95.75 L 224.328125 94.808594 C 224.328125 94.808594 221.917969 84.628906 234.859375 81.777344 C 247.800781 78.925781 247.289062 90.347656 247.289062 90.347656 Z M 281.449219 201.347656 L 277.660156 202.179688 C 277.660156 202.179688 280.800781 209.636719 267.941406 212.171875 C 255.082031 214.703125 254.832031 206.183594 254.832031 206.183594 L 250.738281 207.007812 C 250.894531 214.109375 256.378906 216.644531 262.859375 216.523438 C 269.523438 216.394531 275.191406 214.542969 278.671875 212.210938 C 282.746094 209.484375 281.449219 201.347656 281.449219 201.347656 Z M 281.449219 201.347656 " fill-opacity="1" fill-rule="nonzero"/></g><g transform="matrix(1, 0, 0, 1, 83, 13)"><g clip-path="url(#883715d5d6)"><g clip-path="url(#9fd2de8263)"><path fill="#eaf5fc" d="M 15.640625 1.628906 L 155.777344 1.628906 C 163.675781 1.628906 170.082031 8.03125 170.082031 15.929688 L 170.082031 44.535156 C 170.082031 52.429688 163.675781 58.835938 155.777344 58.835938 L 15.640625 58.835938 C 7.742188 58.835938 1.339844 52.429688 1.339844 44.535156 L 1.339844 15.929688 C 1.339844 8.03125 7.742188 1.628906 15.640625 1.628906 Z M 15.640625 1.628906 " fill-opacity="1" fill-rule="nonzero"/></g><g fill="#40abe6" fill-opacity="1"><g transform="translate(15.138722, 43.253826)"><g><path d="M 2.765625 0 L 2.765625 -18.875 L 2.0625 -22.328125 L 2.765625 -24.390625 L 8.3125 -24.390625 L 15.28125 -15 L 16.9375 -12.140625 L 17.28125 -12.140625 L 17.28125 -24.390625 L 23.8125 -24.390625 L 23.8125 -22.328125 L 23.453125 -18.875 L 23.453125 0 L 18.046875 0 L 9.390625 -12.140625 L 9.03125 -12.140625 L 9.03125 -10.078125 L 9.390625 0 Z M 2.765625 0 "/></g></g></g><g fill="#40abe6" fill-opacity="1"><g transform="translate(41.006429, 43.253826)"><g><path d="M 2.421875 0 L 2.421875 -18.875 L 2.0625 -22.328125 L 2.421875 -24.421875 L 8.625 -24.421875 L 8.625 -15.078125 L 17.21875 -15.078125 L 17.21875 -24.421875 L 23.421875 -24.421875 L 23.421875 -11.453125 L 23.765625 -9.078125 L 23.765625 0 L 17.21875 0 L 17.21875 -9.109375 L 8.625 -9.109375 L 8.625 -7.03125 L 8.96875 0 Z M 2.421875 0 "/></g></g></g><g fill="#40abe6" fill-opacity="1"><g transform="translate(66.839646, 43.253826)"><g><path d="M 13.078125 0.34375 C 11.609375 0.34375 10.175781 0.164062 8.78125 -0.1875 C 7.382812 -0.539062 6.128906 -1.175781 5.015625 -2.09375 C 3.898438 -3.019531 3.015625 -4.300781 2.359375 -5.9375 C 1.703125 -7.570312 1.375 -9.664062 1.375 -12.21875 C 1.375 -14.769531 1.703125 -16.859375 2.359375 -18.484375 C 3.015625 -20.117188 3.898438 -21.394531 5.015625 -22.3125 C 6.128906 -23.238281 7.382812 -23.878906 8.78125 -24.234375 C 10.175781 -24.585938 11.609375 -24.765625 13.078125 -24.765625 C 14.546875 -24.765625 15.972656 -24.582031 17.359375 -24.21875 C 18.753906 -23.851562 20.007812 -23.207031 21.125 -22.28125 C 22.238281 -21.363281 23.125 -20.085938 23.78125 -18.453125 C 24.4375 -16.828125 24.765625 -14.75 24.765625 -12.21875 C 24.765625 -9.6875 24.4375 -7.601562 23.78125 -5.96875 C 23.125 -4.332031 22.238281 -3.054688 21.125 -2.140625 C 20.007812 -1.222656 18.753906 -0.578125 17.359375 -0.203125 C 15.972656 0.160156 14.546875 0.34375 13.078125 0.34375 Z M 13.078125 -5.515625 C 14.773438 -5.515625 16.0625 -6.019531 16.9375 -7.03125 C 17.8125 -8.050781 18.25 -9.78125 18.25 -12.21875 C 18.25 -14.65625 17.8125 -16.378906 16.9375 -17.390625 C 16.0625 -18.398438 14.773438 -18.90625 13.078125 -18.90625 C 11.398438 -18.90625 10.125 -18.382812 9.25 -17.34375 C 8.375 -16.3125 7.9375 -14.601562 7.9375 -12.21875 C 7.9375 -9.820312 8.375 -8.101562 9.25 -7.0625 C 10.125 -6.03125 11.398438 -5.515625 13.078125 -5.515625 Z M 10.859375 -26.1875 L 13.140625 -32.8125 L 17.34375 -32.8125 L 17.34375 -30.703125 L 12.59375 -26.1875 Z M 10.859375 -26.1875 "/></g></g></g><g fill="#40abe6" fill-opacity="1"><g transform="translate(92.983275, 43.253826)"><g><path d="M 2.765625 0 L 2.765625 -18.875 L 2.0625 -22.328125 L 2.796875 -24.390625 L 9.390625 -24.390625 L 16.140625 -11.28125 L 16.84375 -11.28125 L 22.421875 -24.390625 L 29.296875 -24.390625 L 29.640625 -22.328125 L 29.296875 -19.015625 L 29.296875 0 L 23.046875 0 L 23.15625 -2.9375 L 23.15625 -12.5625 L 22.765625 -12.5625 L 21.390625 -9.25 L 18.28125 -3.453125 L 14.140625 -3.453125 L 9.390625 -12.5625 L 9.03125 -12.5625 L 9.03125 -9.765625 L 9.390625 0 Z M 2.765625 0 "/></g></g></g><g fill="#40abe6" fill-opacity="1"><g transform="translate(124.679836, 43.253826)"><g/></g></g><g fill="#40abe6" fill-opacity="1"><g transform="translate(132.957501, 43.253826)"><g><path d="M 11.734375 0.34375 C 10.460938 0.34375 9.21875 0.222656 8 -0.015625 C 6.78125 -0.253906 5.671875 -0.65625 4.671875 -1.21875 C 3.671875 -1.78125 2.867188 -2.546875 2.265625 -3.515625 C 1.671875 -4.484375 1.375 -5.691406 1.375 -7.140625 C 1.375 -8.609375 1.6875 -9.789062 2.3125 -10.6875 C 2.9375 -11.59375 3.753906 -12.285156 4.765625 -12.765625 C 3.929688 -13.359375 3.332031 -14.097656 2.96875 -14.984375 C 2.601562 -15.867188 2.421875 -16.863281 2.421875 -17.96875 C 2.421875 -19.300781 2.78125 -20.472656 3.5 -21.484375 C 4.226562 -22.503906 5.28125 -23.304688 6.65625 -23.890625 C 8.039062 -24.472656 9.707031 -24.765625 11.65625 -24.765625 C 14.601562 -24.765625 16.878906 -24.175781 18.484375 -23 C 20.097656 -21.832031 20.90625 -20.15625 20.90625 -17.96875 C 20.90625 -16.75 20.734375 -15.71875 20.390625 -14.875 C 20.046875 -14.039062 19.539062 -13.359375 18.875 -12.828125 C 19.84375 -12.347656 20.59375 -11.65625 21.125 -10.75 C 21.664062 -9.84375 21.9375 -8.640625 21.9375 -7.140625 C 21.9375 -5.691406 21.648438 -4.484375 21.078125 -3.515625 C 20.503906 -2.546875 19.726562 -1.78125 18.75 -1.21875 C 17.769531 -0.65625 16.671875 -0.253906 15.453125 -0.015625 C 14.234375 0.222656 12.992188 0.34375 11.734375 0.34375 Z M 11.734375 -14.703125 C 12.578125 -14.703125 13.226562 -14.925781 13.6875 -15.375 C 14.15625 -15.820312 14.390625 -16.332031 14.390625 -16.90625 C 14.390625 -17.5 14.15625 -17.976562 13.6875 -18.34375 C 13.226562 -18.71875 12.578125 -18.90625 11.734375 -18.90625 C 10.898438 -18.90625 10.222656 -18.738281 9.703125 -18.40625 C 9.191406 -18.070312 8.9375 -17.570312 8.9375 -16.90625 C 8.9375 -16.257812 9.191406 -15.726562 9.703125 -15.3125 C 10.222656 -14.90625 10.898438 -14.703125 11.734375 -14.703125 Z M 11.734375 -5.515625 C 12.972656 -5.515625 13.894531 -5.71875 14.5 -6.125 C 15.113281 -6.53125 15.421875 -7.007812 15.421875 -7.5625 C 15.421875 -8.25 15.140625 -8.816406 14.578125 -9.265625 C 14.015625 -9.710938 13.253906 -10.03125 12.296875 -10.21875 C 11.347656 -10.414062 10.285156 -10.492188 9.109375 -10.453125 C 8.828125 -10.148438 8.585938 -9.78125 8.390625 -9.34375 C 8.203125 -8.90625 8.109375 -8.445312 8.109375 -7.96875 C 8.109375 -7.257812 8.398438 -6.671875 8.984375 -6.203125 C 9.566406 -5.742188 10.484375 -5.515625 11.734375 -5.515625 Z M 11.734375 -5.515625 "/></g></g></g></g></g><g transform="matrix(1, 0, 0, 1, 25, 106)"><g clip-path="url(#8fff8ed178)"><g fill="#b3f2ff" fill-opacity="1"><g transform="translate(2.0105, 27.310089)"><g><path d="M 5.238281 0.316406 L 0.382812 -14.496094 L -0.472656 -17.320312 L -0.472656 -20.097656 L 6.4375 -20.097656 L 10.441406 -5.167969 L 9.464844 -4.90625 L 9.464844 -5.917969 L 10.003906 -5.917969 L 10.003906 -4.90625 L 9.023438 -5.164062 L 12.972656 -20.097656 L 19.828125 -20.097656 L 19.828125 -17.320312 L 18.976562 -14.507812 L 13.917969 1.011719 L 5.46875 1.011719 Z M 7.160156 -0.316406 L 6.199219 0 L 6.199219 -1.011719 L 13.183594 -1.011719 L 13.183594 0 L 12.222656 -0.3125 L 17.042969 -15.09375 L 17.851562 -17.761719 L 18.816406 -17.46875 L 17.808594 -17.46875 L 17.808594 -19.085938 L 18.816406 -19.085938 L 18.816406 -18.078125 L 13.75 -18.078125 L 13.75 -19.085938 L 14.726562 -18.828125 L 10.78125 -3.894531 L 8.6875 -3.894531 L 4.683594 -18.824219 L 5.660156 -19.085938 L 5.660156 -18.078125 L 0.539062 -18.078125 L 0.539062 -19.085938 L 1.550781 -19.085938 L 1.550781 -17.46875 L 0.539062 -17.46875 L 1.507812 -17.761719 L 2.316406 -15.09375 L 1.347656 -14.800781 L 2.308594 -15.117188 Z M 7.160156 -0.316406 "/></g></g></g><g fill="#b3f2ff" fill-opacity="1"><g transform="translate(21.36478, 27.310089)"><g><path d="M -0.703125 -0.277344 L 0.589844 -4.832031 L 1.5625 -4.554688 L 0.550781 -4.554688 L 0.550781 -8.660156 L 3.179688 -9.726562 L 3.558594 -8.789062 L 2.601562 -9.117188 L 6.339844 -20.070312 L 14.757812 -20.070312 L 19.339844 -7.324219 L 18.386719 -6.984375 L 19.277344 -7.464844 L 21.472656 -3.410156 L 21.472656 1.011719 L 14.949219 1.011719 L 13.378906 -4.011719 L 14.34375 -4.3125 L 14.34375 -3.300781 L 6.496094 -3.300781 L 6.496094 -4.3125 L 7.472656 -4.050781 L 6.113281 1.011719 L -1.070312 1.011719 Z M 1.242188 0.277344 L 0.269531 0 L 0.269531 -1.011719 L 5.339844 -1.011719 L 5.339844 0 L 4.363281 -0.261719 L 5.722656 -5.324219 L 15.085938 -5.324219 L 16.65625 -0.300781 L 15.691406 0 L 15.691406 -1.011719 L 20.460938 -1.011719 L 20.460938 0 L 19.453125 0 L 19.453125 -3.15625 L 20.460938 -3.15625 L 19.574219 -2.671875 L 17.460938 -6.566406 L 13.09375 -18.71875 L 14.046875 -19.0625 L 14.046875 -18.050781 L 7.0625 -18.050781 L 7.0625 -19.0625 L 8.019531 -18.734375 L 4.367188 -8.027344 L 1.945312 -7.042969 L 1.5625 -7.980469 L 2.574219 -7.980469 L 2.574219 -4.414062 Z M 8.277344 -9.476562 L 12.859375 -9.476562 L 12.859375 -8.464844 L 11.898438 -8.148438 L 9.851562 -14.320312 L 10.8125 -14.640625 L 10.8125 -13.628906 L 10.246094 -13.628906 L 10.246094 -14.640625 L 11.207031 -14.332031 L 9.238281 -8.160156 L 8.277344 -8.464844 Z M 6.894531 -7.453125 L 9.507812 -15.648438 L 11.539062 -15.648438 L 14.261719 -7.453125 Z M 9.828125 7.589844 L 6.144531 3.910156 L 10.542969 -0.484375 L 14.9375 3.910156 L 10.542969 8.304688 Z M 11.257812 6.160156 L 10.542969 6.875 L 9.828125 6.160156 L 12.792969 3.195312 L 13.507812 3.910156 L 12.792969 4.625 L 9.828125 1.660156 L 10.542969 0.945312 L 11.257812 1.660156 L 8.289062 4.625 L 7.574219 3.910156 L 8.289062 3.195312 Z M 5.320312 -21.703125 L 8.5625 -25.867188 L 12.277344 -25.867188 L 16.75 -20.070312 L 12.171875 -20.070312 L 9.824219 -21.839844 L 10.433594 -22.644531 L 11.027344 -21.828125 L 8.605469 -20.070312 L 4.050781 -20.070312 Z M 6.917969 -20.460938 L 6.121094 -21.082031 L 6.121094 -22.09375 L 8.277344 -22.09375 L 8.277344 -21.082031 L 7.683594 -21.902344 L 10.445312 -23.902344 L 13.117188 -21.890625 L 12.507812 -21.082031 L 12.507812 -22.09375 L 14.691406 -22.09375 L 14.691406 -21.082031 L 13.894531 -20.464844 L 10.980469 -24.238281 L 11.78125 -24.855469 L 11.78125 -23.847656 L 9.058594 -23.847656 L 9.058594 -24.855469 L 9.855469 -24.234375 Z M 6.917969 -20.460938 "/></g></g></g><g fill="#b3f2ff" fill-opacity="1"><g transform="translate(42.093803, 27.310089)"><g><path d="M 4.921875 0 L 4.921875 -14.773438 L 5.929688 -14.773438 L 5.980469 -13.765625 L -0.472656 -13.441406 L -0.472656 -20.097656 L 17.320312 -20.097656 L 17.320312 -13.441406 L 10.734375 -13.765625 L 10.785156 -14.773438 L 11.796875 -14.773438 L 11.796875 -4.3125 L 10.785156 -4.3125 L 11.789062 -4.425781 L 12.101562 -1.582031 L 11.625 1.011719 L 4.921875 1.011719 Z M 6.941406 0 L 5.929688 0 L 5.929688 -1.011719 L 10.785156 -1.011719 L 10.785156 0 L 9.789062 -0.183594 L 10.085938 -1.800781 L 11.082031 -1.617188 L 10.074219 -1.507812 L 9.773438 -4.257812 L 9.773438 -15.835938 L 16.359375 -15.515625 L 16.3125 -14.503906 L 15.300781 -14.503906 L 15.300781 -19.085938 L 16.3125 -19.085938 L 16.3125 -18.078125 L 0.539062 -18.078125 L 0.539062 -19.085938 L 1.550781 -19.085938 L 1.550781 -14.503906 L 0.539062 -14.503906 L 0.488281 -15.515625 L 6.941406 -15.835938 Z M 6.941406 0 "/></g></g></g><g fill="#b3f2ff" fill-opacity="1"><g transform="translate(58.941189, 27.310089)"><g/></g></g><g fill="#b3f2ff" fill-opacity="1"><g transform="translate(65.410585, 27.310089)"><g><path d="M 4.921875 0 L 4.921875 -14.773438 L 5.929688 -14.773438 L 5.980469 -13.765625 L -0.472656 -13.441406 L -0.472656 -20.097656 L 17.320312 -20.097656 L 17.320312 -13.441406 L 10.734375 -13.765625 L 10.785156 -14.773438 L 11.796875 -14.773438 L 11.796875 -4.3125 L 10.785156 -4.3125 L 11.789062 -4.425781 L 12.101562 -1.582031 L 11.625 1.011719 L 4.921875 1.011719 Z M 6.941406 0 L 5.929688 0 L 5.929688 -1.011719 L 10.785156 -1.011719 L 10.785156 0 L 9.789062 -0.183594 L 10.085938 -1.800781 L 11.082031 -1.617188 L 10.074219 -1.507812 L 9.773438 -4.257812 L 9.773438 -15.835938 L 16.359375 -15.515625 L 16.3125 -14.503906 L 15.300781 -14.503906 L 15.300781 -19.085938 L 16.3125 -19.085938 L 16.3125 -18.078125 L 0.539062 -18.078125 L 0.539062 -19.085938 L 1.550781 -19.085938 L 1.550781 -14.503906 L 0.539062 -14.503906 L 0.488281 -15.515625 L 6.941406 -15.835938 Z M 6.941406 0 "/></g></g></g><g fill="#b3f2ff" fill-opacity="1"><g transform="translate(82.257971, 27.310089)"><g><path d="M 9.949219 1.28125 C 6.917969 1.28125 4.613281 0.558594 3.027344 -0.882812 C 1.414062 -2.351562 0.605469 -4.636719 0.605469 -7.738281 L 0.605469 -14.746094 L 0.632812 -17.480469 L 1.644531 -17.46875 L 0.632812 -17.453125 L 0.589844 -20.097656 L 7.535156 -20.097656 L 7.535156 -8.277344 C 7.535156 -7.214844 7.734375 -6.378906 8.128906 -5.765625 C 8.433594 -5.292969 9.039062 -5.054688 9.949219 -5.054688 C 10.882812 -5.054688 11.511719 -5.28125 11.839844 -5.730469 C 12.242188 -6.28125 12.441406 -7.128906 12.441406 -8.277344 L 12.441406 -20.097656 L 19.289062 -20.097656 L 19.289062 -7.738281 C 19.289062 -4.699219 18.507812 -2.433594 16.941406 -0.941406 C 15.390625 0.539062 13.058594 1.28125 9.949219 1.28125 Z M 9.949219 -0.742188 C 12.519531 -0.742188 14.382812 -1.296875 15.546875 -2.402344 C 16.695312 -3.5 17.269531 -5.277344 17.269531 -7.738281 L 17.269531 -19.085938 L 18.277344 -19.085938 L 18.277344 -18.078125 L 13.453125 -18.078125 L 13.453125 -19.085938 L 14.464844 -19.085938 L 14.464844 -8.277344 C 14.464844 -6.691406 14.132812 -5.445312 13.476562 -4.539062 C 12.742188 -3.535156 11.566406 -3.03125 9.949219 -3.03125 C 8.304688 -3.03125 7.132812 -3.578125 6.429688 -4.667969 C 5.820312 -5.617188 5.511719 -6.820312 5.511719 -8.277344 L 5.511719 -19.085938 L 6.523438 -19.085938 L 6.523438 -18.078125 L 1.617188 -18.078125 L 1.617188 -19.085938 L 2.628906 -19.105469 L 2.65625 -17.472656 L 2.628906 -14.746094 L 2.628906 -7.738281 C 2.628906 -5.230469 3.214844 -3.445312 4.386719 -2.378906 C 5.585938 -1.289062 7.441406 -0.742188 9.949219 -0.742188 Z M 17.902344 -16.460938 C 17.191406 -16.460938 16.617188 -16.566406 16.179688 -16.777344 L 15.164062 -17.269531 L 15.164062 -20.097656 L 17.011719 -20.097656 C 17.210938 -20.097656 17.359375 -20.117188 17.453125 -20.15625 C 17.460938 -20.160156 17.46875 -20.164062 17.472656 -20.164062 C 17.472656 -20.164062 17.46875 -20.164062 17.464844 -20.160156 C 17.449219 -20.144531 17.4375 -20.128906 17.425781 -20.109375 C 17.535156 -20.304688 17.589844 -20.621094 17.589844 -21.054688 L 17.589844 -23.65625 L 22.363281 -23.65625 L 22.363281 -20.652344 C 22.363281 -19.625 22.132812 -18.792969 21.671875 -18.15625 C 21.21875 -17.535156 20.632812 -17.089844 19.914062 -16.820312 C 19.269531 -16.578125 18.597656 -16.460938 17.902344 -16.460938 Z M 17.902344 -18.480469 C 18.355469 -18.480469 18.789062 -18.558594 19.207031 -18.714844 C 19.546875 -18.839844 19.820312 -19.050781 20.035156 -19.34375 C 20.238281 -19.625 20.339844 -20.0625 20.339844 -20.652344 L 20.339844 -22.644531 L 21.351562 -22.644531 L 21.351562 -21.636719 L 18.601562 -21.636719 L 18.601562 -22.644531 L 19.613281 -22.644531 L 19.613281 -21.054688 C 19.613281 -20.269531 19.472656 -19.621094 19.1875 -19.117188 C 18.796875 -18.421875 18.070312 -18.078125 17.011719 -18.078125 L 16.175781 -18.078125 L 16.175781 -19.085938 L 17.1875 -19.085938 L 17.1875 -17.902344 L 16.175781 -17.902344 L 16.617188 -18.8125 L 17.0625 -18.59375 C 17.21875 -18.519531 17.5 -18.480469 17.902344 -18.480469 Z M 17.902344 -18.480469 "/></g></g></g><g fill="#b3f2ff" fill-opacity="1"><g transform="translate(21.458801, 64.934552)"><g><path d="M 6.214844 0 L 6.214844 -8.089844 L 7.226562 -8.089844 L 6.402344 -7.5 L -0.472656 -17.148438 L -0.472656 -20.097656 L 6.808594 -20.097656 L 10.328125 -13.46875 L 9.4375 -12.996094 L 9.4375 -14.003906 L 9.976562 -14.003906 L 9.976562 -12.996094 L 9.082031 -13.464844 L 12.574219 -20.097656 L 19.855469 -20.097656 L 19.855469 -17.144531 L 12.789062 -7.335938 L 11.96875 -7.925781 L 12.980469 -7.984375 L 13.144531 -5.234375 L 13.144531 1.011719 L 6.214844 1.011719 Z M 8.238281 0 L 7.226562 0 L 7.226562 -1.011719 L 12.132812 -1.011719 L 12.132812 0 L 11.121094 0 L 11.121094 -5.203125 L 12.132812 -5.203125 L 11.121094 -5.144531 L 10.941406 -8.226562 L 18.023438 -18.0625 L 18.84375 -17.46875 L 17.835938 -17.46875 L 17.835938 -19.085938 L 18.84375 -19.085938 L 18.84375 -18.078125 L 13.183594 -18.078125 L 13.183594 -19.085938 L 14.078125 -18.617188 L 10.585938 -11.984375 L 8.828125 -11.984375 L 5.308594 -18.613281 L 6.199219 -19.085938 L 6.199219 -18.078125 L 0.539062 -18.078125 L 0.539062 -19.085938 L 1.550781 -19.085938 L 1.550781 -17.46875 L 0.539062 -17.46875 L 1.363281 -18.058594 L 8.238281 -8.410156 Z M 8.238281 0 "/></g></g></g><g fill="#b3f2ff" fill-opacity="1"><g transform="translate(40.840036, 64.934552)"><g/></g></g><g fill="#b3f2ff" fill-opacity="1"><g transform="translate(47.309432, 64.934552)"><g><path d="M 4.921875 0 L 4.921875 -14.773438 L 5.929688 -14.773438 L 5.980469 -13.765625 L -0.472656 -13.441406 L -0.472656 -20.097656 L 17.320312 -20.097656 L 17.320312 -13.441406 L 10.734375 -13.765625 L 10.785156 -14.773438 L 11.796875 -14.773438 L 11.796875 -4.3125 L 10.785156 -4.3125 L 11.789062 -4.425781 L 12.101562 -1.582031 L 11.625 1.011719 L 4.921875 1.011719 Z M 6.941406 0 L 5.929688 0 L 5.929688 -1.011719 L 10.785156 -1.011719 L 10.785156 0 L 9.789062 -0.183594 L 10.085938 -1.800781 L 11.082031 -1.617188 L 10.074219 -1.507812 L 9.773438 -4.257812 L 9.773438 -15.835938 L 16.359375 -15.515625 L 16.3125 -14.503906 L 15.300781 -14.503906 L 15.300781 -19.085938 L 16.3125 -19.085938 L 16.3125 -18.078125 L 0.539062 -18.078125 L 0.539062 -19.085938 L 1.550781 -19.085938 L 1.550781 -14.503906 L 0.539062 -14.503906 L 0.488281 -15.515625 L 6.941406 -15.835938 Z M 6.941406 0 "/></g></g></g><g fill="#b3f2ff" fill-opacity="1"><g transform="translate(64.156818, 64.934552)"><g><path d="M 1.199219 0.320312 L 0.574219 -1.550781 L 1.164062 -4.511719 L 2.15625 -4.3125 L 1.144531 -4.3125 L 1.144531 -20.097656 L 15.78125 -20.097656 L 18.15625 -18.675781 L 15.675781 -13.417969 L 12.53125 -13.769531 L 12.644531 -14.773438 L 12.644531 -13.761719 L 7.007812 -13.761719 L 7.007812 -14.773438 L 8.019531 -14.773438 L 8.019531 -11.808594 L 7.007812 -11.808594 L 7.007812 -12.820312 L 15.273438 -12.820312 L 15.273438 -6.617188 L 11.046875 -6.617188 L 6.941406 -6.890625 L 7.007812 -7.898438 L 8.019531 -7.898438 L 8.019531 -4.3125 L 7.007812 -4.3125 L 7.007812 -5.324219 L 15.425781 -5.324219 L 19.753906 -1.835938 L 17.132812 1.011719 L 1.429688 1.011719 Z M 3.117188 -0.320312 L 2.15625 0 L 2.15625 -1.011719 L 16.6875 -1.011719 L 16.6875 0 L 15.945312 -0.683594 L 17.535156 -2.410156 L 18.277344 -1.726562 L 17.644531 -0.9375 L 14.4375 -3.527344 L 15.070312 -4.3125 L 15.070312 -3.300781 L 6 -3.300781 L 6 -8.980469 L 11.148438 -8.636719 L 11.082031 -7.628906 L 11.082031 -8.640625 L 14.261719 -8.640625 L 14.261719 -7.628906 L 13.25 -7.628906 L 13.25 -11.808594 L 14.261719 -11.808594 L 14.261719 -10.796875 L 6 -10.796875 L 6 -15.785156 L 12.699219 -15.785156 L 15.183594 -15.507812 L 15.070312 -14.503906 L 14.15625 -14.9375 L 15.933594 -18.710938 L 16.851562 -18.277344 L 16.328125 -17.410156 L 14.980469 -18.222656 L 15.503906 -19.085938 L 15.503906 -18.078125 L 2.15625 -18.078125 L 2.15625 -19.085938 L 3.167969 -19.085938 L 3.167969 -4.214844 L 2.609375 -1.417969 L 1.617188 -1.617188 L 2.578125 -1.9375 Z M 4.027344 -21.703125 L 7.269531 -25.867188 L 10.984375 -25.867188 L 15.457031 -20.070312 L 10.878906 -20.070312 L 8.53125 -21.839844 L 9.140625 -22.644531 L 9.734375 -21.828125 L 7.3125 -20.070312 L 2.757812 -20.070312 Z M 5.625 -20.460938 L 4.824219 -21.082031 L 4.824219 -22.09375 L 6.984375 -22.09375 L 6.984375 -21.082031 L 6.390625 -21.902344 L 9.152344 -23.902344 L 11.824219 -21.890625 L 11.214844 -21.082031 L 11.214844 -22.09375 L 13.398438 -22.09375 L 13.398438 -21.082031 L 12.597656 -20.464844 L 9.6875 -24.238281 L 10.488281 -24.855469 L 10.488281 -23.847656 L 7.765625 -23.847656 L 7.765625 -24.855469 L 8.5625 -24.234375 Z M 6.59375 -26.398438 L 8.605469 -32.257812 L 13.628906 -32.257812 L 13.628906 -29.167969 L 9.300781 -25.058594 L 6.132812 -25.058594 Z M 8.503906 -25.742188 L 7.546875 -26.070312 L 7.546875 -27.082031 L 8.898438 -27.082031 L 8.898438 -26.070312 L 8.199219 -26.804688 L 11.921875 -30.335938 L 12.617188 -29.601562 L 11.605469 -29.601562 L 11.605469 -31.246094 L 12.617188 -31.246094 L 12.617188 -30.234375 L 9.328125 -30.234375 L 9.328125 -31.246094 L 10.285156 -30.917969 Z M 8.503906 -25.742188 "/></g></g></g><g fill="#40abe6" fill-opacity="1"><g transform="translate(2.0105, 27.310089)"><g><path d="M 6.203125 0 L 1.34375 -14.796875 L 0.546875 -17.46875 L 0.546875 -19.078125 L 5.65625 -19.078125 L 9.453125 -4.90625 L 10 -4.90625 L 13.75 -19.078125 L 18.8125 -19.078125 L 18.8125 -17.46875 L 18 -14.796875 L 13.1875 0 Z M 6.203125 0 "/></g></g></g><g fill="#40abe6" fill-opacity="1"><g transform="translate(21.36478, 27.310089)"><g><path d="M 0.265625 0 L 1.5625 -4.5625 L 1.5625 -7.984375 L 3.5625 -8.78125 L 7.0625 -19.0625 L 14.046875 -19.0625 L 18.375 -6.984375 L 20.453125 -3.15625 L 20.453125 0 L 15.6875 0 L 14.34375 -4.3125 L 6.5 -4.3125 L 5.34375 0 Z M 8.28125 -8.46875 L 12.859375 -8.46875 L 10.8125 -14.640625 L 10.25 -14.640625 Z M 10.546875 6.875 L 7.578125 3.90625 L 10.546875 0.9375 L 13.515625 3.90625 Z M 6.109375 -21.078125 L 9.0625 -24.84375 L 11.78125 -24.84375 L 14.6875 -21.078125 L 12.5 -21.078125 L 10.421875 -22.640625 L 8.265625 -21.078125 Z M 6.109375 -21.078125 "/></g></g></g><g fill="#40abe6" fill-opacity="1"><g transform="translate(42.093803, 27.310089)"><g><path d="M 5.9375 0 L 5.9375 -14.765625 L 0.546875 -14.5 L 0.546875 -19.078125 L 16.3125 -19.078125 L 16.3125 -14.5 L 10.78125 -14.765625 L 10.78125 -4.3125 L 11.078125 -1.625 L 10.78125 0 Z M 5.9375 0 "/></g></g></g><g fill="#40abe6" fill-opacity="1"><g transform="translate(58.941189, 27.310089)"><g/></g></g><g fill="#40abe6" fill-opacity="1"><g transform="translate(65.410585, 27.310089)"><g><path d="M 5.9375 0 L 5.9375 -14.765625 L 0.546875 -14.5 L 0.546875 -19.078125 L 16.3125 -19.078125 L 16.3125 -14.5 L 10.78125 -14.765625 L 10.78125 -4.3125 L 11.078125 -1.625 L 10.78125 0 Z M 5.9375 0 "/></g></g></g><g fill="#40abe6" fill-opacity="1"><g transform="translate(82.257971, 27.310089)"><g><path d="M 9.953125 0.265625 C 7.179688 0.265625 5.097656 -0.363281 3.703125 -1.625 C 2.316406 -2.894531 1.625 -4.929688 1.625 -7.734375 L 1.625 -14.75 L 1.640625 -17.46875 L 1.625 -19.078125 L 6.515625 -19.078125 L 6.515625 -8.28125 C 6.515625 -7.019531 6.765625 -6 7.265625 -5.21875 C 7.773438 -4.4375 8.671875 -4.046875 9.953125 -4.046875 C 11.222656 -4.046875 12.125 -4.40625 12.65625 -5.125 C 13.1875 -5.851562 13.453125 -6.90625 13.453125 -8.28125 L 13.453125 -19.078125 L 18.28125 -19.078125 L 18.28125 -7.734375 C 18.28125 -4.984375 17.597656 -2.960938 16.234375 -1.671875 C 14.878906 -0.378906 12.785156 0.265625 9.953125 0.265625 Z M 17.890625 -17.46875 C 17.335938 -17.46875 16.910156 -17.539062 16.609375 -17.6875 C 16.316406 -17.832031 16.171875 -17.90625 16.171875 -17.90625 L 16.171875 -19.09375 L 17 -19.09375 C 17.664062 -19.09375 18.097656 -19.265625 18.296875 -19.609375 C 18.492188 -19.960938 18.59375 -20.445312 18.59375 -21.0625 L 18.59375 -22.640625 L 21.34375 -22.640625 L 21.34375 -20.65625 C 21.34375 -19.84375 21.175781 -19.207031 20.84375 -18.75 C 20.507812 -18.289062 20.078125 -17.960938 19.546875 -17.765625 C 19.023438 -17.566406 18.472656 -17.46875 17.890625 -17.46875 Z M 17.890625 -17.46875 "/></g></g></g><g fill="#40abe6" fill-opacity="1"><g transform="translate(21.458801, 64.934552)"><g><path d="M 7.21875 0 L 7.21875 -8.09375 L 0.546875 -17.46875 L 0.546875 -19.078125 L 6.203125 -19.078125 L 9.4375 -12.984375 L 9.96875 -12.984375 L 13.1875 -19.078125 L 18.84375 -19.078125 L 18.84375 -17.46875 L 11.96875 -7.921875 L 12.125 -5.203125 L 12.125 0 Z M 7.21875 0 "/></g></g></g><g fill="#40abe6" fill-opacity="1"><g transform="translate(40.840036, 64.934552)"><g/></g></g><g fill="#40abe6" fill-opacity="1"><g transform="translate(47.309432, 64.934552)"><g><path d="M 5.9375 0 L 5.9375 -14.765625 L 0.546875 -14.5 L 0.546875 -19.078125 L 16.3125 -19.078125 L 16.3125 -14.5 L 10.78125 -14.765625 L 10.78125 -4.3125 L 11.078125 -1.625 L 10.78125 0 Z M 5.9375 0 "/></g></g></g><g fill="#40abe6" fill-opacity="1"><g transform="translate(64.156818, 64.934552)"><g><path d="M 2.15625 0 L 1.625 -1.625 L 2.15625 -4.3125 L 2.15625 -19.078125 L 15.5 -19.078125 L 16.84375 -18.28125 L 15.0625 -14.5 L 12.640625 -14.765625 L 7.015625 -14.765625 L 7.015625 -11.8125 L 14.265625 -11.8125 L 14.265625 -7.625 L 11.078125 -7.625 L 7.015625 -7.890625 L 7.015625 -4.3125 L 15.0625 -4.3125 L 18.28125 -1.71875 L 16.6875 0 Z M 4.8125 -21.078125 L 7.765625 -24.84375 L 10.484375 -24.84375 L 13.390625 -21.078125 L 11.203125 -21.078125 L 9.125 -22.640625 L 6.96875 -21.078125 Z M 7.546875 -26.0625 L 9.328125 -31.234375 L 12.609375 -31.234375 L 12.609375 -29.59375 L 8.890625 -26.0625 Z M 7.546875 -26.0625 "/></g></g></g></g></g></svg>