<svg xmlns="http://www.w3.org/2000/svg" xmlns:xlink="http://www.w3.org/1999/xlink" width="300" zoomAndPan="magnify" viewBox="0 0 224.87999 233.04" height="300" preserveAspectRatio="xMidYMid meet" version="1.0"><defs><g/><clipPath id="ded3a565cb"><path d="M 0.402344 0 L 224.359375 0 L 224.359375 224.078125 L 0.402344 224.078125 Z M 0.402344 0 " clip-rule="nonzero"/></clipPath><clipPath id="870ab1b6d9"><path d="M 148 97 L 207 97 L 207 157.96875 L 148 157.96875 Z M 148 97 " clip-rule="nonzero"/></clipPath><clipPath id="fef5989380"><path d="M 150 97 L 207 97 L 207 157.96875 L 150 157.96875 Z M 150 97 " clip-rule="nonzero"/></clipPath><clipPath id="41a8d89613"><path d="M 188 113 L 207.453125 113 L 207.453125 133 L 188 133 Z M 188 113 " clip-rule="nonzero"/></clipPath></defs><g clip-path="url(#ded3a565cb)"><path fill="#ffffff" d="M 0.402344 0 L 224.476562 0 L 224.476562 224.078125 L 0.402344 224.078125 Z M 0.402344 0 " fill-opacity="1" fill-rule="nonzero"/><path fill="#d5f2ef" d="M 0.402344 0 L 224.476562 0 L 224.476562 224.078125 L 0.402344 224.078125 Z M 0.402344 0 " fill-opacity="1" fill-rule="nonzero"/></g><path fill="#fcd22b" d="M 156.773438 85.082031 C 157.152344 85.460938 157.507812 85.855469 157.84375 86.269531 C 158.183594 86.679688 158.496094 87.109375 158.792969 87.550781 C 159.089844 87.996094 159.363281 88.453125 159.613281 88.921875 C 159.863281 89.394531 160.089844 89.875 160.292969 90.367188 C 160.496094 90.859375 160.675781 91.363281 160.828125 91.875 C 160.984375 92.382812 161.113281 92.902344 161.214844 93.425781 C 161.320312 93.949219 161.398438 94.472656 161.449219 95.003906 C 161.503906 95.535156 161.527344 96.070312 161.527344 96.601562 C 161.527344 97.136719 161.503906 97.667969 161.449219 98.199219 C 161.398438 98.730469 161.320312 99.257812 161.214844 99.78125 C 161.113281 100.304688 160.984375 100.820312 160.828125 101.332031 C 160.675781 101.839844 160.496094 102.34375 160.292969 102.835938 C 160.089844 103.328125 159.863281 103.808594 159.613281 104.28125 C 159.363281 104.75 159.089844 105.207031 158.792969 105.652344 C 158.496094 106.09375 158.183594 106.523438 157.84375 106.9375 C 157.507812 107.347656 157.152344 107.742188 156.773438 108.121094 C 156.398438 108.496094 156.007812 108.855469 155.59375 109.195312 C 155.183594 109.53125 154.757812 109.847656 154.316406 110.144531 C 153.875 110.441406 153.417969 110.714844 152.949219 110.96875 C 152.480469 111.21875 152 111.445312 151.511719 111.652344 C 151.019531 111.855469 150.519531 112.035156 150.011719 112.191406 C 149.503906 112.34375 148.988281 112.472656 148.464844 112.578125 C 147.945312 112.683594 147.417969 112.761719 146.890625 112.8125 C 146.363281 112.863281 145.832031 112.890625 145.300781 112.890625 C 144.769531 112.890625 144.238281 112.863281 143.710938 112.8125 C 143.179688 112.761719 142.65625 112.683594 142.132812 112.578125 C 141.613281 112.472656 141.097656 112.34375 140.589844 112.191406 C 140.082031 112.035156 139.582031 111.855469 139.089844 111.652344 C 138.597656 111.445312 138.117188 111.21875 137.648438 110.96875 C 137.179688 110.714844 136.726562 110.441406 136.285156 110.144531 C 135.839844 109.847656 135.414062 109.53125 135.003906 109.195312 C 134.59375 108.855469 134.199219 108.496094 133.824219 108.121094 C 133.449219 107.742188 133.09375 107.347656 132.753906 106.9375 C 132.417969 106.523438 132.101562 106.09375 131.804688 105.652344 C 131.511719 105.207031 131.238281 104.75 130.988281 104.28125 C 130.738281 103.808594 130.511719 103.328125 130.304688 102.835938 C 130.101562 102.34375 129.925781 101.839844 129.769531 101.332031 C 129.617188 100.820312 129.488281 100.304688 129.382812 99.78125 C 129.277344 99.257812 129.203125 98.730469 129.148438 98.199219 C 129.097656 97.667969 129.070312 97.136719 129.070312 96.601562 C 129.070312 96.070312 129.097656 95.535156 129.148438 95.003906 C 129.203125 94.472656 129.277344 93.949219 129.382812 93.425781 C 129.488281 92.902344 129.617188 92.382812 129.769531 91.875 C 129.925781 91.363281 130.101562 90.859375 130.304688 90.367188 C 130.511719 89.875 130.738281 89.394531 130.988281 88.921875 C 131.238281 88.453125 131.511719 87.996094 131.804688 87.550781 C 132.101562 87.109375 132.417969 86.679688 132.753906 86.269531 C 133.09375 85.855469 133.449219 85.460938 133.824219 85.082031 C 134.199219 84.707031 134.59375 84.347656 135.003906 84.011719 C 135.414062 83.671875 135.839844 83.355469 136.285156 83.058594 C 136.726562 82.761719 137.179688 82.488281 137.648438 82.234375 C 138.117188 81.984375 138.597656 81.757812 139.089844 81.550781 C 139.582031 81.347656 140.082031 81.167969 140.589844 81.015625 C 141.097656 80.859375 141.613281 80.730469 142.132812 80.625 C 142.65625 80.523438 143.179688 80.445312 143.710938 80.390625 C 144.238281 80.339844 144.769531 80.3125 145.300781 80.3125 C 145.832031 80.3125 146.363281 80.339844 146.890625 80.390625 C 147.417969 80.445312 147.945312 80.523438 148.464844 80.625 C 148.988281 80.730469 149.503906 80.859375 150.011719 81.015625 C 150.519531 81.167969 151.019531 81.347656 151.511719 81.550781 C 152 81.757812 152.480469 81.984375 152.949219 82.234375 C 153.417969 82.488281 153.875 82.761719 154.316406 83.058594 C 154.757812 83.355469 155.183594 83.671875 155.59375 84.011719 C 156.003906 84.347656 156.398438 84.707031 156.773438 85.082031 Z M 156.773438 85.082031 " fill-opacity="1" fill-rule="nonzero"/><path fill="#ffe259" d="M 144.5 112.871094 C 135.910156 112.453125 129.070312 105.328125 129.070312 96.601562 C 129.070312 87.875 135.910156 80.75 144.5 80.332031 C 153.089844 80.75 159.929688 87.875 159.929688 96.601562 C 159.929688 105.328125 153.089844 112.453125 144.5 112.871094 Z M 144.5 112.871094 " fill-opacity="1" fill-rule="evenodd"/><path fill="#9c939c" d="M 146.503906 104.164062 C 146.296875 104.164062 146.085938 104.097656 145.910156 103.957031 C 145.503906 103.625 145.4375 103.027344 145.765625 102.617188 C 146.371094 101.867188 146.558594 101.476562 146.613281 101.304688 C 146.203125 101.121094 145.035156 101.015625 144.078125 100.925781 L 143.96875 100.917969 C 141.144531 100.660156 139.457031 99.757812 139.222656 98.375 C 139.011719 97.136719 139.96875 96.019531 142.058594 95.058594 C 142.480469 94.863281 142.871094 94.742188 143.28125 94.609375 C 143.558594 94.523438 143.847656 94.429688 144.183594 94.308594 C 144.527344 94.179688 144.746094 93.953125 144.804688 93.664062 C 144.859375 93.386719 144.761719 93.097656 144.539062 92.890625 C 144.359375 92.71875 144.078125 92.539062 143.785156 92.351562 C 142.917969 91.792969 141.726562 91.03125 141.820312 89.558594 C 141.878906 88.625 142.296875 88.078125 142.628906 87.636719 C 143.03125 87.109375 143.296875 86.757812 142.996094 85.46875 C 142.875 84.957031 143.191406 84.445312 143.699219 84.324219 C 144.210938 84.207031 144.71875 84.523438 144.839844 85.035156 C 145.308594 87.035156 144.777344 87.953125 144.136719 88.789062 C 143.859375 89.15625 143.734375 89.335938 143.710938 89.679688 C 143.691406 90.007812 144.132812 90.316406 144.804688 90.75 C 145.160156 90.976562 145.527344 91.210938 145.832031 91.5 C 146.539062 92.160156 146.847656 93.109375 146.660156 94.039062 C 146.472656 94.984375 145.808594 95.734375 144.839844 96.09375 C 144.460938 96.230469 144.140625 96.335938 143.851562 96.425781 C 143.46875 96.546875 143.164062 96.644531 142.851562 96.789062 C 141.339844 97.484375 141.121094 97.988281 141.09375 98.058594 C 141.175781 98.21875 141.894531 98.820312 144.140625 99.023438 L 144.25 99.03125 C 146.457031 99.234375 147.910156 99.367188 148.40625 100.535156 C 148.851562 101.585938 148.109375 102.730469 147.242188 103.8125 C 147.054688 104.042969 146.78125 104.164062 146.503906 104.164062 Z M 146.503906 104.164062 " fill-opacity="1" fill-rule="evenodd"/><path fill="#f4494e" d="M 155.242188 95.734375 L 154.824219 94.15625 C 154.6875 93.652344 154.988281 93.128906 155.492188 92.992188 C 156 92.859375 156.519531 93.15625 156.65625 93.667969 L 157.074219 95.242188 C 157.210938 95.75 156.910156 96.269531 156.40625 96.40625 C 155.898438 96.542969 155.382812 96.246094 155.242188 95.734375 Z M 136.1875 101.699219 L 135.375 100.289062 C 135.113281 99.832031 135.269531 99.25 135.722656 98.988281 C 136.175781 98.726562 136.753906 98.882812 137.015625 99.335938 L 137.832031 100.75 C 138.089844 101.203125 137.9375 101.785156 137.484375 102.050781 C 137.03125 102.3125 136.449219 102.160156 136.1875 101.699219 Z M 138.988281 106.277344 C 138.726562 105.824219 138.882812 105.242188 139.335938 104.976562 L 140.742188 104.164062 C 141.195312 103.898438 141.773438 104.054688 142.035156 104.511719 C 142.296875 104.964844 142.140625 105.546875 141.6875 105.808594 L 140.28125 106.625 C 139.832031 106.886719 139.25 106.734375 138.988281 106.277344 Z M 148.253906 108.738281 C 147.730469 108.738281 147.308594 108.3125 147.308594 107.789062 L 147.308594 106.15625 C 147.308594 105.628906 147.730469 105.207031 148.253906 105.207031 C 148.777344 105.207031 149.203125 105.628906 149.203125 106.15625 L 149.203125 107.789062 C 149.203125 108.3125 148.78125 108.738281 148.253906 108.738281 Z M 148.6875 96.484375 C 148.554688 95.976562 148.851562 95.457031 149.359375 95.320312 L 150.929688 94.898438 C 151.433594 94.761719 151.953125 95.0625 152.089844 95.570312 C 152.222656 96.078125 151.925781 96.597656 151.417969 96.734375 L 149.847656 97.15625 C 149.34375 97.292969 148.824219 96.996094 148.6875 96.484375 Z M 148.6875 96.484375 " fill-opacity="1" fill-rule="evenodd"/><g clip-path="url(#870ab1b6d9)"><path fill="#fdc0b1" d="M 170.371094 127.253906 C 171.15625 127.632812 171.265625 128.648438 171.265625 129.421875 L 171.265625 129.964844 C 171.265625 131.050781 170.5625 131.96875 169.515625 132.242188 L 155.230469 135.980469 C 151.484375 136.964844 148.953125 140.25 148.953125 144.136719 L 148.953125 157.972656 L 206.445312 157.972656 L 206.445312 144.136719 C 206.445312 140.25 203.914062 136.964844 200.167969 135.980469 L 185.90625 132.246094 C 184.859375 131.972656 184.15625 131.058594 184.15625 129.972656 L 184.15625 128.761719 C 184.15625 124.308594 184.023438 123.460938 187.117188 117.988281 C 189.867188 113.125 191.117188 107.824219 187.644531 102.84375 C 185.144531 99.261719 180.742188 97.488281 176.371094 97.40625 C 169.703125 97.28125 162.242188 101.9375 163.246094 109.421875 C 163.40625 110.597656 164.054688 111.5 164.027344 112.496094 C 164.011719 113.148438 163.078125 114.375 161.78125 116.367188 C 160.679688 118.082031 160.976562 118.671875 161.933594 119.058594 C 162.6875 119.363281 164.054688 119.445312 164.082031 120.496094 C 164.113281 121.582031 163.847656 124.140625 163.847656 125.386719 C 163.847656 127.785156 165.867188 127.8125 168.226562 127.605469 C 169.035156 127.5 169.738281 127.382812 170.371094 127.253906 Z M 170.371094 127.253906 " fill-opacity="1" fill-rule="evenodd"/></g><g clip-path="url(#fef5989380)"><path fill="#ffcec0" d="M 170.371094 127.253906 C 171.222656 127.0625 171.691406 127.144531 172.070312 127.253906 C 172.875 127.613281 172.972656 128.640625 172.964844 129.421875 L 172.964844 129.964844 C 172.964844 131.050781 172.261719 131.964844 171.214844 132.242188 L 156.929688 135.980469 C 153.183594 136.964844 150.652344 140.25 150.652344 144.136719 L 150.652344 157.972656 L 206.445312 157.972656 L 206.445312 144.136719 C 206.445312 140.25 203.914062 136.964844 200.167969 135.980469 L 185.90625 132.246094 C 184.859375 131.972656 184.15625 131.054688 184.15625 129.972656 L 184.15625 128.761719 C 184.15625 124.308594 184.023438 123.460938 187.117188 117.988281 C 189.867188 113.125 191.117188 107.824219 187.640625 102.84375 C 185.261719 99.429688 181.148438 97.65625 176.984375 97.429688 C 170.621094 97.796875 163.996094 102.34375 164.949219 109.421875 C 165.105469 110.597656 165.753906 111.5 165.726562 112.496094 C 165.710938 113.148438 164.777344 114.375 163.480469 116.363281 C 162.378906 118.082031 162.675781 118.671875 163.632812 119.058594 C 164.386719 119.363281 165.753906 119.445312 165.785156 120.496094 C 165.816406 121.578125 165.546875 124.140625 165.546875 125.386719 C 165.546875 126.960938 166.417969 127.511719 167.683594 127.648438 C 167.863281 127.636719 168.042969 127.621094 168.226562 127.605469 C 169.035156 127.496094 169.738281 127.382812 170.371094 127.253906 Z M 170.371094 127.253906 " fill-opacity="1" fill-rule="evenodd"/></g><g clip-path="url(#41a8d89613)"><path fill="#f4494e" d="M 200.917969 127.210938 C 200.546875 126.839844 200.546875 126.238281 200.917969 125.867188 C 201.289062 125.492188 201.886719 125.492188 202.257812 125.867188 L 204.6875 128.304688 C 205.058594 128.675781 205.058594 129.277344 204.6875 129.648438 C 204.316406 130.019531 203.71875 130.019531 203.347656 129.648438 Z M 202.976562 124 C 202.453125 124 202.027344 123.574219 202.027344 123.050781 C 202.027344 122.523438 202.453125 122.097656 202.976562 122.097656 L 206.464844 122.097656 C 206.988281 122.097656 207.410156 122.523438 207.410156 123.050781 C 207.410156 123.574219 206.988281 124 206.464844 124 Z M 202.214844 120.277344 C 201.84375 120.648438 201.242188 120.648438 200.875 120.277344 C 200.503906 119.90625 200.503906 119.304688 200.875 118.933594 L 203.347656 116.449219 C 203.71875 116.078125 204.316406 116.078125 204.6875 116.449219 C 205.058594 116.820312 205.058594 117.421875 204.6875 117.792969 Z M 199.058594 118.109375 C 199.058594 118.632812 198.636719 119.058594 198.113281 119.058594 C 197.589844 119.058594 197.164062 118.632812 197.164062 118.109375 L 197.164062 114.667969 C 197.164062 114.140625 197.589844 113.714844 198.113281 113.714844 C 198.636719 113.714844 199.058594 114.140625 199.058594 114.667969 Z M 195.277344 118.859375 C 195.648438 119.230469 195.648438 119.832031 195.277344 120.203125 C 194.90625 120.574219 194.308594 120.574219 193.9375 120.203125 L 191.539062 117.792969 C 191.167969 117.421875 191.167969 116.820312 191.539062 116.449219 C 191.90625 116.078125 192.507812 116.078125 192.878906 116.449219 Z M 193.21875 122.097656 C 193.742188 122.097656 194.167969 122.523438 194.167969 123.050781 C 194.167969 123.574219 193.742188 124 193.21875 124 L 189.761719 124 C 189.238281 124 188.8125 123.574219 188.8125 123.050781 C 188.8125 122.523438 189.238281 122.097656 189.761719 122.097656 Z M 193.996094 125.835938 C 194.367188 125.464844 194.964844 125.464844 195.335938 125.835938 C 195.707031 126.207031 195.707031 126.808594 195.335938 127.179688 L 192.878906 129.648438 C 192.507812 130.019531 191.90625 130.019531 191.539062 129.648438 C 191.167969 129.277344 191.167969 128.675781 191.539062 128.304688 Z M 197.164062 127.960938 C 197.164062 127.433594 197.589844 127.007812 198.113281 127.007812 C 198.636719 127.007812 199.058594 127.433594 199.058594 127.960938 L 199.058594 131.429688 C 199.058594 131.957031 198.636719 132.382812 198.113281 132.382812 C 197.589844 132.382812 197.164062 131.957031 197.164062 131.429688 Z M 197.164062 127.960938 " fill-opacity="1" fill-rule="evenodd"/></g><path fill="#e8333c" d="M 151.527344 86.714844 C 151.816406 86.78125 152.085938 86.90625 152.324219 87.078125 C 152.566406 87.253906 152.769531 87.46875 152.925781 87.722656 C 153.082031 87.980469 153.183594 88.253906 153.230469 88.550781 C 153.28125 88.847656 153.269531 89.140625 153.199219 89.429688 C 153.132812 89.722656 153.011719 89.988281 152.835938 90.234375 C 152.660156 90.476562 152.445312 90.675781 152.191406 90.832031 C 151.941406 90.992188 151.664062 91.09375 151.371094 91.140625 C 151.074219 91.191406 150.785156 91.179688 150.492188 91.109375 C 150.203125 91.042969 149.9375 90.921875 149.695312 90.746094 C 149.453125 90.570312 149.253906 90.355469 149.09375 90.101562 C 148.9375 89.84375 148.835938 89.570312 148.789062 89.273438 C 148.742188 88.976562 148.75 88.683594 148.820312 88.394531 C 148.886719 88.101562 149.007812 87.835938 149.183594 87.589844 C 149.359375 87.347656 149.574219 87.148438 149.828125 86.992188 C 150.082031 86.832031 150.355469 86.730469 150.648438 86.683594 C 150.945312 86.632812 151.238281 86.644531 151.527344 86.714844 Z M 151.527344 86.714844 " fill-opacity="1" fill-rule="nonzero"/><path fill="#e8333c" d="M 154.113281 99.046875 C 154.402344 99.117188 154.667969 99.238281 154.910156 99.414062 C 155.152344 99.589844 155.351562 99.804688 155.511719 100.058594 C 155.667969 100.3125 155.769531 100.589844 155.816406 100.882812 C 155.863281 101.179688 155.855469 101.472656 155.785156 101.765625 C 155.71875 102.054688 155.597656 102.324219 155.421875 102.566406 C 155.246094 102.808594 155.03125 103.007812 154.777344 103.167969 C 154.523438 103.324219 154.25 103.425781 153.957031 103.476562 C 153.660156 103.523438 153.367188 103.511719 153.078125 103.445312 C 152.789062 103.375 152.523438 103.253906 152.28125 103.078125 C 152.039062 102.902344 151.839844 102.6875 151.679688 102.433594 C 151.523438 102.179688 151.421875 101.902344 151.375 101.605469 C 151.328125 101.3125 151.335938 101.019531 151.40625 100.726562 C 151.472656 100.433594 151.59375 100.167969 151.769531 99.925781 C 151.945312 99.679688 152.160156 99.480469 152.414062 99.324219 C 152.667969 99.167969 152.941406 99.0625 153.234375 99.015625 C 153.53125 98.96875 153.820312 98.976562 154.113281 99.046875 Z M 154.113281 99.046875 " fill-opacity="1" fill-rule="nonzero"/><path fill="#e8333c" d="M 138 91.265625 C 138.210938 91.476562 138.375 91.722656 138.488281 92 C 138.605469 92.277344 138.660156 92.5625 138.660156 92.863281 C 138.660156 93.164062 138.605469 93.453125 138.488281 93.726562 C 138.375 94.003906 138.210938 94.25 138 94.460938 C 137.789062 94.671875 137.546875 94.835938 137.269531 94.949219 C 136.996094 95.066406 136.707031 95.121094 136.410156 95.121094 C 136.113281 95.121094 135.824219 95.066406 135.546875 94.949219 C 135.273438 94.835938 135.03125 94.671875 134.820312 94.460938 C 134.609375 94.25 134.445312 94.003906 134.332031 93.726562 C 134.214844 93.453125 134.160156 93.164062 134.160156 92.863281 C 134.160156 92.5625 134.214844 92.277344 134.332031 92 C 134.445312 91.722656 134.609375 91.476562 134.820312 91.265625 C 135.03125 91.054688 135.273438 90.890625 135.546875 90.777344 C 135.824219 90.660156 136.113281 90.605469 136.410156 90.605469 C 136.707031 90.605469 136.996094 90.660156 137.269531 90.777344 C 137.546875 90.890625 137.789062 91.054688 138 91.265625 Z M 138 91.265625 " fill-opacity="1" fill-rule="nonzero"/><path fill="#ff6161" d="M 150.59375 91.132812 C 149.550781 90.9375 148.757812 90.015625 148.757812 88.910156 C 148.757812 87.808594 149.550781 86.886719 150.59375 86.691406 C 151.640625 86.886719 152.429688 87.808594 152.429688 88.910156 C 152.429688 90.015625 151.640625 90.9375 150.59375 91.132812 Z M 150.59375 91.132812 " fill-opacity="1" fill-rule="evenodd"/><path fill="#ff6161" d="M 153.179688 103.464844 C 152.136719 103.269531 151.34375 102.351562 151.34375 101.246094 C 151.34375 100.140625 152.136719 99.21875 153.179688 99.023438 C 154.226562 99.21875 155.015625 100.140625 155.015625 101.246094 C 155.015625 102.351562 154.226562 103.269531 153.179688 103.464844 Z M 153.179688 103.464844 " fill-opacity="1" fill-rule="evenodd"/><path fill="#ff6161" d="M 135.996094 95.085938 C 134.949219 94.890625 134.160156 93.96875 134.160156 92.863281 C 134.160156 91.757812 134.949219 90.839844 135.996094 90.644531 C 137.039062 90.839844 137.832031 91.757812 137.832031 92.863281 C 137.832031 93.96875 137.039062 94.890625 135.996094 95.085938 Z M 135.996094 95.085938 " fill-opacity="1" fill-rule="evenodd"/><path fill="#ff9494" d="M 172.175781 119.660156 C 171.671875 119.796875 171.152344 119.496094 171.015625 118.988281 C 170.882812 118.480469 171.183594 117.960938 171.6875 117.824219 L 173.257812 117.402344 C 173.761719 117.265625 174.28125 117.570312 174.414062 118.074219 C 174.550781 118.582031 174.25 119.101562 173.746094 119.238281 Z M 180.238281 153.125 C 180.238281 153.652344 179.8125 154.078125 179.289062 154.078125 C 178.765625 154.078125 178.34375 153.652344 178.34375 153.125 L 178.34375 151.496094 C 178.34375 150.96875 178.765625 150.542969 179.289062 150.542969 C 179.8125 150.542969 180.238281 150.96875 180.238281 151.496094 Z M 180.375 136.5 C 179.925781 136.761719 179.347656 136.605469 179.089844 136.152344 C 178.828125 135.699219 178.984375 135.117188 179.4375 134.859375 L 179.945312 134.5625 C 180.398438 134.300781 180.972656 134.457031 181.234375 134.914062 C 181.492188 135.367188 181.335938 135.945312 180.886719 136.207031 Z M 178.046875 141.03125 C 178.046875 141.554688 177.621094 141.980469 177.097656 141.980469 C 176.574219 141.980469 176.152344 141.554688 176.152344 141.03125 L 176.152344 140.4375 C 176.152344 139.914062 176.574219 139.488281 177.097656 139.488281 C 177.621094 139.488281 178.046875 139.914062 178.046875 140.4375 Z M 167.089844 137.699219 C 167.089844 138.226562 166.664062 138.652344 166.140625 138.652344 C 165.617188 138.652344 165.195312 138.226562 165.195312 137.699219 L 165.195312 137.109375 C 165.195312 136.585938 165.617188 136.160156 166.140625 136.160156 C 166.664062 136.160156 167.089844 136.585938 167.089844 137.109375 Z M 155.636719 142.5 C 156.140625 142.632812 156.441406 143.152344 156.308594 143.660156 C 156.171875 144.167969 155.652344 144.46875 155.148438 144.332031 L 153.578125 143.910156 C 153.074219 143.777344 152.773438 143.253906 152.910156 142.75 C 153.042969 142.242188 153.5625 141.941406 154.066406 142.074219 Z M 157.355469 154.84375 C 156.988281 154.46875 156.988281 153.867188 157.355469 153.496094 C 157.726562 153.125 158.328125 153.125 158.695312 153.496094 L 159.273438 154.074219 C 159.640625 154.445312 159.640625 155.046875 159.273438 155.417969 C 158.902344 155.789062 158.300781 155.789062 157.933594 155.417969 Z M 153.25 147.199219 C 153.511719 146.742188 154.089844 146.589844 154.542969 146.851562 C 154.996094 147.113281 155.148438 147.695312 154.886719 148.148438 L 154.546875 148.738281 C 154.285156 149.191406 153.707031 149.34375 153.257812 149.082031 C 152.804688 148.820312 152.652344 148.238281 152.910156 147.785156 Z M 174.488281 135.75 C 174.941406 136.011719 175.097656 136.589844 174.835938 137.042969 C 174.578125 137.5 174 137.65625 173.550781 137.394531 L 173.039062 137.097656 C 172.585938 136.839844 172.429688 136.257812 172.691406 135.804688 C 172.949219 135.351562 173.527344 135.195312 173.980469 135.457031 Z M 160.171875 144.0625 C 160.433594 143.609375 161.011719 143.457031 161.460938 143.71875 C 161.914062 143.980469 162.070312 144.5625 161.808594 145.015625 L 161.46875 145.605469 C 161.207031 146.058594 160.628906 146.210938 160.175781 145.949219 C 159.726562 145.6875 159.570312 145.105469 159.832031 144.652344 Z M 171.835938 154.441406 C 172.339844 154.574219 172.640625 155.097656 172.503906 155.605469 C 172.371094 156.109375 171.851562 156.410156 171.347656 156.277344 L 170.691406 156.101562 C 170.1875 155.964844 169.886719 155.445312 170.023438 154.9375 C 170.15625 154.429688 170.675781 154.128906 171.179688 154.265625 Z M 169.800781 149.554688 C 169.800781 150.082031 169.378906 150.507812 168.855469 150.507812 C 168.332031 150.507812 167.90625 150.082031 167.90625 149.554688 L 167.90625 148.964844 C 167.90625 148.441406 168.332031 148.015625 168.855469 148.015625 C 169.378906 148.015625 169.800781 148.441406 169.800781 148.964844 Z M 154.3125 154.53125 C 154.3125 155.058594 153.890625 155.484375 153.367188 155.484375 C 152.84375 155.484375 152.417969 155.058594 152.417969 154.53125 L 152.417969 152.902344 C 152.417969 152.375 152.84375 151.949219 153.367188 151.949219 C 153.890625 151.949219 154.3125 152.375 154.3125 152.902344 Z M 162.210938 150.015625 C 162.46875 149.5625 163.046875 149.40625 163.5 149.664062 C 163.949219 149.925781 164.105469 150.503906 163.847656 150.957031 L 163.441406 151.664062 C 163.179688 152.117188 162.601562 152.273438 162.152344 152.015625 C 161.699219 151.753906 161.542969 151.175781 161.804688 150.722656 Z M 174.085938 143.621094 C 174.589844 143.757812 174.890625 144.277344 174.757812 144.785156 C 174.621094 145.292969 174.101562 145.59375 173.597656 145.457031 L 172.027344 145.035156 C 171.523438 144.898438 171.222656 144.378906 171.355469 143.871094 C 171.492188 143.363281 172.011719 143.0625 172.515625 143.199219 Z M 189.714844 137.699219 C 189.714844 138.226562 189.289062 138.652344 188.765625 138.652344 C 188.242188 138.652344 187.820312 138.226562 187.820312 137.699219 L 187.820312 137.109375 C 187.820312 136.585938 188.242188 136.160156 188.765625 136.160156 C 189.289062 136.160156 189.714844 136.585938 189.714844 137.109375 Z M 193.496094 138.695312 C 193.867188 138.324219 194.46875 138.324219 194.835938 138.695312 C 195.207031 139.066406 195.207031 139.667969 194.835938 140.039062 L 194.359375 140.519531 C 193.988281 140.890625 193.390625 140.890625 193.019531 140.519531 C 192.648438 140.148438 192.648438 139.546875 193.019531 139.175781 Z M 199.761719 144.332031 C 199.257812 144.46875 198.738281 144.167969 198.601562 143.660156 C 198.46875 143.152344 198.765625 142.632812 199.273438 142.5 L 200.84375 142.074219 C 201.347656 141.941406 201.867188 142.242188 202 142.75 C 202.136719 143.253906 201.835938 143.777344 201.332031 143.910156 Z M 196.269531 154.109375 C 196.640625 153.738281 197.242188 153.738281 197.609375 154.109375 C 197.980469 154.480469 197.980469 155.082031 197.609375 155.453125 L 197.035156 156.03125 C 196.664062 156.402344 196.066406 156.402344 195.695312 156.03125 C 195.324219 155.660156 195.324219 155.058594 195.695312 154.6875 Z M 200.023438 148.148438 C 199.761719 147.695312 199.914062 147.113281 200.367188 146.851562 C 200.820312 146.589844 201.398438 146.742188 201.660156 147.199219 L 201.996094 147.785156 C 202.257812 148.238281 202.105469 148.820312 201.652344 149.082031 C 201.203125 149.34375 200.621094 149.191406 200.359375 148.738281 Z M 190.664062 145.695312 C 190.210938 145.957031 189.636719 145.800781 189.375 145.347656 C 189.117188 144.894531 189.273438 144.3125 189.722656 144.054688 L 190.234375 143.757812 C 190.6875 143.496094 191.261719 143.652344 191.523438 144.105469 C 191.78125 144.558594 191.625 145.140625 191.175781 145.398438 Z M 194.167969 148.164062 C 193.90625 147.710938 194.058594 147.128906 194.511719 146.867188 C 194.964844 146.605469 195.542969 146.761719 195.804688 147.214844 L 196.140625 147.800781 C 196.402344 148.253906 196.25 148.835938 195.796875 149.097656 C 195.347656 149.363281 194.769531 149.207031 194.507812 148.753906 Z M 185.632812 155.621094 C 185.128906 155.753906 184.609375 155.453125 184.472656 154.945312 C 184.339844 154.441406 184.636719 153.917969 185.144531 153.785156 L 185.796875 153.609375 C 186.304688 153.472656 186.820312 153.773438 186.957031 154.28125 C 187.089844 154.789062 186.792969 155.308594 186.285156 155.441406 Z M 187.003906 149.554688 C 187.003906 150.082031 186.578125 150.507812 186.054688 150.507812 C 185.53125 150.507812 185.105469 150.082031 185.105469 149.554688 L 185.105469 148.964844 C 185.105469 148.441406 185.53125 148.015625 186.054688 148.015625 C 186.578125 148.015625 187.003906 148.441406 187.003906 148.964844 Z M 202.492188 154.53125 C 202.492188 155.058594 202.066406 155.484375 201.542969 155.484375 C 201.019531 155.484375 200.59375 155.058594 200.59375 154.53125 L 200.59375 152.902344 C 200.59375 152.375 201.019531 151.949219 201.542969 151.949219 C 202.066406 151.949219 202.492188 152.375 202.492188 152.902344 Z M 190.972656 152.652344 C 190.714844 152.199219 190.871094 151.621094 191.320312 151.359375 C 191.773438 151.101562 192.351562 151.257812 192.609375 151.710938 L 193.015625 152.417969 C 193.277344 152.871094 193.121094 153.449219 192.667969 153.710938 C 192.214844 153.96875 191.640625 153.8125 191.378906 153.359375 Z M 157.808594 139.84375 C 157.546875 139.390625 157.703125 138.8125 158.152344 138.546875 C 158.605469 138.285156 159.183594 138.441406 159.445312 138.894531 L 159.785156 139.484375 C 160.046875 139.9375 159.890625 140.515625 159.441406 140.78125 C 158.988281 141.042969 158.410156 140.886719 158.148438 140.433594 Z M 165.621094 142.453125 C 165.359375 142 165.515625 141.421875 165.96875 141.160156 C 166.417969 140.898438 166.996094 141.058594 167.253906 141.511719 L 168.066406 142.921875 C 168.328125 143.375 168.171875 143.957031 167.71875 144.214844 C 167.269531 144.476562 166.691406 144.320312 166.433594 143.867188 Z M 183.316406 141.203125 C 183.183594 140.695312 183.484375 140.171875 183.988281 140.039062 C 184.492188 139.902344 185.011719 140.203125 185.148438 140.710938 L 185.566406 142.285156 C 185.703125 142.792969 185.402344 143.316406 184.898438 143.449219 C 184.394531 143.585938 183.875 143.285156 183.738281 142.777344 Z M 179.046875 147.238281 C 178.542969 147.375 178.023438 147.074219 177.886719 146.566406 C 177.753906 146.058594 178.054688 145.539062 178.558594 145.402344 L 180.128906 144.980469 C 180.632812 144.847656 181.152344 145.148438 181.285156 145.652344 C 181.421875 146.160156 181.121094 146.679688 180.617188 146.816406 Z M 174.507812 123.324219 C 174.875 122.953125 175.476562 122.953125 175.847656 123.324219 C 176.214844 123.695312 176.214844 124.296875 175.847656 124.667969 L 175.367188 125.152344 C 174.996094 125.523438 174.398438 125.523438 174.027344 125.152344 C 173.65625 124.78125 173.65625 124.175781 174.027344 123.804688 Z M 177.996094 128.371094 C 177.488281 128.507812 176.96875 128.207031 176.835938 127.699219 C 176.699219 127.191406 177 126.671875 177.503906 126.535156 L 179.074219 126.113281 C 179.582031 125.980469 180.097656 126.28125 180.234375 126.785156 C 180.371094 127.292969 180.070312 127.8125 179.5625 127.949219 Z M 173.890625 131.019531 C 173.628906 130.566406 173.78125 129.984375 174.234375 129.722656 C 174.6875 129.457031 175.265625 129.613281 175.527344 130.066406 L 175.867188 130.65625 C 176.128906 131.109375 175.972656 131.691406 175.519531 131.953125 C 175.070312 132.214844 174.492188 132.058594 174.230469 131.605469 Z M 179.230469 107.300781 C 178.96875 106.847656 179.121094 106.265625 179.574219 106.003906 C 180.027344 105.742188 180.605469 105.894531 180.867188 106.351562 L 181.203125 106.9375 C 181.464844 107.390625 181.3125 107.972656 180.859375 108.234375 C 180.410156 108.496094 179.828125 108.34375 179.566406 107.890625 Z M 178.390625 114.46875 C 178.761719 114.097656 179.363281 114.097656 179.730469 114.46875 C 180.101562 114.839844 180.101562 115.441406 179.730469 115.8125 L 179.15625 116.390625 C 178.789062 116.761719 178.1875 116.761719 177.816406 116.390625 C 177.449219 116.019531 177.449219 115.417969 177.816406 115.046875 Z M 182.773438 106.882812 C 182.511719 106.429688 182.667969 105.847656 183.121094 105.585938 C 183.570312 105.324219 184.148438 105.476562 184.410156 105.929688 L 184.75 106.519531 C 185.011719 106.972656 184.855469 107.554688 184.40625 107.816406 C 183.953125 108.078125 183.375 107.925781 183.113281 107.46875 Z M 173.417969 104.429688 C 172.964844 104.6875 172.386719 104.53125 172.128906 104.078125 C 171.867188 103.625 172.023438 103.046875 172.476562 102.785156 L 172.988281 102.492188 C 173.4375 102.230469 174.015625 102.386719 174.273438 102.839844 C 174.535156 103.292969 174.378906 103.871094 173.925781 104.132812 Z M 177.75 103.554688 C 177.488281 103.101562 177.640625 102.519531 178.09375 102.257812 C 178.542969 101.996094 179.125 102.152344 179.386719 102.605469 L 179.722656 103.191406 C 179.984375 103.644531 179.832031 104.226562 179.378906 104.488281 C 178.929688 104.753906 178.347656 104.597656 178.085938 104.144531 Z M 178.992188 120.972656 C 178.730469 120.519531 178.886719 119.941406 179.335938 119.675781 C 179.789062 119.414062 180.367188 119.570312 180.628906 120.023438 L 180.96875 120.613281 C 181.230469 121.066406 181.074219 121.644531 180.625 121.910156 C 180.171875 122.171875 179.59375 122.015625 179.332031 121.5625 Z M 168.589844 123.230469 C 168.328125 122.777344 168.480469 122.195312 168.933594 121.933594 C 169.382812 121.667969 169.964844 121.824219 170.226562 122.277344 L 170.5625 122.867188 C 170.824219 123.320312 170.671875 123.902344 170.21875 124.164062 C 169.765625 124.425781 169.1875 124.273438 168.925781 123.816406 Z M 167.300781 115.523438 C 166.796875 115.65625 166.277344 115.355469 166.144531 114.851562 C 166.007812 114.34375 166.308594 113.824219 166.8125 113.6875 L 167.46875 113.511719 C 167.972656 113.375 168.492188 113.675781 168.625 114.183594 C 168.761719 114.691406 168.460938 115.210938 167.957031 115.347656 Z M 169.753906 108.289062 C 169.753906 108.816406 169.332031 109.242188 168.808594 109.242188 C 168.285156 109.242188 167.859375 108.816406 167.859375 108.289062 L 167.859375 107.699219 C 167.859375 107.171875 168.285156 106.746094 168.808594 106.746094 C 169.332031 106.746094 169.753906 107.171875 169.753906 107.699219 Z M 185.242188 113.265625 C 185.242188 113.792969 184.820312 114.21875 184.296875 114.21875 C 183.773438 114.21875 183.347656 113.792969 183.347656 113.265625 L 183.347656 111.636719 C 183.347656 111.109375 183.773438 110.683594 184.296875 110.683594 C 184.820312 110.683594 185.242188 111.109375 185.242188 111.636719 Z M 173.726562 111.386719 C 173.464844 110.933594 173.621094 110.355469 174.074219 110.09375 C 174.527344 109.832031 175.101562 109.988281 175.363281 110.441406 L 175.769531 111.148438 C 176.027344 111.601562 175.871094 112.183594 175.421875 112.441406 C 174.96875 112.703125 174.390625 112.546875 174.132812 112.09375 Z M 173.726562 111.386719 " fill-opacity="1" fill-rule="evenodd"/><path fill="#ff6161" d="M 199.0625 117.171875 C 199.445312 117.234375 199.820312 117.332031 200.1875 117.46875 C 200.550781 117.605469 200.898438 117.777344 201.230469 117.984375 C 201.5625 118.1875 201.871094 118.425781 202.15625 118.691406 C 202.441406 118.957031 202.695312 119.25 202.925781 119.566406 C 203.152344 119.882812 203.347656 120.21875 203.507812 120.578125 C 203.671875 120.933594 203.796875 121.300781 203.886719 121.679688 C 203.976562 122.0625 204.027344 122.445312 204.039062 122.835938 C 204.054688 123.226562 204.03125 123.617188 203.96875 124.003906 C 203.90625 124.386719 203.804688 124.765625 203.667969 125.128906 C 203.535156 125.496094 203.363281 125.847656 203.15625 126.179688 C 202.953125 126.511719 202.71875 126.820312 202.453125 127.105469 C 202.1875 127.394531 201.894531 127.648438 201.582031 127.878906 C 201.265625 128.109375 200.929688 128.304688 200.574219 128.464844 C 200.21875 128.628906 199.855469 128.753906 199.476562 128.84375 C 199.09375 128.933594 198.710938 128.984375 198.320312 129 C 197.933594 129.011719 197.546875 128.988281 197.160156 128.925781 C 196.777344 128.863281 196.402344 128.761719 196.039062 128.628906 C 195.671875 128.492188 195.324219 128.320312 194.992188 128.113281 C 194.660156 127.90625 194.355469 127.671875 194.070312 127.40625 C 193.785156 127.140625 193.527344 126.847656 193.300781 126.53125 C 193.070312 126.214844 192.875 125.875 192.714844 125.519531 C 192.554688 125.164062 192.429688 124.796875 192.339844 124.417969 C 192.25 124.035156 192.195312 123.652344 192.183594 123.261719 C 192.167969 122.867188 192.195312 122.480469 192.257812 122.09375 C 192.320312 121.707031 192.417969 121.332031 192.554688 120.964844 C 192.691406 120.601562 192.859375 120.25 193.066406 119.917969 C 193.269531 119.585938 193.503906 119.277344 193.769531 118.992188 C 194.035156 118.703125 194.328125 118.445312 194.644531 118.21875 C 194.960938 117.988281 195.292969 117.792969 195.648438 117.632812 C 196.003906 117.46875 196.371094 117.34375 196.75 117.253906 C 197.128906 117.164062 197.511719 117.113281 197.902344 117.097656 C 198.289062 117.085938 198.675781 117.109375 199.0625 117.171875 Z M 199.0625 117.171875 " fill-opacity="1" fill-rule="nonzero"/><path fill="#ff7373" d="M 197.785156 128.996094 C 194.660156 128.824219 192.179688 126.226562 192.179688 123.050781 C 192.179688 119.871094 194.660156 117.273438 197.785156 117.105469 C 200.910156 117.273438 203.394531 119.871094 203.394531 123.050781 C 203.394531 126.226562 200.910156 128.824219 197.785156 128.996094 Z M 197.785156 128.996094 " fill-opacity="1" fill-rule="evenodd"/><path fill="#d92730" d="M 196.515625 122.449219 C 196.046875 122.859375 195.335938 122.8125 194.925781 122.34375 C 194.515625 121.875 194.5625 121.160156 195.03125 120.75 L 195.472656 120.363281 C 195.941406 119.953125 196.652344 120 197.0625 120.46875 C 197.472656 120.9375 197.425781 121.652344 196.957031 122.0625 Z M 202.027344 123.675781 C 201.867188 124.28125 201.25 124.640625 200.648438 124.484375 C 200.046875 124.324219 199.6875 123.707031 199.847656 123.101562 C 199.921875 122.816406 199.949219 122.558594 199.894531 122.359375 C 199.851562 122.210938 199.734375 122.0625 199.511719 121.921875 C 198.980469 121.589844 198.820312 120.894531 199.148438 120.363281 C 199.476562 119.832031 200.171875 119.667969 200.703125 120 C 201.457031 120.46875 201.875 121.074219 202.066406 121.753906 C 202.242188 122.386719 202.195312 123.035156 202.027344 123.675781 Z M 198.257812 125.207031 C 198.394531 125.816406 198.011719 126.421875 197.40625 126.558594 C 196.796875 126.695312 196.195312 126.3125 196.058594 125.703125 L 196.019531 125.519531 C 195.882812 124.914062 196.261719 124.308594 196.871094 124.171875 C 197.476562 124.035156 198.078125 124.417969 198.214844 125.023438 Z M 198.257812 125.207031 " fill-opacity="1" fill-rule="evenodd"/><path fill="#e8333c" d="M 195.507812 122.699219 C 195.289062 122.644531 195.085938 122.527344 194.925781 122.34375 C 194.515625 121.875 194.5625 121.160156 195.03125 120.75 L 195.472656 120.363281 C 195.613281 120.238281 195.777344 120.15625 195.949219 120.113281 C 196.167969 120.167969 196.371094 120.285156 196.527344 120.46875 C 196.9375 120.9375 196.890625 121.652344 196.421875 122.0625 L 195.980469 122.449219 C 195.839844 122.574219 195.679688 122.65625 195.507812 122.699219 Z M 201.492188 123.675781 C 201.382812 124.09375 201.058594 124.394531 200.671875 124.488281 L 200.648438 124.484375 C 200.046875 124.324219 199.6875 123.707031 199.847656 123.101562 C 199.921875 122.816406 199.949219 122.558594 199.894531 122.359375 C 199.851562 122.210938 199.734375 122.0625 199.511719 121.921875 C 198.980469 121.589844 198.820312 120.890625 199.148438 120.363281 C 199.3125 120.097656 199.5625 119.925781 199.839844 119.859375 C 199.953125 119.886719 200.0625 119.933594 200.167969 120 C 200.921875 120.46875 201.34375 121.074219 201.53125 121.753906 C 201.707031 122.386719 201.660156 123.035156 201.492188 123.675781 Z M 197.722656 125.207031 C 197.859375 125.808594 197.488281 126.40625 196.890625 126.550781 C 196.488281 126.453125 196.15625 126.136719 196.058594 125.703125 L 196.019531 125.519531 C 195.882812 124.917969 196.253906 124.320312 196.851562 124.175781 C 197.253906 124.273438 197.585938 124.59375 197.683594 125.023438 Z M 197.722656 125.207031 " fill-opacity="1" fill-rule="evenodd"/><path fill="#f4494e" d="M 143.417969 120.476562 C 143.417969 121 142.996094 121.425781 142.472656 121.425781 C 141.949219 121.425781 141.523438 121 141.523438 120.476562 L 141.523438 116.570312 C 141.523438 116.042969 141.949219 115.617188 142.472656 115.617188 C 142.996094 115.617188 143.417969 116.042969 143.417969 116.570312 Z M 146.914062 122.714844 C 146.542969 123.085938 145.941406 123.085938 145.574219 122.714844 C 145.203125 122.34375 145.203125 121.742188 145.574219 121.371094 L 148.324219 118.609375 C 148.695312 118.238281 149.296875 118.238281 149.664062 118.609375 C 150.035156 118.980469 150.035156 119.582031 149.664062 119.953125 Z M 147.804688 126.78125 C 147.28125 126.78125 146.859375 126.355469 146.859375 125.828125 C 146.859375 125.304688 147.28125 124.878906 147.804688 124.878906 L 151.699219 124.878906 C 152.222656 124.878906 152.644531 125.304688 152.644531 125.828125 C 152.644531 126.355469 152.222656 126.78125 151.699219 126.78125 Z M 145.574219 130.289062 C 145.203125 129.917969 145.203125 129.3125 145.574219 128.941406 C 145.941406 128.570312 146.542969 128.570312 146.914062 128.941406 L 149.664062 131.707031 C 150.035156 132.078125 150.035156 132.679688 149.664062 133.050781 C 149.296875 133.421875 148.695312 133.421875 148.324219 133.050781 Z M 141.523438 131.183594 C 141.523438 130.65625 141.949219 130.230469 142.472656 130.230469 C 142.996094 130.230469 143.417969 130.65625 143.417969 131.183594 L 143.417969 135.089844 C 143.417969 135.617188 142.996094 136.042969 142.472656 136.042969 C 141.949219 136.042969 141.523438 135.617188 141.523438 135.089844 Z M 138.03125 128.941406 C 138.398438 128.570312 139 128.570312 139.371094 128.941406 C 139.738281 129.3125 139.738281 129.917969 139.371094 130.289062 L 136.617188 133.050781 C 136.246094 133.421875 135.648438 133.421875 135.277344 133.050781 C 134.90625 132.679688 134.90625 132.078125 135.277344 131.707031 Z M 137.136719 124.878906 C 137.660156 124.878906 138.085938 125.304688 138.085938 125.828125 C 138.085938 126.355469 137.660156 126.78125 137.136719 126.78125 L 133.246094 126.78125 C 132.722656 126.78125 132.296875 126.355469 132.296875 125.828125 C 132.296875 125.304688 132.722656 124.878906 133.246094 124.878906 Z M 139.371094 121.371094 C 139.738281 121.742188 139.738281 122.34375 139.371094 122.714844 C 139 123.085938 138.398438 123.085938 138.03125 122.714844 L 135.277344 119.953125 C 134.90625 119.582031 134.90625 118.980469 135.277344 118.609375 C 135.648438 118.238281 136.246094 118.238281 136.617188 118.609375 Z M 139.371094 121.371094 " fill-opacity="1" fill-rule="evenodd"/><path fill="#f4494e" d="M 144.160156 119.496094 C 147.644531 120.433594 149.714844 124.027344 148.78125 127.527344 C 147.847656 131.023438 144.265625 133.097656 140.78125 132.160156 C 137.296875 131.222656 135.230469 127.628906 136.164062 124.132812 C 137.097656 120.636719 140.679688 118.5625 144.160156 119.496094 Z M 144.160156 119.496094 " fill-opacity="1" fill-rule="evenodd"/><path fill="#ff7373" d="M 140.300781 132.011719 C 137.109375 130.886719 135.273438 127.464844 136.164062 124.132812 C 137.054688 120.800781 140.347656 118.757812 143.671875 119.386719 C 146.859375 120.511719 148.695312 123.933594 147.804688 127.265625 C 146.917969 130.597656 143.621094 132.636719 140.300781 132.011719 Z M 140.300781 132.011719 " fill-opacity="1" fill-rule="evenodd"/><path fill="#d92730" d="M 143.210938 124 C 142.804688 123.535156 142.851562 122.828125 143.316406 122.421875 C 143.777344 122.015625 144.484375 122.0625 144.886719 122.527344 L 145.308594 123.011719 C 145.714844 123.476562 145.667969 124.183594 145.203125 124.589844 C 144.742188 125 144.039062 124.953125 143.632812 124.488281 Z M 141.816406 130.015625 C 141.21875 129.859375 140.863281 129.246094 141.019531 128.648438 C 141.175781 128.050781 141.785156 127.691406 142.382812 127.851562 C 142.710938 127.9375 143.015625 127.96875 143.253906 127.902344 C 143.445312 127.847656 143.628906 127.707031 143.800781 127.429688 C 144.125 126.90625 144.8125 126.742188 145.335938 127.070312 C 145.859375 127.398438 146.019531 128.089844 145.695312 128.613281 C 145.199219 129.414062 144.5625 129.859375 143.847656 130.058594 C 143.183594 130.246094 142.496094 130.195312 141.816406 130.015625 Z M 140.09375 125.875 C 139.492188 126.011719 138.894531 125.632812 138.761719 125.03125 C 138.625 124.425781 139.003906 123.828125 139.605469 123.691406 L 139.800781 123.648438 C 140.402344 123.511719 141 123.890625 141.132812 124.496094 C 141.269531 125.097656 140.890625 125.695312 140.289062 125.832031 Z M 140.09375 125.875 " fill-opacity="1" fill-rule="evenodd"/><path fill="#e8333c" d="M 142.957031 123.035156 C 143.007812 122.804688 143.125 122.589844 143.316406 122.421875 C 143.777344 122.015625 144.484375 122.0625 144.886719 122.527344 L 145.308594 123.011719 C 145.441406 123.164062 145.523438 123.335938 145.5625 123.519531 C 145.511719 123.75 145.394531 123.964844 145.203125 124.132812 C 144.742188 124.539062 144.039062 124.492188 143.632812 124.027344 L 143.210938 123.539062 C 143.078125 123.390625 142.996094 123.214844 142.957031 123.035156 Z M 141.816406 129.554688 C 141.394531 129.445312 141.089844 129.105469 141.007812 128.703125 C 141.011719 128.683594 141.015625 128.667969 141.019531 128.648438 C 141.175781 128.050781 141.789062 127.691406 142.382812 127.851562 C 142.710938 127.9375 143.015625 127.96875 143.253906 127.902344 C 143.445312 127.847656 143.628906 127.703125 143.800781 127.429688 C 144.125 126.902344 144.8125 126.742188 145.335938 127.070312 C 145.605469 127.238281 145.78125 127.503906 145.839844 127.792969 C 145.8125 127.917969 145.765625 128.039062 145.695312 128.152344 C 145.199219 128.953125 144.5625 129.398438 143.847656 129.597656 C 143.183594 129.785156 142.496094 129.734375 141.816406 129.554688 Z M 140.09375 125.417969 C 139.492188 125.550781 138.894531 125.171875 138.761719 124.570312 L 138.757812 124.554688 C 138.84375 124.140625 139.164062 123.792969 139.605469 123.691406 L 139.800781 123.648438 C 140.402344 123.511719 141 123.890625 141.132812 124.496094 L 141.136719 124.511719 C 141.050781 124.925781 140.730469 125.273438 140.289062 125.371094 L 140.09375 125.414062 Z M 140.09375 125.417969 " fill-opacity="1" fill-rule="evenodd"/><path fill="#dff6f7" d="M 60.117188 16.222656 L 164.753906 16.222656 C 167.511719 16.222656 170.15625 17.320312 172.109375 19.269531 C 174.058594 21.21875 175.15625 23.867188 175.15625 26.625 L 175.15625 47.429688 C 175.15625 50.1875 174.058594 52.835938 172.109375 54.785156 C 170.15625 56.734375 167.511719 57.832031 164.753906 57.832031 L 60.117188 57.832031 C 54.371094 57.832031 49.714844 53.175781 49.714844 47.429688 L 49.714844 26.625 C 49.714844 20.878906 54.371094 16.222656 60.117188 16.222656 Z M 60.117188 16.222656 " fill-opacity="1" fill-rule="nonzero"/><g fill="#04babd" fill-opacity="1"><g transform="translate(59.95114, 45.990542)"><g><path d="M 2.046875 0 L 2.046875 -14 L 1.53125 -16.5625 L 2.046875 -18.09375 L 6.171875 -18.09375 L 11.34375 -11.140625 L 12.5625 -9.015625 L 12.828125 -9.015625 L 12.828125 -18.09375 L 17.65625 -18.09375 L 17.65625 -16.5625 L 17.40625 -14 L 17.40625 0 L 13.390625 0 L 6.96875 -9.015625 L 6.703125 -9.015625 L 6.703125 -7.46875 L 6.96875 0 Z M 2.046875 0 "/></g></g></g><g fill="#04babd" fill-opacity="1"><g transform="translate(79.137737, 45.990542)"><g><path d="M 1.796875 0 L 1.796875 -14 L 1.53125 -16.5625 L 1.796875 -18.125 L 6.40625 -18.125 L 6.40625 -11.1875 L 12.765625 -11.1875 L 12.765625 -18.125 L 17.375 -18.125 L 17.375 -8.5 L 17.640625 -6.734375 L 17.640625 0 L 12.765625 0 L 12.765625 -6.75 L 6.40625 -6.75 L 6.40625 -5.21875 L 6.65625 0 Z M 1.796875 0 "/></g></g></g><g fill="#04babd" fill-opacity="1"><g transform="translate(98.298748, 45.990542)"><g><path d="M 9.703125 0.25 C 8.609375 0.25 7.546875 0.117188 6.515625 -0.140625 C 5.484375 -0.398438 4.550781 -0.867188 3.71875 -1.546875 C 2.894531 -2.234375 2.238281 -3.179688 1.75 -4.390625 C 1.269531 -5.609375 1.03125 -7.164062 1.03125 -9.0625 C 1.03125 -10.957031 1.269531 -12.507812 1.75 -13.71875 C 2.238281 -14.925781 2.894531 -15.867188 3.71875 -16.546875 C 4.550781 -17.234375 5.484375 -17.707031 6.515625 -17.96875 C 7.546875 -18.238281 8.609375 -18.375 9.703125 -18.375 C 10.796875 -18.375 11.859375 -18.238281 12.890625 -17.96875 C 13.921875 -17.695312 14.847656 -17.21875 15.671875 -16.53125 C 16.503906 -15.851562 17.160156 -14.90625 17.640625 -13.6875 C 18.128906 -12.476562 18.375 -10.9375 18.375 -9.0625 C 18.375 -7.1875 18.128906 -5.640625 17.640625 -4.421875 C 17.160156 -3.210938 16.503906 -2.265625 15.671875 -1.578125 C 14.847656 -0.898438 13.921875 -0.425781 12.890625 -0.15625 C 11.859375 0.113281 10.796875 0.25 9.703125 0.25 Z M 9.703125 -4.09375 C 10.960938 -4.09375 11.914062 -4.46875 12.5625 -5.21875 C 13.21875 -5.96875 13.546875 -7.25 13.546875 -9.0625 C 13.546875 -10.863281 13.21875 -12.140625 12.5625 -12.890625 C 11.914062 -13.648438 10.960938 -14.03125 9.703125 -14.03125 C 8.453125 -14.03125 7.503906 -13.644531 6.859375 -12.875 C 6.210938 -12.101562 5.890625 -10.832031 5.890625 -9.0625 C 5.890625 -7.289062 6.210938 -6.019531 6.859375 -5.25 C 7.503906 -4.476562 8.453125 -4.09375 9.703125 -4.09375 Z M 8.0625 -19.421875 L 9.765625 -24.34375 L 12.875 -24.34375 L 12.875 -22.78125 L 9.34375 -19.421875 Z M 8.0625 -19.421875 "/></g></g></g><g fill="#04babd" fill-opacity="1"><g transform="translate(117.690003, 45.990542)"><g><path d="M 2.046875 0 L 2.046875 -14 L 1.53125 -16.5625 L 2.078125 -18.09375 L 6.96875 -18.09375 L 11.984375 -8.375 L 12.484375 -8.375 L 16.640625 -18.09375 L 21.734375 -18.09375 L 21.984375 -16.5625 L 21.734375 -14.109375 L 21.734375 0 L 17.09375 0 L 17.171875 -2.171875 L 17.171875 -9.3125 L 16.890625 -9.3125 L 15.875 -6.859375 L 13.5625 -2.5625 L 10.5 -2.5625 L 6.96875 -9.3125 L 6.703125 -9.3125 L 6.703125 -7.25 L 6.96875 0 Z M 2.046875 0 "/></g></g></g><g fill="#04babd" fill-opacity="1"><g transform="translate(141.19998, 45.990542)"><g/></g></g><g fill="#04babd" fill-opacity="1"><g transform="translate(147.339689, 45.990542)"><g><path d="M 9.265625 0.25 C 7.609375 0.25 6.160156 -0.0546875 4.921875 -0.671875 C 3.691406 -1.285156 2.734375 -2.238281 2.046875 -3.53125 C 1.367188 -4.832031 1.03125 -6.492188 1.03125 -8.515625 C 1.03125 -10.410156 1.269531 -11.992188 1.75 -13.265625 C 2.238281 -14.535156 2.894531 -15.539062 3.71875 -16.28125 C 4.550781 -17.03125 5.484375 -17.566406 6.515625 -17.890625 C 7.546875 -18.210938 8.609375 -18.375 9.703125 -18.375 C 10.566406 -18.375 11.410156 -18.304688 12.234375 -18.171875 C 13.066406 -18.035156 13.671875 -17.878906 14.046875 -17.703125 L 16.375 -15.640625 L 14.078125 -11.921875 L 9.953125 -14.046875 C 8.828125 -14.046875 7.882812 -13.722656 7.125 -13.078125 C 6.363281 -12.441406 5.984375 -11.535156 5.984375 -10.359375 L 9.78125 -11.140625 C 10.988281 -11.140625 12.109375 -10.972656 13.140625 -10.640625 C 14.171875 -10.304688 15 -9.734375 15.625 -8.921875 C 16.25 -8.109375 16.5625 -6.984375 16.5625 -5.546875 C 16.5625 -3.796875 15.953125 -2.390625 14.734375 -1.328125 C 13.515625 -0.273438 11.691406 0.25 9.265625 0.25 Z M 9.234375 -4.140625 C 10.023438 -4.140625 10.632812 -4.28125 11.0625 -4.5625 C 11.5 -4.84375 11.71875 -5.222656 11.71875 -5.703125 C 11.71875 -6.203125 11.519531 -6.65625 11.125 -7.0625 C 10.738281 -7.46875 10.128906 -7.671875 9.296875 -7.671875 C 8.554688 -7.671875 7.929688 -7.515625 7.421875 -7.203125 C 6.910156 -6.890625 6.5625 -6.625 6.375 -6.40625 C 6.507812 -5.769531 6.8125 -5.234375 7.28125 -4.796875 C 7.75 -4.359375 8.398438 -4.140625 9.234375 -4.140625 Z M 9.234375 -4.140625 "/></g></g></g><g fill="#c9fffe" fill-opacity="1"><g transform="translate(22.809225, 112.810279)"><g><path d="M 0.851562 0 L 0.851562 -10.949219 L 1.601562 -10.949219 L 0.867188 -10.800781 L 0.425781 -12.996094 L 1.058594 -14.921875 L 7.566406 -14.921875 C 8.578125 -14.921875 9.550781 -14.828125 10.488281 -14.636719 C 11.480469 -14.4375 12.367188 -14.058594 13.152344 -13.503906 C 13.96875 -12.929688 14.605469 -12.121094 15.070312 -11.074219 C 15.519531 -10.054688 15.742188 -8.761719 15.742188 -7.1875 C 15.742188 -5.613281 15.515625 -4.308594 15.058594 -3.269531 C 14.59375 -2.207031 13.949219 -1.375 13.136719 -0.777344 C 12.34375 -0.195312 11.453125 0.207031 10.464844 0.433594 C 9.523438 0.644531 8.554688 0.75 7.566406 0.75 L 0.851562 0.75 Z M 2.351562 0 L 1.601562 0 L 1.601562 -0.75 L 7.566406 -0.75 C 8.445312 -0.75 9.300781 -0.84375 10.132812 -1.03125 C 10.917969 -1.210938 11.625 -1.527344 12.246094 -1.984375 C 12.847656 -2.425781 13.324219 -3.058594 13.683594 -3.875 C 14.058594 -4.71875 14.242188 -5.824219 14.242188 -7.1875 C 14.242188 -8.546875 14.058594 -9.640625 13.695312 -10.464844 C 13.34375 -11.261719 12.875 -11.863281 12.289062 -12.277344 C 11.675781 -12.710938 10.972656 -13.007812 10.191406 -13.167969 C 9.351562 -13.335938 8.476562 -13.421875 7.566406 -13.421875 L 1.601562 -13.421875 L 1.601562 -14.171875 L 2.316406 -13.9375 L 1.914062 -12.71875 L 1.199219 -12.953125 L 1.9375 -13.097656 L 2.351562 -11.023438 Z M 5.246094 -3.953125 L 7.566406 -3.953125 C 8.535156 -3.953125 9.261719 -4.191406 9.742188 -4.667969 C 10.21875 -5.140625 10.460938 -5.980469 10.460938 -7.1875 C 10.460938 -8.375 10.226562 -9.167969 9.765625 -9.574219 C 9.273438 -10.003906 8.539062 -10.21875 7.566406 -10.21875 L 5.246094 -10.21875 L 5.246094 -10.96875 L 5.996094 -10.96875 L 5.996094 -3.203125 L 5.246094 -3.203125 Z M 4.492188 -2.453125 L 4.492188 -11.71875 L 7.566406 -11.71875 C 8.914062 -11.71875 9.976562 -11.382812 10.753906 -10.703125 C 11.558594 -10 11.960938 -8.828125 11.960938 -7.1875 C 11.960938 -5.5625 11.574219 -4.367188 10.796875 -3.601562 C 10.023438 -2.835938 8.945312 -2.453125 7.566406 -2.453125 Z M -0.628906 -6.40625 L -0.628906 -8.757812 L 8.675781 -8.757812 L 8.675781 -5.65625 L -0.628906 -5.65625 Z M 0.871094 -6.40625 L 0.121094 -6.40625 L 0.121094 -7.15625 L 7.925781 -7.15625 L 7.925781 -6.40625 L 7.175781 -6.40625 L 7.175781 -8.007812 L 7.925781 -8.007812 L 7.925781 -7.257812 L 0.121094 -7.257812 L 0.121094 -8.007812 L 0.871094 -8.007812 Z M 0.871094 -6.40625 "/></g></g></g><g fill="#c9fffe" fill-opacity="1"><g transform="translate(38.601184, 112.810279)"><g><path d="M 0.652344 0 L 0.652344 -10.96875 L 1.402344 -10.96875 L 0.652344 -10.894531 L 0.445312 -12.996094 L 0.765625 -14.921875 L 5.773438 -14.921875 L 5.773438 0.75 L 0.652344 0.75 Z M 2.152344 0 L 1.402344 0 L 1.402344 -0.75 L 5.023438 -0.75 L 5.023438 0 L 4.273438 0 L 4.273438 -14.171875 L 5.023438 -14.171875 L 5.023438 -13.421875 L 1.402344 -13.421875 L 1.402344 -14.171875 L 2.140625 -14.050781 L 1.941406 -12.847656 L 1.199219 -12.972656 L 1.949219 -13.046875 L 2.152344 -11.007812 Z M 2.152344 0 "/></g></g></g><g fill="#c9fffe" fill-opacity="1"><g transform="translate(44.825903, 112.810279)"><g><path d="M 0.890625 0.238281 L 0.425781 -1.152344 L 0.867188 -3.351562 L 1.601562 -3.203125 L 0.851562 -3.203125 L 0.851562 -14.921875 L 11.71875 -14.921875 L 13.480469 -13.867188 L 11.640625 -9.964844 L 9.304688 -10.222656 L 9.386719 -10.96875 L 9.386719 -10.21875 L 5.203125 -10.21875 L 5.203125 -10.96875 L 5.957031 -10.96875 L 5.957031 -8.769531 L 5.203125 -8.769531 L 5.203125 -9.519531 L 11.339844 -9.519531 L 11.339844 -4.914062 L 8.203125 -4.914062 L 5.15625 -5.117188 L 5.203125 -5.863281 L 5.957031 -5.863281 L 5.957031 -3.203125 L 5.203125 -3.203125 L 5.203125 -3.953125 L 11.453125 -3.953125 L 14.667969 -1.363281 L 12.71875 0.75 L 1.058594 0.75 Z M 2.3125 -0.238281 L 1.601562 0 L 1.601562 -0.75 L 12.390625 -0.75 L 12.390625 0 L 11.839844 -0.507812 L 13.019531 -1.789062 L 13.570312 -1.28125 L 13.101562 -0.695312 L 10.71875 -2.617188 L 11.191406 -3.203125 L 11.191406 -2.453125 L 4.453125 -2.453125 L 4.453125 -6.667969 L 8.277344 -6.414062 L 8.226562 -5.664062 L 8.226562 -6.414062 L 10.589844 -6.414062 L 10.589844 -5.664062 L 9.839844 -5.664062 L 9.839844 -8.769531 L 10.589844 -8.769531 L 10.589844 -8.015625 L 4.453125 -8.015625 L 4.453125 -11.71875 L 9.429688 -11.71875 L 11.273438 -11.515625 L 11.191406 -10.769531 L 10.511719 -11.089844 L 11.832031 -13.890625 L 12.511719 -13.570312 L 12.125 -12.929688 L 11.125 -13.527344 L 11.511719 -14.171875 L 11.511719 -13.421875 L 1.601562 -13.421875 L 1.601562 -14.171875 L 2.351562 -14.171875 L 2.351562 -3.128906 L 1.9375 -1.054688 L 1.199219 -1.199219 L 1.914062 -1.4375 Z M 2.992188 -16.113281 L 5.398438 -19.207031 L 8.15625 -19.207031 L 11.476562 -14.902344 L 8.078125 -14.902344 L 6.335938 -16.214844 L 6.785156 -16.816406 L 7.226562 -16.207031 L 5.429688 -14.902344 L 2.046875 -14.902344 Z M 4.175781 -15.191406 L 3.582031 -15.652344 L 3.582031 -16.40625 L 5.183594 -16.40625 L 5.183594 -15.652344 L 4.742188 -16.261719 L 6.792969 -17.75 L 8.777344 -16.253906 L 8.328125 -15.652344 L 8.328125 -16.40625 L 9.949219 -16.40625 L 9.949219 -15.652344 L 9.355469 -15.195312 L 7.191406 -17.996094 L 7.785156 -18.457031 L 7.785156 -17.707031 L 5.765625 -17.707031 L 5.765625 -18.457031 L 6.355469 -17.996094 Z M 6.371094 -18.671875 L 3.371094 -21.515625 L 3.371094 -23.8125 L 7.121094 -23.8125 L 8.957031 -18.464844 L 6.585938 -18.464844 Z M 7.402344 -19.761719 L 6.886719 -19.21875 L 6.886719 -19.96875 L 7.90625 -19.96875 L 7.90625 -19.21875 L 7.195312 -18.972656 L 5.875 -22.816406 L 6.585938 -23.058594 L 6.585938 -22.308594 L 4.125 -22.308594 L 4.125 -23.058594 L 4.875 -23.058594 L 4.875 -21.839844 L 4.125 -21.839844 L 4.640625 -22.382812 Z M 7.402344 -19.761719 "/></g></g></g><g fill="#c9fffe" fill-opacity="1"><g transform="translate(58.596339, 112.810279)"><g><path d="M 7.386719 0.949219 C 5.136719 0.949219 3.425781 0.414062 2.246094 -0.65625 C 1.050781 -1.746094 0.449219 -3.441406 0.449219 -5.746094 L 0.449219 -10.949219 L 0.46875 -12.980469 L 1.222656 -12.972656 L 0.46875 -12.957031 L 0.4375 -14.921875 L 5.59375 -14.921875 L 5.59375 -6.144531 C 5.59375 -5.359375 5.742188 -4.738281 6.035156 -4.28125 C 6.261719 -3.929688 6.710938 -3.753906 7.386719 -3.753906 C 8.078125 -3.753906 8.546875 -3.921875 8.792969 -4.253906 C 9.089844 -4.664062 9.238281 -5.292969 9.238281 -6.144531 L 9.238281 -14.921875 L 14.324219 -14.921875 L 14.324219 -5.746094 C 14.324219 -3.488281 13.742188 -1.804688 12.578125 -0.699219 C 11.425781 0.402344 9.695312 0.949219 7.386719 0.949219 Z M 7.386719 -0.550781 C 9.292969 -0.550781 10.679688 -0.960938 11.542969 -1.785156 C 12.394531 -2.597656 12.820312 -3.917969 12.820312 -5.746094 L 12.820312 -14.171875 L 13.570312 -14.171875 L 13.570312 -13.421875 L 9.988281 -13.421875 L 9.988281 -14.171875 L 10.738281 -14.171875 L 10.738281 -6.144531 C 10.738281 -4.96875 10.496094 -4.042969 10.003906 -3.371094 C 9.460938 -2.625 8.589844 -2.253906 7.386719 -2.253906 C 6.164062 -2.253906 5.296875 -2.65625 4.773438 -3.46875 C 4.320312 -4.171875 4.09375 -5.0625 4.09375 -6.144531 L 4.09375 -14.171875 L 4.84375 -14.171875 L 4.84375 -13.421875 L 1.199219 -13.421875 L 1.199219 -14.171875 L 1.953125 -14.183594 L 1.972656 -12.972656 L 1.953125 -10.949219 L 1.953125 -5.746094 C 1.953125 -3.882812 2.386719 -2.558594 3.257812 -1.765625 C 4.148438 -0.957031 5.523438 -0.550781 7.386719 -0.550781 Z M 7.386719 -0.550781 "/></g></g></g><g fill="#c9fffe" fill-opacity="1"><g transform="translate(73.367524, 112.810279)"><g/></g></g><g fill="#c9fffe" fill-opacity="1"><g transform="translate(78.171169, 112.810279)"><g><path d="M 3.652344 0 L 3.652344 -10.96875 L 4.402344 -10.96875 L 4.441406 -10.21875 L -0.351562 -9.980469 L -0.351562 -14.921875 L 12.859375 -14.921875 L 12.859375 -9.980469 L 7.96875 -10.21875 L 8.007812 -10.96875 L 8.757812 -10.96875 L 8.757812 -3.203125 L 8.007812 -3.203125 L 8.753906 -3.285156 L 8.984375 -1.175781 L 8.632812 0.75 L 3.652344 0.75 Z M 5.15625 0 L 4.402344 0 L 4.402344 -0.75 L 8.007812 -0.75 L 8.007812 0 L 7.269531 -0.136719 L 7.488281 -1.335938 L 8.226562 -1.199219 L 7.480469 -1.117188 L 7.257812 -3.160156 L 7.257812 -11.757812 L 12.148438 -11.519531 L 12.109375 -10.769531 L 11.359375 -10.769531 L 11.359375 -14.171875 L 12.109375 -14.171875 L 12.109375 -13.421875 L 0.398438 -13.421875 L 0.398438 -14.171875 L 1.152344 -14.171875 L 1.152344 -10.769531 L 0.398438 -10.769531 L 0.363281 -11.519531 L 5.15625 -11.757812 Z M 5.15625 0 "/></g></g></g><g fill="#c9fffe" fill-opacity="1"><g transform="translate(90.680648, 112.810279)"><g><path d="M 0.851562 0 L 0.851562 -10.949219 L 1.601562 -10.949219 L 0.863281 -10.804688 L 0.425781 -13.019531 L 1.058594 -14.921875 L 8.007812 -14.921875 C 9.074219 -14.921875 10.042969 -14.757812 10.910156 -14.421875 C 11.84375 -14.0625 12.582031 -13.457031 13.132812 -12.609375 C 13.671875 -11.769531 13.941406 -10.648438 13.941406 -9.25 C 13.941406 -7.976562 13.699219 -6.933594 13.21875 -6.113281 C 12.726562 -5.28125 12.042969 -4.660156 11.171875 -4.246094 L 10.847656 -4.925781 L 11.40625 -5.429688 L 11.621094 -5.191406 L 13.617188 -2.691406 L 13.03125 -2.222656 L 13.53125 -2.78125 L 14.921875 -1.535156 L 14.921875 0.75 L 9.261719 0.75 L 6.238281 -3.851562 L 6.867188 -4.265625 L 6.867188 -3.511719 L 5.203125 -3.511719 L 5.203125 -4.265625 L 5.957031 -4.265625 L 5.957031 -3.222656 L 5.203125 -3.222656 L 5.953125 -3.296875 L 6.160156 -1.199219 L 5.84375 0.75 L 0.851562 0.75 Z M 2.351562 0 L 1.601562 0 L 1.601562 -0.75 L 5.203125 -0.75 L 5.203125 0 L 4.464844 -0.121094 L 4.664062 -1.34375 L 5.40625 -1.222656 L 4.65625 -1.144531 L 4.453125 -3.183594 L 4.453125 -5.015625 L 7.269531 -5.015625 L 10.296875 -0.414062 L 9.667969 0 L 9.667969 -0.75 L 14.171875 -0.75 L 14.171875 0 L 13.421875 0 L 13.421875 -1.199219 L 14.171875 -1.199219 L 13.671875 -0.640625 L 12.484375 -1.703125 L 10.464844 -4.234375 L 11.050781 -4.703125 L 10.496094 -4.199219 L 9.613281 -5.167969 L 10.527344 -5.601562 C 11.125 -5.882812 11.589844 -6.308594 11.925781 -6.878906 C 12.269531 -7.460938 12.441406 -8.25 12.441406 -9.25 C 12.441406 -10.355469 12.25 -11.203125 11.871094 -11.792969 C 11.5 -12.371094 11 -12.78125 10.371094 -13.019531 C 9.675781 -13.289062 8.886719 -13.421875 8.007812 -13.421875 L 1.601562 -13.421875 L 1.601562 -14.171875 L 2.3125 -13.933594 L 1.914062 -12.734375 L 1.199219 -12.972656 L 1.9375 -13.117188 L 2.351562 -11.023438 Z M 5.203125 -8.15625 L 7.167969 -8.15625 C 7.714844 -8.15625 8.136719 -8.25 8.429688 -8.433594 C 8.609375 -8.546875 8.699219 -8.816406 8.699219 -9.25 C 8.699219 -9.566406 8.652344 -9.777344 8.566406 -9.886719 C 8.472656 -10 8.335938 -10.074219 8.152344 -10.117188 C 7.851562 -10.183594 7.496094 -10.21875 7.085938 -10.21875 L 5.003906 -10.21875 L 5.003906 -10.96875 L 5.753906 -11.011719 L 5.953125 -7.449219 L 5.203125 -7.40625 Z M 4.496094 -6.65625 L 4.210938 -11.71875 L 7.085938 -11.71875 C 7.609375 -11.71875 8.074219 -11.675781 8.484375 -11.582031 C 9.003906 -11.464844 9.421875 -11.214844 9.730469 -10.832031 C 10.042969 -10.445312 10.199219 -9.917969 10.199219 -9.25 C 10.199219 -8.265625 9.875 -7.570312 9.226562 -7.160156 C 8.691406 -6.824219 8.003906 -6.65625 7.167969 -6.65625 Z M 4.496094 -6.65625 "/></g></g></g><g fill="#c9fffe" fill-opacity="1"><g transform="translate(105.051531, 112.810279)"><g><path d="M 0.652344 0 L 0.652344 -10.96875 L 1.402344 -10.96875 L 0.652344 -10.894531 L 0.445312 -12.996094 L 0.765625 -14.921875 L 5.773438 -14.921875 L 5.773438 0.75 L 0.652344 0.75 Z M 2.152344 0 L 1.402344 0 L 1.402344 -0.75 L 5.023438 -0.75 L 5.023438 0 L 4.273438 0 L 4.273438 -14.171875 L 5.023438 -14.171875 L 5.023438 -13.421875 L 1.402344 -13.421875 L 1.402344 -14.171875 L 2.140625 -14.050781 L 1.941406 -12.847656 L 1.199219 -12.972656 L 1.949219 -13.046875 L 2.152344 -11.007812 Z M 2.632812 5.636719 L -0.101562 2.902344 L 3.164062 -0.359375 L 6.425781 2.902344 L 3.164062 6.167969 Z M 3.695312 4.574219 L 3.164062 5.105469 L 2.632812 4.574219 L 4.832031 2.371094 L 5.363281 2.902344 L 4.832031 3.433594 L 2.632812 1.230469 L 3.164062 0.699219 L 3.695312 1.230469 L 1.492188 3.433594 L 0.960938 2.902344 L 1.492188 2.371094 Z M 3.695312 4.574219 "/></g></g></g><g fill="#c9fffe" fill-opacity="1"><g transform="translate(31.025378, 140.446431)"><g><path d="M 0.851562 0 L 0.851562 -10.949219 L 1.601562 -10.949219 L 0.867188 -10.800781 L 0.425781 -12.996094 L 1.058594 -14.921875 L 7.566406 -14.921875 C 8.578125 -14.921875 9.550781 -14.828125 10.488281 -14.636719 C 11.480469 -14.4375 12.367188 -14.058594 13.152344 -13.503906 C 13.96875 -12.929688 14.605469 -12.121094 15.070312 -11.074219 C 15.519531 -10.054688 15.742188 -8.761719 15.742188 -7.1875 C 15.742188 -5.613281 15.515625 -4.308594 15.058594 -3.269531 C 14.59375 -2.207031 13.949219 -1.375 13.136719 -0.777344 C 12.34375 -0.195312 11.453125 0.207031 10.464844 0.433594 C 9.523438 0.644531 8.554688 0.75 7.566406 0.75 L 0.851562 0.75 Z M 2.351562 0 L 1.601562 0 L 1.601562 -0.75 L 7.566406 -0.75 C 8.445312 -0.75 9.300781 -0.84375 10.132812 -1.03125 C 10.917969 -1.210938 11.625 -1.527344 12.246094 -1.984375 C 12.847656 -2.425781 13.324219 -3.058594 13.683594 -3.875 C 14.058594 -4.71875 14.242188 -5.824219 14.242188 -7.1875 C 14.242188 -8.546875 14.058594 -9.640625 13.695312 -10.464844 C 13.34375 -11.261719 12.875 -11.863281 12.289062 -12.277344 C 11.675781 -12.710938 10.972656 -13.007812 10.191406 -13.167969 C 9.351562 -13.335938 8.476562 -13.421875 7.566406 -13.421875 L 1.601562 -13.421875 L 1.601562 -14.171875 L 2.316406 -13.9375 L 1.914062 -12.71875 L 1.199219 -12.953125 L 1.9375 -13.097656 L 2.351562 -11.023438 Z M 5.246094 -3.953125 L 7.566406 -3.953125 C 8.535156 -3.953125 9.261719 -4.191406 9.742188 -4.667969 C 10.21875 -5.140625 10.460938 -5.980469 10.460938 -7.1875 C 10.460938 -8.375 10.226562 -9.167969 9.765625 -9.574219 C 9.273438 -10.003906 8.539062 -10.21875 7.566406 -10.21875 L 5.246094 -10.21875 L 5.246094 -10.96875 L 5.996094 -10.96875 L 5.996094 -3.203125 L 5.246094 -3.203125 Z M 4.492188 -2.453125 L 4.492188 -11.71875 L 7.566406 -11.71875 C 8.914062 -11.71875 9.976562 -11.382812 10.753906 -10.703125 C 11.558594 -10 11.960938 -8.828125 11.960938 -7.1875 C 11.960938 -5.5625 11.574219 -4.367188 10.796875 -3.601562 C 10.023438 -2.835938 8.945312 -2.453125 7.566406 -2.453125 Z M 4.492188 -2.453125 "/></g></g></g><g fill="#c9fffe" fill-opacity="1"><g transform="translate(46.817337, 140.446431)"><g><path d="M 0.652344 0 L 0.652344 -10.96875 L 1.402344 -10.96875 L 0.652344 -10.894531 L 0.445312 -12.996094 L 0.765625 -14.921875 L 5.773438 -14.921875 L 5.773438 0.75 L 0.652344 0.75 Z M 2.152344 0 L 1.402344 0 L 1.402344 -0.75 L 5.023438 -0.75 L 5.023438 0 L 4.273438 0 L 4.273438 -14.171875 L 5.023438 -14.171875 L 5.023438 -13.421875 L 1.402344 -13.421875 L 1.402344 -14.171875 L 2.140625 -14.050781 L 1.941406 -12.847656 L 1.199219 -12.972656 L 1.949219 -13.046875 L 2.152344 -11.007812 Z M 2.632812 5.636719 L -0.101562 2.902344 L 3.164062 -0.359375 L 6.425781 2.902344 L 3.164062 6.167969 Z M 3.695312 4.574219 L 3.164062 5.105469 L 2.632812 4.574219 L 4.832031 2.371094 L 5.363281 2.902344 L 4.832031 3.433594 L 2.632812 1.230469 L 3.164062 0.699219 L 3.695312 1.230469 L 1.492188 3.433594 L 0.960938 2.902344 L 1.492188 2.371094 Z M 3.695312 4.574219 "/></g></g></g><g fill="#c9fffe" fill-opacity="1"><g transform="translate(53.042057, 140.446431)"><g/></g></g><g fill="#c9fffe" fill-opacity="1"><g transform="translate(57.845701, 140.446431)"><g><path d="M 7.386719 0.949219 C 5.136719 0.949219 3.425781 0.414062 2.246094 -0.65625 C 1.050781 -1.746094 0.449219 -3.441406 0.449219 -5.746094 L 0.449219 -10.949219 L 0.46875 -12.980469 L 1.222656 -12.972656 L 0.46875 -12.957031 L 0.4375 -14.921875 L 5.59375 -14.921875 L 5.59375 -6.144531 C 5.59375 -5.359375 5.742188 -4.738281 6.035156 -4.28125 C 6.261719 -3.929688 6.710938 -3.753906 7.386719 -3.753906 C 8.078125 -3.753906 8.546875 -3.921875 8.792969 -4.253906 C 9.089844 -4.664062 9.238281 -5.292969 9.238281 -6.144531 L 9.238281 -14.921875 L 14.324219 -14.921875 L 14.324219 -5.746094 C 14.324219 -3.488281 13.742188 -1.804688 12.578125 -0.699219 C 11.425781 0.402344 9.695312 0.949219 7.386719 0.949219 Z M 7.386719 -0.550781 C 9.292969 -0.550781 10.679688 -0.960938 11.542969 -1.785156 C 12.394531 -2.597656 12.820312 -3.917969 12.820312 -5.746094 L 12.820312 -14.171875 L 13.570312 -14.171875 L 13.570312 -13.421875 L 9.988281 -13.421875 L 9.988281 -14.171875 L 10.738281 -14.171875 L 10.738281 -6.144531 C 10.738281 -4.96875 10.496094 -4.042969 10.003906 -3.371094 C 9.460938 -2.625 8.589844 -2.253906 7.386719 -2.253906 C 6.164062 -2.253906 5.296875 -2.65625 4.773438 -3.46875 C 4.320312 -4.171875 4.09375 -5.0625 4.09375 -6.144531 L 4.09375 -14.171875 L 4.84375 -14.171875 L 4.84375 -13.421875 L 1.199219 -13.421875 L 1.199219 -14.171875 L 1.953125 -14.183594 L 1.972656 -12.972656 L 1.953125 -10.949219 L 1.953125 -5.746094 C 1.953125 -3.882812 2.386719 -2.558594 3.257812 -1.765625 C 4.148438 -0.957031 5.523438 -0.550781 7.386719 -0.550781 Z M 13.292969 -12.222656 C 12.761719 -12.222656 12.335938 -12.300781 12.011719 -12.457031 L 11.261719 -12.820312 L 11.261719 -14.921875 L 12.632812 -14.921875 C 12.78125 -14.921875 12.890625 -14.9375 12.960938 -14.964844 C 12.964844 -14.96875 12.96875 -14.96875 12.972656 -14.972656 C 12.972656 -14.972656 12.96875 -14.96875 12.96875 -14.96875 C 12.957031 -14.957031 12.945312 -14.945312 12.9375 -14.929688 C 13.019531 -15.078125 13.0625 -15.3125 13.0625 -15.632812 L 13.0625 -17.566406 L 16.605469 -17.566406 L 16.605469 -15.332031 C 16.605469 -14.570312 16.433594 -13.953125 16.089844 -13.480469 C 15.753906 -13.019531 15.320312 -12.6875 14.785156 -12.488281 C 14.308594 -12.308594 13.808594 -12.222656 13.292969 -12.222656 Z M 13.292969 -13.722656 C 13.628906 -13.722656 13.953125 -13.78125 14.261719 -13.894531 C 14.511719 -13.988281 14.71875 -14.144531 14.875 -14.363281 C 15.027344 -14.570312 15.101562 -14.894531 15.101562 -15.332031 L 15.101562 -16.816406 L 15.855469 -16.816406 L 15.855469 -16.0625 L 13.8125 -16.0625 L 13.8125 -16.816406 L 14.5625 -16.816406 L 14.5625 -15.632812 C 14.5625 -15.046875 14.457031 -14.570312 14.246094 -14.195312 C 13.957031 -13.679688 13.417969 -13.421875 12.632812 -13.421875 L 12.011719 -13.421875 L 12.011719 -14.171875 L 12.761719 -14.171875 L 12.761719 -13.292969 L 12.011719 -13.292969 L 12.339844 -13.96875 L 12.667969 -13.808594 C 12.785156 -13.75 12.992188 -13.722656 13.292969 -13.722656 Z M 5.375 -15.4375 L 6.871094 -19.789062 L 10.597656 -19.789062 L 10.597656 -17.492188 L 7.386719 -14.441406 L 5.035156 -14.441406 Z M 6.796875 -14.949219 L 6.085938 -15.191406 L 6.085938 -15.945312 L 7.085938 -15.945312 L 7.085938 -15.191406 L 6.570312 -15.738281 L 9.332031 -18.359375 L 9.847656 -17.816406 L 9.097656 -17.816406 L 9.097656 -19.035156 L 9.847656 -19.035156 L 9.847656 -18.285156 L 7.40625 -18.285156 L 7.40625 -19.035156 L 8.117188 -18.792969 Z M 6.796875 -14.949219 "/></g></g></g><g fill="#c9fffe" fill-opacity="1"><g transform="translate(72.616886, 140.446431)"><g><path d="M 0.851562 0 L 0.851562 -10.949219 L 1.601562 -10.949219 L 0.867188 -10.800781 L 0.425781 -13 L 1.058594 -14.902344 L 5.203125 -14.902344 L 9.496094 -9.121094 L 10.476562 -7.421875 L 9.828125 -7.046875 L 9.828125 -7.796875 L 10.027344 -7.796875 L 10.027344 -7.046875 L 9.277344 -7.046875 L 9.277344 -14.902344 L 14.5625 -14.902344 L 14.5625 -12.914062 L 14.359375 -10.875 L 13.613281 -10.949219 L 14.363281 -10.949219 L 14.363281 0.75 L 10.082031 0.75 L 4.832031 -6.609375 L 5.445312 -7.046875 L 5.445312 -6.296875 L 5.246094 -6.296875 L 5.246094 -7.046875 L 5.996094 -7.046875 L 5.996094 -5.84375 L 5.246094 -5.84375 L 5.996094 -5.871094 L 6.222656 0.75 L 0.851562 0.75 Z M 2.351562 0 L 1.601562 0 L 1.601562 -0.75 L 5.445312 -0.75 L 5.445312 0 L 4.695312 0.0273438 L 4.492188 -5.832031 L 4.492188 -7.796875 L 5.832031 -7.796875 L 11.082031 -0.4375 L 10.46875 0 L 10.46875 -0.75 L 13.613281 -0.75 L 13.613281 0 L 12.859375 0 L 12.859375 -10.988281 L 13.066406 -13.027344 L 13.8125 -12.953125 L 13.0625 -12.953125 L 13.0625 -14.152344 L 13.8125 -14.152344 L 13.8125 -13.402344 L 10.027344 -13.402344 L 10.027344 -14.152344 L 10.78125 -14.152344 L 10.78125 -6.296875 L 9.394531 -6.296875 L 8.21875 -8.332031 L 8.867188 -8.707031 L 8.265625 -8.261719 L 4.222656 -13.703125 L 4.824219 -14.152344 L 4.824219 -13.402344 L 1.601562 -13.402344 L 1.601562 -14.152344 L 2.3125 -13.914062 L 1.914062 -12.714844 L 1.199219 -12.953125 L 1.9375 -13.097656 L 2.351562 -11.023438 Z M 2.351562 0 "/></g></g></g><g fill="#c9fffe" fill-opacity="1"><g transform="translate(87.628254, 140.446431)"><g><path d="M 8.386719 0.949219 C 7.304688 0.949219 6.277344 0.839844 5.308594 0.621094 C 4.289062 0.390625 3.386719 -0.0234375 2.597656 -0.625 C 1.792969 -1.238281 1.160156 -2.082031 0.710938 -3.152344 C 0.269531 -4.191406 0.0507812 -5.503906 0.0507812 -7.085938 C 0.0507812 -8.621094 0.285156 -9.910156 0.757812 -10.949219 C 1.238281 -12.003906 1.882812 -12.84375 2.695312 -13.46875 C 3.492188 -14.074219 4.375 -14.507812 5.347656 -14.757812 C 6.28125 -15 7.230469 -15.125 8.1875 -15.125 C 8.875 -15.125 9.476562 -15.085938 9.992188 -15.015625 C 10.496094 -14.945312 10.980469 -14.855469 11.445312 -14.742188 L 11.550781 -14.714844 L 14.957031 -12.738281 L 12.992188 -8.390625 L 7.917969 -10.183594 L 8.167969 -10.890625 L 8.167969 -10.140625 C 7.636719 -10.140625 7.152344 -10.035156 6.714844 -9.828125 C 6.3125 -9.640625 5.988281 -9.335938 5.742188 -8.917969 C 5.484375 -8.480469 5.355469 -7.863281 5.355469 -7.066406 C 5.355469 -5.78125 5.609375 -4.910156 6.117188 -4.449219 C 6.648438 -3.972656 7.40625 -3.734375 8.386719 -3.734375 C 8.945312 -3.734375 9.371094 -3.757812 9.667969 -3.8125 C 10 -3.871094 10.253906 -3.917969 10.433594 -3.957031 L 10.589844 -3.222656 L 9.839844 -3.222656 L 9.839844 -4.746094 L 10.589844 -4.746094 L 10.589844 -3.992188 L 7.296875 -3.992188 L 7.296875 -8.457031 L 15.039062 -8.457031 L 15.402344 -6.476562 L 14.917969 -4.652344 L 14.191406 -4.84375 L 14.941406 -4.84375 L 14.941406 -0.113281 L 14.449219 0.0664062 C 14.28125 0.125 13.925781 0.226562 13.390625 0.367188 C 12.851562 0.507812 12.15625 0.640625 11.308594 0.761719 C 10.453125 0.886719 9.476562 0.949219 8.386719 0.949219 Z M 8.386719 -0.550781 C 9.40625 -0.550781 10.304688 -0.609375 11.089844 -0.722656 C 11.886719 -0.839844 12.527344 -0.960938 13.011719 -1.085938 C 13.503906 -1.214844 13.8125 -1.300781 13.9375 -1.347656 L 14.191406 -0.640625 L 13.441406 -0.640625 L 13.441406 -4.941406 L 13.90625 -6.699219 L 14.632812 -6.503906 L 13.894531 -6.371094 L 13.675781 -7.570312 L 14.414062 -7.707031 L 14.414062 -6.957031 L 8.046875 -6.957031 L 8.046875 -7.707031 L 8.796875 -7.707031 L 8.796875 -4.746094 L 8.046875 -4.746094 L 8.046875 -5.496094 L 11.339844 -5.496094 L 11.339844 -2.617188 L 10.746094 -2.488281 C 10.550781 -2.445312 10.277344 -2.394531 9.929688 -2.332031 C 9.546875 -2.265625 9.03125 -2.230469 8.386719 -2.230469 C 7.019531 -2.230469 5.929688 -2.601562 5.113281 -3.335938 C 4.273438 -4.09375 3.851562 -5.335938 3.851562 -7.066406 C 3.851562 -8.136719 4.050781 -9.007812 4.449219 -9.679688 C 4.855469 -10.367188 5.394531 -10.871094 6.078125 -11.1875 C 6.71875 -11.488281 7.414062 -11.640625 8.167969 -11.640625 L 8.296875 -11.640625 L 12.839844 -10.035156 L 12.589844 -9.328125 L 11.90625 -9.636719 L 13.308594 -12.738281 L 13.992188 -12.429688 L 13.613281 -11.78125 L 10.894531 -13.363281 L 11.269531 -14.011719 L 11.09375 -13.28125 C 10.675781 -13.382812 10.242188 -13.464844 9.785156 -13.527344 C 9.339844 -13.589844 8.804688 -13.621094 8.1875 -13.621094 C 7.355469 -13.621094 6.535156 -13.515625 5.722656 -13.304688 C 4.949219 -13.105469 4.242188 -12.761719 3.609375 -12.277344 C 2.996094 -11.804688 2.5 -11.15625 2.125 -10.328125 C 1.742188 -9.488281 1.550781 -8.40625 1.550781 -7.085938 C 1.550781 -5.707031 1.730469 -4.589844 2.09375 -3.734375 C 2.441406 -2.910156 2.914062 -2.269531 3.507812 -1.816406 C 4.121094 -1.351562 4.832031 -1.023438 5.640625 -0.84375 C 6.5 -0.648438 7.414062 -0.550781 8.386719 -0.550781 Z M 8.386719 -0.550781 "/></g></g></g><g fill="#04babd" fill-opacity="1"><g transform="translate(22.809225, 112.810279)"><g><path d="M 1.59375 0 L 1.59375 -10.953125 L 1.203125 -12.953125 L 1.59375 -14.171875 L 7.5625 -14.171875 C 8.519531 -14.171875 9.441406 -14.078125 10.328125 -13.890625 C 11.222656 -13.710938 12.019531 -13.378906 12.71875 -12.890625 C 13.414062 -12.398438 13.96875 -11.691406 14.375 -10.765625 C 14.78125 -9.847656 14.984375 -8.65625 14.984375 -7.1875 C 14.984375 -5.71875 14.773438 -4.507812 14.359375 -3.5625 C 13.953125 -2.625 13.394531 -1.894531 12.6875 -1.375 C 11.976562 -0.851562 11.179688 -0.492188 10.296875 -0.296875 C 9.410156 -0.0976562 8.5 0 7.5625 0 Z M 5.25 -3.203125 L 7.5625 -3.203125 C 8.738281 -3.203125 9.640625 -3.507812 10.265625 -4.125 C 10.890625 -4.75 11.203125 -5.769531 11.203125 -7.1875 C 11.203125 -8.601562 10.882812 -9.585938 10.25 -10.140625 C 9.625 -10.691406 8.726562 -10.96875 7.5625 -10.96875 L 5.25 -10.96875 Z M 0.125 -6.40625 L 0.125 -8.015625 L 7.9375 -8.015625 L 7.9375 -6.40625 Z M 0.125 -6.40625 "/></g></g></g><g fill="#04babd" fill-opacity="1"><g transform="translate(38.601184, 112.810279)"><g><path d="M 1.40625 0 L 1.40625 -10.96875 L 1.203125 -12.96875 L 1.40625 -14.171875 L 5.03125 -14.171875 L 5.03125 0 Z M 1.40625 0 "/></g></g></g><g fill="#04babd" fill-opacity="1"><g transform="translate(44.825903, 112.810279)"><g><path d="M 1.59375 0 L 1.203125 -1.203125 L 1.59375 -3.203125 L 1.59375 -14.171875 L 11.515625 -14.171875 L 12.515625 -13.578125 L 11.1875 -10.765625 L 9.390625 -10.96875 L 5.203125 -10.96875 L 5.203125 -8.765625 L 10.59375 -8.765625 L 10.59375 -5.671875 L 8.21875 -5.671875 L 5.203125 -5.859375 L 5.203125 -3.203125 L 11.1875 -3.203125 L 13.578125 -1.28125 L 12.390625 0 Z M 3.578125 -15.65625 L 5.765625 -18.453125 L 7.78125 -18.453125 L 9.9375 -15.65625 L 8.328125 -15.65625 L 6.78125 -16.8125 L 5.171875 -15.65625 Z M 6.875 -19.203125 L 4.125 -21.828125 L 4.125 -23.046875 L 6.578125 -23.046875 L 7.90625 -19.203125 Z M 6.875 -19.203125 "/></g></g></g><g fill="#04babd" fill-opacity="1"><g transform="translate(58.596339, 112.810279)"><g><path d="M 7.390625 0.203125 C 5.328125 0.203125 3.78125 -0.265625 2.75 -1.203125 C 1.71875 -2.148438 1.203125 -3.664062 1.203125 -5.75 L 1.203125 -10.953125 L 1.21875 -12.96875 L 1.203125 -14.171875 L 4.84375 -14.171875 L 4.84375 -6.140625 C 4.84375 -5.210938 5.03125 -4.457031 5.40625 -3.875 C 5.78125 -3.289062 6.441406 -3 7.390625 -3 C 8.335938 -3 9.003906 -3.269531 9.390625 -3.8125 C 9.785156 -4.351562 9.984375 -5.128906 9.984375 -6.140625 L 9.984375 -14.171875 L 13.578125 -14.171875 L 13.578125 -5.75 C 13.578125 -3.707031 13.070312 -2.203125 12.0625 -1.234375 C 11.050781 -0.273438 9.492188 0.203125 7.390625 0.203125 Z M 7.390625 0.203125 "/></g></g></g><g fill="#04babd" fill-opacity="1"><g transform="translate(73.367524, 112.810279)"><g/></g></g><g fill="#04babd" fill-opacity="1"><g transform="translate(78.171169, 112.810279)"><g><path d="M 4.40625 0 L 4.40625 -10.96875 L 0.40625 -10.765625 L 0.40625 -14.171875 L 12.109375 -14.171875 L 12.109375 -10.765625 L 8 -10.96875 L 8 -3.203125 L 8.21875 -1.203125 L 8 0 Z M 4.40625 0 "/></g></g></g><g fill="#04babd" fill-opacity="1"><g transform="translate(90.680648, 112.810279)"><g><path d="M 1.59375 0 L 1.59375 -10.953125 L 1.203125 -12.96875 L 1.59375 -14.171875 L 8 -14.171875 C 8.976562 -14.171875 9.859375 -14.019531 10.640625 -13.71875 C 11.421875 -13.414062 12.039062 -12.90625 12.5 -12.1875 C 12.957031 -11.476562 13.1875 -10.5 13.1875 -9.25 C 13.1875 -8.113281 12.976562 -7.191406 12.5625 -6.484375 C 12.15625 -5.785156 11.582031 -5.265625 10.84375 -4.921875 L 11.046875 -4.703125 L 13.03125 -2.21875 L 14.171875 -1.203125 L 14.171875 0 L 9.671875 0 L 6.859375 -4.265625 L 5.203125 -4.265625 L 5.203125 -3.21875 L 5.40625 -1.21875 L 5.203125 0 Z M 5.203125 -7.40625 L 7.171875 -7.40625 C 7.859375 -7.40625 8.410156 -7.535156 8.828125 -7.796875 C 9.242188 -8.054688 9.453125 -8.539062 9.453125 -9.25 C 9.453125 -9.738281 9.347656 -10.109375 9.140625 -10.359375 C 8.941406 -10.609375 8.664062 -10.769531 8.3125 -10.84375 C 7.957031 -10.925781 7.546875 -10.96875 7.078125 -10.96875 L 5 -10.96875 Z M 5.203125 -7.40625 "/></g></g></g><g fill="#04babd" fill-opacity="1"><g transform="translate(105.051531, 112.810279)"><g><path d="M 1.40625 0 L 1.40625 -10.96875 L 1.203125 -12.96875 L 1.40625 -14.171875 L 5.03125 -14.171875 L 5.03125 0 Z M 3.171875 5.09375 L 0.96875 2.90625 L 3.171875 0.703125 L 5.375 2.90625 Z M 3.171875 5.09375 "/></g></g></g><g fill="#04babd" fill-opacity="1"><g transform="translate(31.025378, 140.446431)"><g><path d="M 1.59375 0 L 1.59375 -10.953125 L 1.203125 -12.953125 L 1.59375 -14.171875 L 7.5625 -14.171875 C 8.519531 -14.171875 9.441406 -14.078125 10.328125 -13.890625 C 11.222656 -13.710938 12.019531 -13.378906 12.71875 -12.890625 C 13.414062 -12.398438 13.96875 -11.691406 14.375 -10.765625 C 14.78125 -9.847656 14.984375 -8.65625 14.984375 -7.1875 C 14.984375 -5.71875 14.773438 -4.507812 14.359375 -3.5625 C 13.953125 -2.625 13.394531 -1.894531 12.6875 -1.375 C 11.976562 -0.851562 11.179688 -0.492188 10.296875 -0.296875 C 9.410156 -0.0976562 8.5 0 7.5625 0 Z M 5.25 -3.203125 L 7.5625 -3.203125 C 8.738281 -3.203125 9.640625 -3.507812 10.265625 -4.125 C 10.890625 -4.75 11.203125 -5.769531 11.203125 -7.1875 C 11.203125 -8.601562 10.882812 -9.585938 10.25 -10.140625 C 9.625 -10.691406 8.726562 -10.96875 7.5625 -10.96875 L 5.25 -10.96875 Z M 5.25 -3.203125 "/></g></g></g><g fill="#04babd" fill-opacity="1"><g transform="translate(46.817337, 140.446431)"><g><path d="M 1.40625 0 L 1.40625 -10.96875 L 1.203125 -12.96875 L 1.40625 -14.171875 L 5.03125 -14.171875 L 5.03125 0 Z M 3.171875 5.09375 L 0.96875 2.90625 L 3.171875 0.703125 L 5.375 2.90625 Z M 3.171875 5.09375 "/></g></g></g><g fill="#04babd" fill-opacity="1"><g transform="translate(53.042057, 140.446431)"><g/></g></g><g fill="#04babd" fill-opacity="1"><g transform="translate(57.845701, 140.446431)"><g><path d="M 7.390625 0.203125 C 5.328125 0.203125 3.78125 -0.265625 2.75 -1.203125 C 1.71875 -2.148438 1.203125 -3.664062 1.203125 -5.75 L 1.203125 -10.953125 L 1.21875 -12.96875 L 1.203125 -14.171875 L 4.84375 -14.171875 L 4.84375 -6.140625 C 4.84375 -5.210938 5.03125 -4.457031 5.40625 -3.875 C 5.78125 -3.289062 6.441406 -3 7.390625 -3 C 8.335938 -3 9.003906 -3.269531 9.390625 -3.8125 C 9.785156 -4.351562 9.984375 -5.128906 9.984375 -6.140625 L 9.984375 -14.171875 L 13.578125 -14.171875 L 13.578125 -5.75 C 13.578125 -3.707031 13.070312 -2.203125 12.0625 -1.234375 C 11.050781 -0.273438 9.492188 0.203125 7.390625 0.203125 Z M 13.28125 -12.96875 C 12.875 -12.96875 12.554688 -13.019531 12.328125 -13.125 C 12.109375 -13.238281 12 -13.296875 12 -13.296875 L 12 -14.171875 L 12.625 -14.171875 C 13.113281 -14.171875 13.429688 -14.300781 13.578125 -14.5625 C 13.734375 -14.820312 13.8125 -15.179688 13.8125 -15.640625 L 13.8125 -16.8125 L 15.84375 -16.8125 L 15.84375 -15.328125 C 15.84375 -14.734375 15.71875 -14.265625 15.46875 -13.921875 C 15.226562 -13.578125 14.910156 -13.332031 14.515625 -13.1875 C 14.117188 -13.039062 13.707031 -12.96875 13.28125 -12.96875 Z M 6.078125 -15.1875 L 7.40625 -19.03125 L 9.84375 -19.03125 L 9.84375 -17.8125 L 7.078125 -15.1875 Z M 6.078125 -15.1875 "/></g></g></g><g fill="#04babd" fill-opacity="1"><g transform="translate(72.616886, 140.446431)"><g><path d="M 1.59375 0 L 1.59375 -10.953125 L 1.203125 -12.953125 L 1.59375 -14.15625 L 4.828125 -14.15625 L 8.859375 -8.703125 L 9.828125 -7.046875 L 10.03125 -7.046875 L 10.03125 -14.15625 L 13.8125 -14.15625 L 13.8125 -12.953125 L 13.609375 -10.953125 L 13.609375 0 L 10.46875 0 L 5.4375 -7.046875 L 5.25 -7.046875 L 5.25 -5.84375 L 5.4375 0 Z M 1.59375 0 "/></g></g></g><g fill="#04babd" fill-opacity="1"><g transform="translate(87.628254, 140.446431)"><g><path d="M 8.390625 0.203125 C 7.359375 0.203125 6.382812 0.0976562 5.46875 -0.109375 C 4.5625 -0.316406 3.753906 -0.6875 3.046875 -1.21875 C 2.347656 -1.75 1.796875 -2.488281 1.390625 -3.4375 C 0.992188 -4.382812 0.796875 -5.597656 0.796875 -7.078125 C 0.796875 -8.515625 1.007812 -9.703125 1.4375 -10.640625 C 1.863281 -11.578125 2.429688 -12.316406 3.140625 -12.859375 C 3.859375 -13.410156 4.65625 -13.800781 5.53125 -14.03125 C 6.40625 -14.257812 7.289062 -14.375 8.1875 -14.375 C 8.84375 -14.375 9.410156 -14.335938 9.890625 -14.265625 C 10.367188 -14.203125 10.828125 -14.117188 11.265625 -14.015625 L 13.984375 -12.4375 L 12.59375 -9.328125 L 8.171875 -10.890625 C 7.523438 -10.890625 6.929688 -10.757812 6.390625 -10.5 C 5.847656 -10.25 5.414062 -9.847656 5.09375 -9.296875 C 4.769531 -8.742188 4.609375 -8 4.609375 -7.0625 C 4.609375 -5.550781 4.941406 -4.492188 5.609375 -3.890625 C 6.285156 -3.285156 7.210938 -2.984375 8.390625 -2.984375 C 8.984375 -2.984375 9.453125 -3.007812 9.796875 -3.0625 C 10.140625 -3.125 10.40625 -3.175781 10.59375 -3.21875 L 10.59375 -4.75 L 8.046875 -4.75 L 8.046875 -7.703125 L 14.40625 -7.703125 L 14.625 -6.5 L 14.1875 -4.84375 L 14.1875 -0.640625 C 14.039062 -0.585938 13.710938 -0.492188 13.203125 -0.359375 C 12.691406 -0.222656 12.023438 -0.0976562 11.203125 0.015625 C 10.378906 0.140625 9.441406 0.203125 8.390625 0.203125 Z M 8.390625 0.203125 "/></g></g></g></svg>