<svg xmlns="http://www.w3.org/2000/svg" xmlns:xlink="http://www.w3.org/1999/xlink" width="300" zoomAndPan="magnify" viewBox="0 0 224.87999 233.04" height="300" preserveAspectRatio="xMidYMid meet" version="1.0"><defs><g/><clipPath id="89c7c6aace"><path d="M 0.402344 0 L 224.359375 0 L 224.359375 224.078125 L 0.402344 224.078125 Z M 0.402344 0 " clip-rule="nonzero"/></clipPath><clipPath id="19b50ae97f"><path d="M 114 72 L 196.910156 72 L 196.910156 168.28125 L 114 168.28125 Z M 114 72 " clip-rule="nonzero"/></clipPath><clipPath id="904bff1d06"><path d="M 132 69.6875 L 185 69.6875 L 185 166 L 132 166 Z M 132 69.6875 " clip-rule="nonzero"/></clipPath></defs><g clip-path="url(#89c7c6aace)"><path fill="#ffffff" d="M 0.402344 0 L 224.476562 0 L 224.476562 224.078125 L 0.402344 224.078125 Z M 0.402344 0 " fill-opacity="1" fill-rule="nonzero"/><path fill="#c4e7fb" d="M 0.402344 0 L 224.476562 0 L 224.476562 224.078125 L 0.402344 224.078125 Z M 0.402344 0 " fill-opacity="1" fill-rule="nonzero"/></g><g clip-path="url(#19b50ae97f)"><path fill="#efd8af" d="M 138.101562 168.277344 L 115.230469 137.046875 L 116.457031 122.019531 L 114 119.027344 L 123.035156 82.953125 L 178.945312 72.03125 L 182.332031 75.914062 L 173.59375 110.382812 L 196.910156 142.300781 L 195.289062 155.558594 Z M 138.101562 168.277344 " fill-opacity="1" fill-rule="nonzero"/></g><path fill="#82bfbe" d="M 171.972656 113.671875 L 194.257812 142.890625 L 140.902344 154.28125 L 135.402344 145.347656 L 121.464844 123.050781 Z M 171.382812 110.824219 L 178.84375 78.21875 L 129.710938 87.992188 L 122.050781 119.664062 Z M 171.382812 110.824219 " fill-opacity="1" fill-rule="nonzero"/><path fill="#197584" d="M 141.003906 115.703125 L 141.003906 118.046875 C 142.710938 118.152344 143.757812 119.085938 144.378906 119.992188 C 144.910156 120.769531 145.1875 121.691406 145.183594 122.632812 L 145.105469 139.097656 C 145.105469 139.097656 142.84375 139.890625 136.660156 139.890625 C 130.472656 139.890625 128.761719 139.015625 128.761719 139.015625 C 128.761719 139.015625 128.761719 126.671875 128.761719 122.539062 C 128.761719 118.402344 132.976562 118.351562 132.976562 118.351562 L 132.976562 115.703125 Z M 168.007812 126.324219 C 168.007812 126.324219 172.453125 122.796875 173.070312 122.132812 C 173.6875 121.464844 174.160156 120.449219 173.554688 119.703125 C 172.949219 118.957031 171.789062 119.769531 171.789062 119.769531 L 166.542969 123.585938 C 166.542969 123.585938 172.234375 117.523438 172.808594 116.917969 C 173.382812 116.3125 173.734375 115.25 173.015625 114.480469 C 172.296875 113.710938 171.175781 114.339844 171.175781 114.339844 L 163.761719 120.621094 C 163.761719 120.621094 169.953125 113.769531 170.703125 112.996094 C 171.449219 112.21875 171.757812 111.214844 170.914062 110.449219 C 170.066406 109.683594 168.820312 110.738281 168.820312 110.738281 L 161.070312 118.246094 C 161.070312 118.246094 164.378906 114.09375 165.964844 112.363281 C 167.546875 110.632812 167.867188 109.605469 166.757812 108.695312 C 165.652344 107.789062 164.355469 109.671875 164.355469 109.671875 L 154.855469 119.945312 C 154.855469 119.945312 154.855469 119.945312 154.785156 117.988281 C 154.710938 116.035156 154.894531 113.679688 153.707031 113.246094 C 152.523438 112.8125 151.363281 113.390625 150.875 114.242188 C 150.390625 115.097656 149.035156 125.824219 149.035156 125.824219 L 147.351562 128.765625 C 146.773438 129.773438 146.675781 130.984375 147.085938 132.070312 C 149 137.125 153.464844 138.054688 153.464844 138.054688 Z M 168.007812 126.324219 " fill-opacity="1" fill-rule="nonzero"/><path fill="#f2b149" d="M 185.59375 135.039062 C 185.554688 137.621094 183.785156 139.851562 181.277344 140.472656 L 163.871094 144.800781 C 161.816406 145.273438 159.679688 144.628906 158.113281 143.039062 C 156.9375 141.847656 155.839844 140.148438 155.554688 137.835938 C 155.402344 136.597656 155.492188 135.472656 155.71875 134.476562 C 156.390625 131.53125 157.46875 129.207031 160.027344 128.355469 C 164.0625 127.011719 171.246094 125.90625 178.890625 125.164062 C 184.710938 124.597656 185.664062 130.621094 185.59375 135.039062 Z M 153.339844 140.3125 C 153.339844 140.3125 142.421875 143.765625 141.285156 144.496094 C 140.332031 145.105469 139.945312 148.175781 142.792969 148.3125 C 141.839844 148.664062 141.136719 148.949219 140.890625 149.109375 C 139.753906 149.835938 139.421875 154.070312 144.429688 152.640625 C 149.4375 151.210938 154.878906 148.828125 155.535156 148.167969 C 156.269531 147.429688 155.441406 144.800781 153.601562 144.8125 C 154.835938 144.253906 155.691406 143.792969 155.929688 143.554688 C 156.75 142.730469 155.625 139.570312 153.339844 140.3125 Z M 152.734375 139.0625 C 153.554688 138.238281 152.433594 135.074219 150.144531 135.816406 C 150.144531 135.816406 139.226562 139.273438 138.089844 140 C 136.957031 140.730469 136.621094 144.960938 141.632812 143.53125 C 146.640625 142.101562 152.082031 139.722656 152.734375 139.0625 Z M 152.734375 139.0625 " fill-opacity="1" fill-rule="nonzero"/><path fill="#efd8af" d="M 146.027344 143.132812 L 150.160156 141.699219 L 152.140625 144.589844 L 147.910156 146.339844 Z M 145.121094 148.179688 L 147.003906 151.386719 L 151.234375 149.636719 L 149.253906 146.746094 Z M 146.457031 137.640625 L 142.324219 139.074219 L 144.207031 142.277344 L 148.433594 140.527344 Z M 146.457031 137.640625 " fill-opacity="1" fill-rule="nonzero"/><path fill="#f2b149" d="M 146.070312 138.976562 C 146.042969 139.183594 145.855469 139.316406 145.652344 139.289062 C 145.445312 139.261719 145.296875 139.085938 145.324219 138.878906 C 145.351562 138.675781 145.539062 138.527344 145.746094 138.554688 C 145.953125 138.582031 146.097656 138.773438 146.070312 138.976562 Z M 143.910156 139.195312 C 143.703125 139.167969 143.511719 139.3125 143.488281 139.519531 C 143.460938 139.722656 143.609375 139.898438 143.8125 139.925781 C 144.019531 139.953125 144.207031 139.824219 144.234375 139.617188 C 144.261719 139.410156 144.113281 139.21875 143.910156 139.195312 Z M 146.527344 140.554688 C 146.734375 140.582031 146.917969 140.449219 146.945312 140.246094 C 146.972656 140.039062 146.828125 139.847656 146.621094 139.820312 C 146.414062 139.796875 146.226562 139.941406 146.199219 140.148438 C 146.171875 140.351562 146.320312 140.527344 146.527344 140.554688 Z M 144.730469 140.453125 C 144.523438 140.425781 144.335938 140.570312 144.308594 140.777344 C 144.28125 140.984375 144.429688 141.15625 144.636719 141.183594 C 144.839844 141.210938 145.027344 141.082031 145.054688 140.875 C 145.082031 140.667969 144.9375 140.480469 144.730469 140.453125 Z M 149.449219 142.617188 C 149.246094 142.589844 149.054688 142.734375 149.027344 142.941406 C 149 143.148438 149.148438 143.320312 149.355469 143.347656 C 149.5625 143.375 149.746094 143.246094 149.773438 143.039062 C 149.800781 142.832031 149.65625 142.644531 149.449219 142.617188 Z M 148.761719 144.933594 C 148.789062 144.730469 148.640625 144.539062 148.4375 144.511719 C 148.230469 144.484375 148.039062 144.632812 148.011719 144.835938 C 147.988281 145.042969 148.132812 145.21875 148.339844 145.246094 C 148.546875 145.273438 148.734375 145.140625 148.761719 144.933594 Z M 150.328125 143.882812 C 150.121094 143.855469 149.929688 144 149.90625 144.207031 C 149.878906 144.414062 150.023438 144.589844 150.230469 144.613281 C 150.4375 144.640625 150.625 144.511719 150.652344 144.304688 C 150.675781 144.097656 150.53125 143.910156 150.328125 143.882812 Z M 147.613281 143.253906 C 147.40625 143.226562 147.21875 143.371094 147.191406 143.578125 C 147.164062 143.785156 147.3125 143.960938 147.519531 143.988281 C 147.722656 144.015625 147.910156 143.882812 147.9375 143.675781 C 147.964844 143.46875 147.820312 143.28125 147.613281 143.253906 Z M 149.421875 148.929688 C 149.214844 148.902344 149.023438 149.046875 148.996094 149.253906 C 148.972656 149.460938 149.117188 149.632812 149.324219 149.660156 C 149.53125 149.6875 149.71875 149.558594 149.746094 149.351562 C 149.769531 149.144531 149.625 148.957031 149.421875 148.929688 Z M 147.527344 149.558594 C 147.324219 149.53125 147.132812 149.675781 147.105469 149.882812 C 147.082031 150.089844 147.226562 150.265625 147.433594 150.292969 C 147.640625 150.316406 147.828125 150.1875 147.855469 149.980469 C 147.878906 149.777344 147.734375 149.585938 147.527344 149.558594 Z M 146.707031 148.300781 C 146.5 148.273438 146.3125 148.417969 146.285156 148.625 C 146.257812 148.832031 146.40625 149.007812 146.613281 149.03125 C 146.816406 149.058594 147.003906 148.929688 147.03125 148.722656 C 147.058594 148.515625 146.914062 148.328125 146.707031 148.300781 Z M 148.542969 147.664062 C 148.339844 147.636719 148.148438 147.78125 148.121094 147.988281 C 148.09375 148.195312 148.242188 148.367188 148.449219 148.394531 C 148.65625 148.421875 148.839844 148.292969 148.867188 148.085938 C 148.894531 147.878906 148.75 147.691406 148.542969 147.664062 Z M 148.542969 147.664062 " fill-opacity="1" fill-rule="nonzero"/><path fill="#efd8af" d="M 130.972656 128.96875 C 130.972656 125.46875 133.324219 122.648438 136.820312 122.648438 C 140.316406 122.648438 143.3125 125.128906 143.3125 128.628906 C 143.3125 132.125 140.800781 135.171875 137.304688 135.171875 C 133.808594 135.171875 130.972656 132.464844 130.972656 128.96875 Z M 142.957031 121.582031 C 143.050781 121.816406 143.128906 122.027344 143.199219 122.214844 L 143.769531 122.027344 C 143.582031 121.414062 143.324219 120.765625 143.039062 120.46875 C 142.425781 119.839844 140.792969 119.160156 140.792969 119.160156 L 140.113281 119.675781 C 140.113281 119.675781 142.328125 119.984375 142.957031 121.582031 Z M 143.539062 123.085938 C 143.601562 123.230469 143.601562 123.230469 143.601562 123.230469 L 144.183594 123.070312 L 143.941406 122.488281 L 143.34375 122.617188 C 143.34375 122.617188 143.472656 122.941406 143.539062 123.085938 Z M 142.226562 153.792969 L 121.460938 123.050781 L 117.609375 137.121094 L 139.441406 165.617188 L 193.527344 154.890625 L 195.664062 142.773438 Z M 162.695312 136.507812 C 162.351562 140.1875 161.230469 141.652344 161.230469 141.652344 C 161.230469 141.652344 162.152344 141.738281 162.300781 141.652344 C 162.449219 141.566406 163.382812 137.683594 163.53125 136.457031 C 163.675781 135.230469 163.875 133.265625 162.058594 132.480469 C 160.242188 131.695312 159.355469 131.625 159.355469 131.625 L 159.015625 132.332031 C 159.015625 132.332031 163.039062 132.824219 162.695312 136.507812 Z M 160.609375 143.148438 C 160.085938 143.539062 159.082031 144.464844 159.425781 145.902344 C 159.769531 147.335938 161.488281 147.703125 162.226562 147.527344 C 162.964844 147.351562 171.628906 145.28125 171.628906 145.28125 L 180.242188 143.226562 L 179.164062 138.714844 L 168.722656 141.210938 C 168.722656 141.210938 161.132812 142.753906 160.609375 143.148438 Z M 161.449219 130.183594 L 161.878906 130.367188 C 161.9375 130.394531 162 130.402344 162.0625 130.394531 C 163.546875 130.226562 181.589844 128.15625 181.789062 127.4375 C 181.972656 126.761719 180.378906 126.578125 180.082031 126.550781 C 180.050781 126.546875 180.019531 126.546875 179.988281 126.550781 L 161.535156 129.480469 C 161.167969 129.539062 161.109375 130.039062 161.449219 130.183594 Z M 161.449219 130.183594 " fill-opacity="1" fill-rule="nonzero"/><path fill="#82bfbe" d="M 153.027344 114.65625 L 153.171875 115.144531 C 153.171875 115.144531 152.007812 115.71875 151.847656 116.277344 C 151.652344 116.964844 151.617188 118.683594 151.617188 118.683594 L 150.867188 118.683594 C 150.867188 118.683594 150.867188 118.683594 151.160156 116.667969 C 151.453125 114.65625 153.027344 114.65625 153.027344 114.65625 Z M 139.695312 166.023438 L 140.878906 166.429688 L 141.804688 159.828125 L 142.558594 156.398438 L 141.074219 156.191406 Z M 123.523438 85.171875 L 128.863281 87.285156 L 129.367188 86.449219 L 124.023438 84.113281 Z M 178.101562 142.828125 C 178.0625 142.738281 177.996094 142.679688 177.933594 142.648438 C 177.839844 142.597656 177.734375 142.589844 177.640625 142.617188 C 177.257812 142.726562 175.203125 143.183594 174.519531 143.316406 C 174.273438 143.363281 174.308594 143.496094 174.414062 143.625 C 174.570312 143.816406 174.804688 143.898438 175.019531 143.847656 L 177.980469 143.140625 C 178.105469 143.109375 178.164062 142.957031 178.101562 142.828125 Z M 178.101562 142.828125 " fill-opacity="1" fill-rule="nonzero"/><path fill="#197584" d="M 182.488281 143.429688 L 179.84375 143.859375 L 179.21875 141.695312 L 178.5625 138.4375 L 181.082031 137.746094 C 181.082031 137.746094 182.210938 137.550781 182.84375 140.203125 C 183.476562 142.851562 182.488281 143.429688 182.488281 143.429688 Z M 137.261719 84.089844 L 134.492188 84.839844 C 134.492188 84.839844 137.902344 84.925781 136.96875 90.472656 L 139.765625 90.082031 C 139.765625 90.082031 139.765625 84.925781 137.261719 84.089844 Z M 171.628906 78.21875 L 168.859375 78.972656 C 168.859375 78.972656 172.269531 79.054688 171.335938 84.601562 L 174.132812 84.210938 C 174.132812 84.210938 174.132812 79.054688 171.628906 78.21875 Z M 171.628906 78.21875 " fill-opacity="1" fill-rule="nonzero"/><g clip-path="url(#904bff1d06)"><path fill="#d3444f" d="M 132.007812 111.90625 L 141.945312 111.90625 L 141.601562 116.476562 L 132.378906 116.476562 Z M 138.390625 125.265625 L 135.800781 125.265625 L 135.996094 128.09375 L 132.980469 128.09375 L 133.136719 130.710938 L 135.996094 130.554688 L 135.996094 133.339844 L 138.128906 133.46875 L 138.449219 130.519531 L 140.988281 130.488281 L 141.113281 128.328125 L 138.417969 128.09375 Z M 172.648438 142.769531 C 172.28125 141.230469 171.347656 141.035156 171.347656 141.035156 L 164.042969 142.78125 C 164.042969 142.78125 161.339844 143.320312 160.921875 143.828125 C 160.507812 144.335938 160.195312 144.800781 160.367188 145.53125 C 160.542969 146.257812 161.589844 146.992188 162.097656 146.921875 C 162.601562 146.851562 172.238281 144.765625 172.238281 144.765625 C 172.238281 144.765625 173.019531 144.3125 172.648438 142.769531 Z M 160.929688 78.503906 L 163.777344 77.859375 C 163.828125 71.890625 160.097656 69.691406 155.613281 69.714844 C 151.007812 69.742188 146.453125 71 143.992188 72.917969 C 141.113281 75.160156 142.421875 82.242188 142.421875 82.242188 L 145.0625 81.589844 C 145.0625 81.589844 143.394531 74.546875 152.339844 72.574219 C 161.285156 70.601562 160.929688 78.503906 160.929688 78.503906 Z M 184.539062 155.316406 L 181.921875 155.894531 C 181.921875 155.894531 184.089844 161.054688 175.203125 162.808594 C 166.316406 164.5625 166.140625 158.664062 166.140625 158.664062 L 163.3125 159.234375 C 163.421875 164.148438 167.210938 165.902344 171.691406 165.820312 C 176.296875 165.730469 180.214844 164.449219 182.617188 162.835938 C 185.4375 160.949219 184.539062 155.316406 184.539062 155.316406 Z M 184.539062 155.316406 " fill-opacity="1" fill-rule="nonzero"/></g><path fill="#eaf5fc" d="M 60.253906 16.222656 L 164.613281 16.222656 C 167.371094 16.222656 170.015625 17.320312 171.96875 19.269531 C 173.917969 21.21875 175.015625 23.867188 175.015625 26.625 L 175.015625 47.429688 C 175.015625 50.1875 173.917969 52.835938 171.96875 54.785156 C 170.015625 56.734375 167.371094 57.832031 164.613281 57.832031 L 60.253906 57.832031 C 54.511719 57.832031 49.851562 53.175781 49.851562 47.429688 L 49.851562 26.625 C 49.851562 20.878906 54.511719 16.222656 60.253906 16.222656 Z M 60.253906 16.222656 " fill-opacity="1" fill-rule="nonzero"/><g fill="#40abe6" fill-opacity="1"><g transform="translate(60.091189, 45.990542)"><g><path d="M 2.046875 0 L 2.046875 -14 L 1.53125 -16.5625 L 2.046875 -18.09375 L 6.171875 -18.09375 L 11.34375 -11.140625 L 12.5625 -9.015625 L 12.828125 -9.015625 L 12.828125 -18.09375 L 17.65625 -18.09375 L 17.65625 -16.5625 L 17.40625 -14 L 17.40625 0 L 13.390625 0 L 6.96875 -9.015625 L 6.703125 -9.015625 L 6.703125 -7.46875 L 6.96875 0 Z M 2.046875 0 "/></g></g></g><g fill="#40abe6" fill-opacity="1"><g transform="translate(79.277786, 45.990542)"><g><path d="M 1.796875 0 L 1.796875 -14 L 1.53125 -16.5625 L 1.796875 -18.125 L 6.40625 -18.125 L 6.40625 -11.1875 L 12.765625 -11.1875 L 12.765625 -18.125 L 17.375 -18.125 L 17.375 -8.5 L 17.640625 -6.734375 L 17.640625 0 L 12.765625 0 L 12.765625 -6.75 L 6.40625 -6.75 L 6.40625 -5.21875 L 6.65625 0 Z M 1.796875 0 "/></g></g></g><g fill="#40abe6" fill-opacity="1"><g transform="translate(98.438796, 45.990542)"><g><path d="M 9.703125 0.25 C 8.609375 0.25 7.546875 0.117188 6.515625 -0.140625 C 5.484375 -0.398438 4.550781 -0.867188 3.71875 -1.546875 C 2.894531 -2.234375 2.238281 -3.179688 1.75 -4.390625 C 1.269531 -5.609375 1.03125 -7.164062 1.03125 -9.0625 C 1.03125 -10.957031 1.269531 -12.507812 1.75 -13.71875 C 2.238281 -14.925781 2.894531 -15.867188 3.71875 -16.546875 C 4.550781 -17.234375 5.484375 -17.707031 6.515625 -17.96875 C 7.546875 -18.238281 8.609375 -18.375 9.703125 -18.375 C 10.796875 -18.375 11.859375 -18.238281 12.890625 -17.96875 C 13.921875 -17.695312 14.847656 -17.21875 15.671875 -16.53125 C 16.503906 -15.851562 17.160156 -14.90625 17.640625 -13.6875 C 18.128906 -12.476562 18.375 -10.9375 18.375 -9.0625 C 18.375 -7.1875 18.128906 -5.640625 17.640625 -4.421875 C 17.160156 -3.210938 16.503906 -2.265625 15.671875 -1.578125 C 14.847656 -0.898438 13.921875 -0.425781 12.890625 -0.15625 C 11.859375 0.113281 10.796875 0.25 9.703125 0.25 Z M 9.703125 -4.09375 C 10.960938 -4.09375 11.914062 -4.46875 12.5625 -5.21875 C 13.21875 -5.96875 13.546875 -7.25 13.546875 -9.0625 C 13.546875 -10.863281 13.21875 -12.140625 12.5625 -12.890625 C 11.914062 -13.648438 10.960938 -14.03125 9.703125 -14.03125 C 8.453125 -14.03125 7.503906 -13.644531 6.859375 -12.875 C 6.210938 -12.101562 5.890625 -10.832031 5.890625 -9.0625 C 5.890625 -7.289062 6.210938 -6.019531 6.859375 -5.25 C 7.503906 -4.476562 8.453125 -4.09375 9.703125 -4.09375 Z M 8.0625 -19.421875 L 9.765625 -24.34375 L 12.875 -24.34375 L 12.875 -22.78125 L 9.34375 -19.421875 Z M 8.0625 -19.421875 "/></g></g></g><g fill="#40abe6" fill-opacity="1"><g transform="translate(117.830052, 45.990542)"><g><path d="M 2.046875 0 L 2.046875 -14 L 1.53125 -16.5625 L 2.078125 -18.09375 L 6.96875 -18.09375 L 11.984375 -8.375 L 12.484375 -8.375 L 16.640625 -18.09375 L 21.734375 -18.09375 L 21.984375 -16.5625 L 21.734375 -14.109375 L 21.734375 0 L 17.09375 0 L 17.171875 -2.171875 L 17.171875 -9.3125 L 16.890625 -9.3125 L 15.875 -6.859375 L 13.5625 -2.5625 L 10.5 -2.5625 L 6.96875 -9.3125 L 6.703125 -9.3125 L 6.703125 -7.25 L 6.96875 0 Z M 2.046875 0 "/></g></g></g><g fill="#40abe6" fill-opacity="1"><g transform="translate(141.340029, 45.990542)"><g/></g></g><g fill="#40abe6" fill-opacity="1"><g transform="translate(147.479737, 45.990542)"><g><path d="M 8.703125 0.25 C 7.765625 0.25 6.84375 0.160156 5.9375 -0.015625 C 5.03125 -0.191406 4.207031 -0.488281 3.46875 -0.90625 C 2.726562 -1.320312 2.132812 -1.890625 1.6875 -2.609375 C 1.25 -3.328125 1.03125 -4.222656 1.03125 -5.296875 C 1.03125 -6.390625 1.257812 -7.269531 1.71875 -7.9375 C 2.175781 -8.601562 2.78125 -9.113281 3.53125 -9.46875 C 2.914062 -9.914062 2.472656 -10.46875 2.203125 -11.125 C 1.929688 -11.78125 1.796875 -12.515625 1.796875 -13.328125 C 1.796875 -14.316406 2.0625 -15.1875 2.59375 -15.9375 C 3.132812 -16.695312 3.914062 -17.289062 4.9375 -17.71875 C 5.957031 -18.15625 7.195312 -18.375 8.65625 -18.375 C 10.832031 -18.375 12.519531 -17.9375 13.71875 -17.0625 C 14.914062 -16.195312 15.515625 -14.953125 15.515625 -13.328125 C 15.515625 -12.429688 15.382812 -11.671875 15.125 -11.046875 C 14.863281 -10.421875 14.488281 -9.910156 14 -9.515625 C 14.71875 -9.160156 15.273438 -8.644531 15.671875 -7.96875 C 16.078125 -7.300781 16.28125 -6.410156 16.28125 -5.296875 C 16.28125 -4.222656 16.066406 -3.328125 15.640625 -2.609375 C 15.210938 -1.890625 14.632812 -1.320312 13.90625 -0.90625 C 13.1875 -0.488281 12.375 -0.191406 11.46875 -0.015625 C 10.5625 0.160156 9.640625 0.25 8.703125 0.25 Z M 8.703125 -10.90625 C 9.335938 -10.90625 9.820312 -11.070312 10.15625 -11.40625 C 10.5 -11.738281 10.671875 -12.117188 10.671875 -12.546875 C 10.671875 -12.984375 10.5 -13.335938 10.15625 -13.609375 C 9.820312 -13.890625 9.335938 -14.03125 8.703125 -14.03125 C 8.085938 -14.03125 7.585938 -13.90625 7.203125 -13.65625 C 6.816406 -13.40625 6.625 -13.035156 6.625 -12.546875 C 6.625 -12.066406 6.816406 -11.671875 7.203125 -11.359375 C 7.585938 -11.054688 8.085938 -10.90625 8.703125 -10.90625 Z M 8.703125 -4.09375 C 9.617188 -4.09375 10.300781 -4.238281 10.75 -4.53125 C 11.207031 -4.832031 11.4375 -5.191406 11.4375 -5.609375 C 11.4375 -6.117188 11.226562 -6.539062 10.8125 -6.875 C 10.394531 -7.207031 9.832031 -7.445312 9.125 -7.59375 C 8.414062 -7.738281 7.625 -7.789062 6.75 -7.75 C 6.550781 -7.53125 6.378906 -7.257812 6.234375 -6.9375 C 6.085938 -6.613281 6.015625 -6.269531 6.015625 -5.90625 C 6.015625 -5.382812 6.226562 -4.953125 6.65625 -4.609375 C 7.09375 -4.265625 7.773438 -4.09375 8.703125 -4.09375 Z M 8.703125 -4.09375 "/></g></g></g><g fill="#ffffff" fill-opacity="1"><g transform="translate(22.809225, 105.316159)"><g><path d="M 3.890625 0.234375 L 0.285156 -10.765625 L -0.351562 -12.859375 L -0.351562 -14.921875 L 4.78125 -14.921875 L 7.75 -3.835938 L 7.027344 -3.644531 L 7.027344 -4.394531 L 7.425781 -4.394531 L 7.425781 -3.644531 L 6.699219 -3.835938 L 9.632812 -14.921875 L 14.722656 -14.921875 L 14.722656 -12.859375 L 14.089844 -10.773438 L 10.332031 0.75 L 4.058594 0.75 Z M 5.316406 -0.234375 L 4.605469 0 L 4.605469 -0.75 L 9.789062 -0.75 L 9.789062 0 L 9.074219 -0.234375 L 12.652344 -11.207031 L 13.253906 -13.1875 L 13.972656 -12.972656 L 13.222656 -12.972656 L 13.222656 -14.171875 L 13.972656 -14.171875 L 13.972656 -13.421875 L 10.207031 -13.421875 L 10.207031 -14.171875 L 10.933594 -13.980469 L 8.003906 -2.890625 L 6.449219 -2.890625 L 3.480469 -13.976562 L 4.203125 -14.171875 L 4.203125 -13.421875 L 0.398438 -13.421875 L 0.398438 -14.171875 L 1.152344 -14.171875 L 1.152344 -12.972656 L 0.398438 -12.972656 L 1.117188 -13.1875 L 1.71875 -11.207031 L 1 -10.988281 L 1.714844 -11.222656 Z M 5.316406 -0.234375 "/></g></g></g><g fill="#ffffff" fill-opacity="1"><g transform="translate(37.180108, 105.316159)"><g><path d="M -0.523438 -0.207031 L 0.4375 -3.589844 L 1.160156 -3.382812 L 0.410156 -3.382812 L 0.410156 -6.429688 L 2.359375 -7.222656 L 2.640625 -6.527344 L 1.933594 -6.769531 L 4.707031 -14.902344 L 10.957031 -14.902344 L 14.359375 -5.4375 L 13.652344 -5.183594 L 14.3125 -5.542969 L 15.945312 -2.53125 L 15.945312 0.75 L 11.097656 0.75 L 9.933594 -2.980469 L 10.648438 -3.203125 L 10.648438 -2.453125 L 4.824219 -2.453125 L 4.824219 -3.203125 L 5.550781 -3.007812 L 4.539062 0.75 L -0.792969 0.75 Z M 0.921875 0.207031 L 0.199219 0 L 0.199219 -0.75 L 3.964844 -0.75 L 3.964844 0 L 3.238281 -0.195312 L 4.25 -3.953125 L 11.203125 -3.953125 L 12.367188 -0.222656 L 11.648438 0 L 11.648438 -0.75 L 15.191406 -0.75 L 15.191406 0 L 14.441406 0 L 14.441406 -2.34375 L 15.191406 -2.34375 L 14.535156 -1.984375 L 12.964844 -4.875 L 9.722656 -13.898438 L 10.429688 -14.152344 L 10.429688 -13.402344 L 5.246094 -13.402344 L 5.246094 -14.152344 L 5.953125 -13.910156 L 3.242188 -5.957031 L 1.441406 -5.230469 L 1.160156 -5.925781 L 1.910156 -5.925781 L 1.910156 -3.277344 Z M 6.144531 -7.035156 L 9.546875 -7.035156 L 9.546875 -6.285156 L 8.835938 -6.050781 L 7.316406 -10.632812 L 8.027344 -10.871094 L 8.027344 -10.117188 L 7.605469 -10.117188 L 7.605469 -10.871094 L 8.320312 -10.640625 L 6.859375 -6.058594 L 6.144531 -6.285156 Z M 5.117188 -5.535156 L 7.058594 -11.621094 L 8.570312 -11.621094 L 10.589844 -5.535156 Z M 7.296875 5.636719 L 4.5625 2.902344 L 7.828125 -0.359375 L 11.089844 2.902344 L 7.828125 6.167969 Z M 8.359375 4.574219 L 7.828125 5.105469 L 7.296875 4.574219 L 9.496094 2.371094 L 10.027344 2.902344 L 9.496094 3.433594 L 7.296875 1.230469 L 7.828125 0.699219 L 8.359375 1.230469 L 6.15625 3.433594 L 5.625 2.902344 L 6.15625 2.371094 Z M 3.953125 -16.113281 L 6.359375 -19.207031 L 9.117188 -19.207031 L 12.4375 -14.902344 L 9.035156 -14.902344 L 7.296875 -16.214844 L 7.746094 -16.816406 L 8.1875 -16.207031 L 6.390625 -14.902344 L 3.007812 -14.902344 Z M 5.136719 -15.191406 L 4.542969 -15.652344 L 4.542969 -16.40625 L 6.144531 -16.40625 L 6.144531 -15.652344 L 5.703125 -16.261719 L 7.753906 -17.75 L 9.738281 -16.253906 L 9.289062 -15.652344 L 9.289062 -16.40625 L 10.910156 -16.40625 L 10.910156 -15.652344 L 10.316406 -15.195312 L 8.152344 -17.996094 L 8.746094 -18.457031 L 8.746094 -17.707031 L 6.726562 -17.707031 L 6.726562 -18.457031 L 7.316406 -17.996094 Z M 5.136719 -15.191406 "/></g></g></g><g fill="#ffffff" fill-opacity="1"><g transform="translate(52.571764, 105.316159)"><g><path d="M 3.652344 0 L 3.652344 -10.96875 L 4.402344 -10.96875 L 4.441406 -10.21875 L -0.351562 -9.980469 L -0.351562 -14.921875 L 12.859375 -14.921875 L 12.859375 -9.980469 L 7.96875 -10.21875 L 8.007812 -10.96875 L 8.757812 -10.96875 L 8.757812 -3.203125 L 8.007812 -3.203125 L 8.753906 -3.285156 L 8.984375 -1.175781 L 8.632812 0.75 L 3.652344 0.75 Z M 5.15625 0 L 4.402344 0 L 4.402344 -0.75 L 8.007812 -0.75 L 8.007812 0 L 7.269531 -0.136719 L 7.488281 -1.335938 L 8.226562 -1.199219 L 7.480469 -1.117188 L 7.257812 -3.160156 L 7.257812 -11.757812 L 12.148438 -11.519531 L 12.109375 -10.769531 L 11.359375 -10.769531 L 11.359375 -14.171875 L 12.109375 -14.171875 L 12.109375 -13.421875 L 0.398438 -13.421875 L 0.398438 -14.171875 L 1.152344 -14.171875 L 1.152344 -10.769531 L 0.398438 -10.769531 L 0.363281 -11.519531 L 5.15625 -11.757812 Z M 5.15625 0 "/></g></g></g><g fill="#ffffff" fill-opacity="1"><g transform="translate(65.081244, 105.316159)"><g/></g></g><g fill="#ffffff" fill-opacity="1"><g transform="translate(69.884888, 105.316159)"><g><path d="M 3.652344 0 L 3.652344 -10.96875 L 4.402344 -10.96875 L 4.441406 -10.21875 L -0.351562 -9.980469 L -0.351562 -14.921875 L 12.859375 -14.921875 L 12.859375 -9.980469 L 7.96875 -10.21875 L 8.007812 -10.96875 L 8.757812 -10.96875 L 8.757812 -3.203125 L 8.007812 -3.203125 L 8.753906 -3.285156 L 8.984375 -1.175781 L 8.632812 0.75 L 3.652344 0.75 Z M 5.15625 0 L 4.402344 0 L 4.402344 -0.75 L 8.007812 -0.75 L 8.007812 0 L 7.269531 -0.136719 L 7.488281 -1.335938 L 8.226562 -1.199219 L 7.480469 -1.117188 L 7.257812 -3.160156 L 7.257812 -11.757812 L 12.148438 -11.519531 L 12.109375 -10.769531 L 11.359375 -10.769531 L 11.359375 -14.171875 L 12.109375 -14.171875 L 12.109375 -13.421875 L 0.398438 -13.421875 L 0.398438 -14.171875 L 1.152344 -14.171875 L 1.152344 -10.769531 L 0.398438 -10.769531 L 0.363281 -11.519531 L 5.15625 -11.757812 Z M 5.15625 0 "/></g></g></g><g fill="#ffffff" fill-opacity="1"><g transform="translate(82.394367, 105.316159)"><g><path d="M 7.386719 0.949219 C 5.136719 0.949219 3.425781 0.414062 2.246094 -0.65625 C 1.050781 -1.746094 0.449219 -3.441406 0.449219 -5.746094 L 0.449219 -10.949219 L 0.46875 -12.980469 L 1.222656 -12.972656 L 0.46875 -12.957031 L 0.4375 -14.921875 L 5.59375 -14.921875 L 5.59375 -6.144531 C 5.59375 -5.359375 5.742188 -4.738281 6.035156 -4.28125 C 6.261719 -3.929688 6.710938 -3.753906 7.386719 -3.753906 C 8.078125 -3.753906 8.546875 -3.921875 8.792969 -4.253906 C 9.089844 -4.664062 9.238281 -5.292969 9.238281 -6.144531 L 9.238281 -14.921875 L 14.324219 -14.921875 L 14.324219 -5.746094 C 14.324219 -3.488281 13.742188 -1.804688 12.578125 -0.699219 C 11.425781 0.402344 9.695312 0.949219 7.386719 0.949219 Z M 7.386719 -0.550781 C 9.292969 -0.550781 10.679688 -0.960938 11.542969 -1.785156 C 12.394531 -2.597656 12.820312 -3.917969 12.820312 -5.746094 L 12.820312 -14.171875 L 13.570312 -14.171875 L 13.570312 -13.421875 L 9.988281 -13.421875 L 9.988281 -14.171875 L 10.738281 -14.171875 L 10.738281 -6.144531 C 10.738281 -4.96875 10.496094 -4.042969 10.003906 -3.371094 C 9.460938 -2.625 8.589844 -2.253906 7.386719 -2.253906 C 6.164062 -2.253906 5.296875 -2.65625 4.773438 -3.46875 C 4.320312 -4.171875 4.09375 -5.0625 4.09375 -6.144531 L 4.09375 -14.171875 L 4.84375 -14.171875 L 4.84375 -13.421875 L 1.199219 -13.421875 L 1.199219 -14.171875 L 1.953125 -14.183594 L 1.972656 -12.972656 L 1.953125 -10.949219 L 1.953125 -5.746094 C 1.953125 -3.882812 2.386719 -2.558594 3.257812 -1.765625 C 4.148438 -0.957031 5.523438 -0.550781 7.386719 -0.550781 Z M 13.292969 -12.222656 C 12.761719 -12.222656 12.335938 -12.300781 12.011719 -12.457031 L 11.261719 -12.820312 L 11.261719 -14.921875 L 12.632812 -14.921875 C 12.78125 -14.921875 12.890625 -14.9375 12.960938 -14.964844 C 12.964844 -14.96875 12.96875 -14.96875 12.972656 -14.972656 C 12.972656 -14.972656 12.96875 -14.96875 12.96875 -14.96875 C 12.957031 -14.957031 12.945312 -14.945312 12.9375 -14.929688 C 13.019531 -15.078125 13.0625 -15.3125 13.0625 -15.632812 L 13.0625 -17.566406 L 16.605469 -17.566406 L 16.605469 -15.332031 C 16.605469 -14.570312 16.433594 -13.953125 16.089844 -13.480469 C 15.753906 -13.019531 15.320312 -12.6875 14.785156 -12.488281 C 14.308594 -12.308594 13.808594 -12.222656 13.292969 -12.222656 Z M 13.292969 -13.722656 C 13.628906 -13.722656 13.953125 -13.78125 14.261719 -13.894531 C 14.511719 -13.988281 14.71875 -14.144531 14.875 -14.363281 C 15.027344 -14.570312 15.101562 -14.894531 15.101562 -15.332031 L 15.101562 -16.816406 L 15.855469 -16.816406 L 15.855469 -16.0625 L 13.8125 -16.0625 L 13.8125 -16.816406 L 14.5625 -16.816406 L 14.5625 -15.632812 C 14.5625 -15.046875 14.457031 -14.570312 14.246094 -14.195312 C 13.957031 -13.679688 13.417969 -13.421875 12.632812 -13.421875 L 12.011719 -13.421875 L 12.011719 -14.171875 L 12.761719 -14.171875 L 12.761719 -13.292969 L 12.011719 -13.292969 L 12.339844 -13.96875 L 12.667969 -13.808594 C 12.785156 -13.75 12.992188 -13.722656 13.292969 -13.722656 Z M 13.292969 -13.722656 "/></g></g></g><g fill="#ffffff" fill-opacity="1"><g transform="translate(37.245847, 132.952312)"><g><path d="M 4.613281 0 L 4.613281 -6.003906 L 5.363281 -6.003906 L 4.753906 -5.570312 L -0.351562 -12.730469 L -0.351562 -14.921875 L 5.054688 -14.921875 L 7.667969 -10 L 7.007812 -9.648438 L 7.007812 -10.398438 L 7.40625 -10.398438 L 7.40625 -9.648438 L 6.742188 -10 L 9.335938 -14.921875 L 14.742188 -14.921875 L 14.742188 -12.730469 L 9.496094 -5.445312 L 8.886719 -5.886719 L 9.636719 -5.929688 L 9.757812 -3.886719 L 9.757812 0.75 L 4.613281 0.75 Z M 6.117188 0 L 5.363281 0 L 5.363281 -0.75 L 9.007812 -0.75 L 9.007812 0 L 8.257812 0 L 8.257812 -3.863281 L 9.007812 -3.863281 L 8.257812 -3.820312 L 8.121094 -6.105469 L 13.382812 -13.410156 L 13.992188 -12.972656 L 13.242188 -12.972656 L 13.242188 -14.171875 L 13.992188 -14.171875 L 13.992188 -13.421875 L 9.789062 -13.421875 L 9.789062 -14.171875 L 10.453125 -13.824219 L 7.859375 -8.898438 L 6.554688 -8.898438 L 3.941406 -13.820312 L 4.605469 -14.171875 L 4.605469 -13.421875 L 0.398438 -13.421875 L 0.398438 -14.171875 L 1.152344 -14.171875 L 1.152344 -12.972656 L 0.398438 -12.972656 L 1.011719 -13.40625 L 6.117188 -6.246094 Z M 6.117188 0 "/></g></g></g><g fill="#ffffff" fill-opacity="1"><g transform="translate(51.636744, 132.952312)"><g/></g></g><g fill="#ffffff" fill-opacity="1"><g transform="translate(56.440388, 132.952312)"><g><path d="M 3.652344 0 L 3.652344 -10.96875 L 4.402344 -10.96875 L 4.441406 -10.21875 L -0.351562 -9.980469 L -0.351562 -14.921875 L 12.859375 -14.921875 L 12.859375 -9.980469 L 7.96875 -10.21875 L 8.007812 -10.96875 L 8.757812 -10.96875 L 8.757812 -3.203125 L 8.007812 -3.203125 L 8.753906 -3.285156 L 8.984375 -1.175781 L 8.632812 0.75 L 3.652344 0.75 Z M 5.15625 0 L 4.402344 0 L 4.402344 -0.75 L 8.007812 -0.75 L 8.007812 0 L 7.269531 -0.136719 L 7.488281 -1.335938 L 8.226562 -1.199219 L 7.480469 -1.117188 L 7.257812 -3.160156 L 7.257812 -11.757812 L 12.148438 -11.519531 L 12.109375 -10.769531 L 11.359375 -10.769531 L 11.359375 -14.171875 L 12.109375 -14.171875 L 12.109375 -13.421875 L 0.398438 -13.421875 L 0.398438 -14.171875 L 1.152344 -14.171875 L 1.152344 -10.769531 L 0.398438 -10.769531 L 0.363281 -11.519531 L 5.15625 -11.757812 Z M 5.15625 0 "/></g></g></g><g fill="#ffffff" fill-opacity="1"><g transform="translate(68.949867, 132.952312)"><g><path d="M 0.890625 0.238281 L 0.425781 -1.152344 L 0.867188 -3.351562 L 1.601562 -3.203125 L 0.851562 -3.203125 L 0.851562 -14.921875 L 11.71875 -14.921875 L 13.480469 -13.867188 L 11.640625 -9.964844 L 9.304688 -10.222656 L 9.386719 -10.96875 L 9.386719 -10.21875 L 5.203125 -10.21875 L 5.203125 -10.96875 L 5.957031 -10.96875 L 5.957031 -8.769531 L 5.203125 -8.769531 L 5.203125 -9.519531 L 11.339844 -9.519531 L 11.339844 -4.914062 L 8.203125 -4.914062 L 5.15625 -5.117188 L 5.203125 -5.863281 L 5.957031 -5.863281 L 5.957031 -3.203125 L 5.203125 -3.203125 L 5.203125 -3.953125 L 11.453125 -3.953125 L 14.667969 -1.363281 L 12.71875 0.75 L 1.058594 0.75 Z M 2.3125 -0.238281 L 1.601562 0 L 1.601562 -0.75 L 12.390625 -0.75 L 12.390625 0 L 11.839844 -0.507812 L 13.019531 -1.789062 L 13.570312 -1.28125 L 13.101562 -0.695312 L 10.71875 -2.617188 L 11.191406 -3.203125 L 11.191406 -2.453125 L 4.453125 -2.453125 L 4.453125 -6.667969 L 8.277344 -6.414062 L 8.226562 -5.664062 L 8.226562 -6.414062 L 10.589844 -6.414062 L 10.589844 -5.664062 L 9.839844 -5.664062 L 9.839844 -8.769531 L 10.589844 -8.769531 L 10.589844 -8.015625 L 4.453125 -8.015625 L 4.453125 -11.71875 L 9.429688 -11.71875 L 11.273438 -11.515625 L 11.191406 -10.769531 L 10.511719 -11.089844 L 11.832031 -13.890625 L 12.511719 -13.570312 L 12.125 -12.929688 L 11.125 -13.527344 L 11.511719 -14.171875 L 11.511719 -13.421875 L 1.601562 -13.421875 L 1.601562 -14.171875 L 2.351562 -14.171875 L 2.351562 -3.128906 L 1.9375 -1.054688 L 1.199219 -1.199219 L 1.914062 -1.4375 Z M 2.992188 -16.113281 L 5.398438 -19.207031 L 8.15625 -19.207031 L 11.476562 -14.902344 L 8.078125 -14.902344 L 6.335938 -16.214844 L 6.785156 -16.816406 L 7.226562 -16.207031 L 5.429688 -14.902344 L 2.046875 -14.902344 Z M 4.175781 -15.191406 L 3.582031 -15.652344 L 3.582031 -16.40625 L 5.183594 -16.40625 L 5.183594 -15.652344 L 4.742188 -16.261719 L 6.792969 -17.75 L 8.777344 -16.253906 L 8.328125 -15.652344 L 8.328125 -16.40625 L 9.949219 -16.40625 L 9.949219 -15.652344 L 9.355469 -15.195312 L 7.191406 -17.996094 L 7.785156 -18.457031 L 7.785156 -17.707031 L 5.765625 -17.707031 L 5.765625 -18.457031 L 6.355469 -17.996094 Z M 4.894531 -19.601562 L 6.390625 -23.949219 L 10.117188 -23.949219 L 10.117188 -21.65625 L 6.90625 -18.605469 L 4.554688 -18.605469 Z M 6.316406 -19.113281 L 5.605469 -19.355469 L 5.605469 -20.109375 L 6.605469 -20.109375 L 6.605469 -19.355469 L 6.089844 -19.902344 L 8.851562 -22.523438 L 9.367188 -21.980469 L 8.617188 -21.980469 L 8.617188 -23.199219 L 9.367188 -23.199219 L 9.367188 -22.449219 L 6.925781 -22.449219 L 6.925781 -23.199219 L 7.636719 -22.957031 Z M 6.316406 -19.113281 "/></g></g></g><g fill="#40abe6" fill-opacity="1"><g transform="translate(22.809225, 105.316159)"><g><path d="M 4.609375 0 L 1 -10.984375 L 0.40625 -12.96875 L 0.40625 -14.171875 L 4.203125 -14.171875 L 7.03125 -3.640625 L 7.421875 -3.640625 L 10.203125 -14.171875 L 13.96875 -14.171875 L 13.96875 -12.96875 L 13.375 -10.984375 L 9.78125 0 Z M 4.609375 0 "/></g></g></g><g fill="#40abe6" fill-opacity="1"><g transform="translate(37.180108, 105.316159)"><g><path d="M 0.203125 0 L 1.15625 -3.375 L 1.15625 -5.921875 L 2.640625 -6.53125 L 5.25 -14.15625 L 10.421875 -14.15625 L 13.65625 -5.1875 L 15.1875 -2.34375 L 15.1875 0 L 11.65625 0 L 10.640625 -3.203125 L 4.828125 -3.203125 L 3.96875 0 Z M 6.140625 -6.28125 L 9.546875 -6.28125 L 8.03125 -10.875 L 7.609375 -10.875 Z M 7.828125 5.09375 L 5.625 2.90625 L 7.828125 0.703125 L 10.03125 2.90625 Z M 4.546875 -15.65625 L 6.734375 -18.453125 L 8.75 -18.453125 L 10.90625 -15.65625 L 9.296875 -15.65625 L 7.75 -16.8125 L 6.140625 -15.65625 Z M 4.546875 -15.65625 "/></g></g></g><g fill="#40abe6" fill-opacity="1"><g transform="translate(52.571764, 105.316159)"><g><path d="M 4.40625 0 L 4.40625 -10.96875 L 0.40625 -10.765625 L 0.40625 -14.171875 L 12.109375 -14.171875 L 12.109375 -10.765625 L 8 -10.96875 L 8 -3.203125 L 8.21875 -1.203125 L 8 0 Z M 4.40625 0 "/></g></g></g><g fill="#40abe6" fill-opacity="1"><g transform="translate(65.081244, 105.316159)"><g/></g></g><g fill="#40abe6" fill-opacity="1"><g transform="translate(69.884888, 105.316159)"><g><path d="M 4.40625 0 L 4.40625 -10.96875 L 0.40625 -10.765625 L 0.40625 -14.171875 L 12.109375 -14.171875 L 12.109375 -10.765625 L 8 -10.96875 L 8 -3.203125 L 8.21875 -1.203125 L 8 0 Z M 4.40625 0 "/></g></g></g><g fill="#40abe6" fill-opacity="1"><g transform="translate(82.394367, 105.316159)"><g><path d="M 7.390625 0.203125 C 5.328125 0.203125 3.78125 -0.265625 2.75 -1.203125 C 1.71875 -2.148438 1.203125 -3.664062 1.203125 -5.75 L 1.203125 -10.953125 L 1.21875 -12.96875 L 1.203125 -14.171875 L 4.84375 -14.171875 L 4.84375 -6.140625 C 4.84375 -5.210938 5.03125 -4.457031 5.40625 -3.875 C 5.78125 -3.289062 6.441406 -3 7.390625 -3 C 8.335938 -3 9.003906 -3.269531 9.390625 -3.8125 C 9.785156 -4.351562 9.984375 -5.128906 9.984375 -6.140625 L 9.984375 -14.171875 L 13.578125 -14.171875 L 13.578125 -5.75 C 13.578125 -3.707031 13.070312 -2.203125 12.0625 -1.234375 C 11.050781 -0.273438 9.492188 0.203125 7.390625 0.203125 Z M 13.28125 -12.96875 C 12.875 -12.96875 12.554688 -13.019531 12.328125 -13.125 C 12.109375 -13.238281 12 -13.296875 12 -13.296875 L 12 -14.171875 L 12.625 -14.171875 C 13.113281 -14.171875 13.429688 -14.300781 13.578125 -14.5625 C 13.734375 -14.820312 13.8125 -15.179688 13.8125 -15.640625 L 13.8125 -16.8125 L 15.84375 -16.8125 L 15.84375 -15.328125 C 15.84375 -14.734375 15.71875 -14.265625 15.46875 -13.921875 C 15.226562 -13.578125 14.910156 -13.332031 14.515625 -13.1875 C 14.117188 -13.039062 13.707031 -12.96875 13.28125 -12.96875 Z M 13.28125 -12.96875 "/></g></g></g><g fill="#40abe6" fill-opacity="1"><g transform="translate(37.245847, 132.952312)"><g><path d="M 5.359375 0 L 5.359375 -6 L 0.40625 -12.96875 L 0.40625 -14.171875 L 4.609375 -14.171875 L 7 -9.640625 L 7.40625 -9.640625 L 9.78125 -14.171875 L 13.984375 -14.171875 L 13.984375 -12.96875 L 8.890625 -5.890625 L 9 -3.859375 L 9 0 Z M 5.359375 0 "/></g></g></g><g fill="#40abe6" fill-opacity="1"><g transform="translate(51.636744, 132.952312)"><g/></g></g><g fill="#40abe6" fill-opacity="1"><g transform="translate(56.440388, 132.952312)"><g><path d="M 4.40625 0 L 4.40625 -10.96875 L 0.40625 -10.765625 L 0.40625 -14.171875 L 12.109375 -14.171875 L 12.109375 -10.765625 L 8 -10.96875 L 8 -3.203125 L 8.21875 -1.203125 L 8 0 Z M 4.40625 0 "/></g></g></g><g fill="#40abe6" fill-opacity="1"><g transform="translate(68.949867, 132.952312)"><g><path d="M 1.59375 0 L 1.203125 -1.203125 L 1.59375 -3.203125 L 1.59375 -14.171875 L 11.515625 -14.171875 L 12.515625 -13.578125 L 11.1875 -10.765625 L 9.390625 -10.96875 L 5.203125 -10.96875 L 5.203125 -8.765625 L 10.59375 -8.765625 L 10.59375 -5.671875 L 8.21875 -5.671875 L 5.203125 -5.859375 L 5.203125 -3.203125 L 11.1875 -3.203125 L 13.578125 -1.28125 L 12.390625 0 Z M 3.578125 -15.65625 L 5.765625 -18.453125 L 7.78125 -18.453125 L 9.9375 -15.65625 L 8.328125 -15.65625 L 6.78125 -16.8125 L 5.171875 -15.65625 Z M 5.59375 -19.34375 L 6.921875 -23.1875 L 9.359375 -23.1875 L 9.359375 -21.96875 L 6.59375 -19.34375 Z M 5.59375 -19.34375 "/></g></g></g></svg>