<svg xmlns="http://www.w3.org/2000/svg" xmlns:xlink="http://www.w3.org/1999/xlink" width="450" zoomAndPan="magnify" viewBox="0 0 337.91998 277.91998" height="360" preserveAspectRatio="xMidYMid meet" version="1.0"><defs><g/><clipPath id="71635a7c1d"><path d="M 0.0078125 0 L 337.410156 0 L 337.410156 269.921875 L 0.0078125 269.921875 Z M 0.0078125 0 " clip-rule="nonzero"/></clipPath><clipPath id="7bfc1c8988"><path d="M 213 119 L 309 119 L 309 220.144531 L 213 220.144531 Z M 213 119 " clip-rule="nonzero"/></clipPath><clipPath id="74726ea2b0"><path d="M 215 119 L 309 119 L 309 220.144531 L 215 220.144531 Z M 215 119 " clip-rule="nonzero"/></clipPath><clipPath id="881a52bf7f"><path d="M 279 146 L 310.417969 146 L 310.417969 178 L 279 178 Z M 279 146 " clip-rule="nonzero"/></clipPath><clipPath id="b72a249ab9"><path d="M 1 1 L 170.617188 1 L 170.617188 59 L 1 59 Z M 1 1 " clip-rule="nonzero"/></clipPath><clipPath id="779f1fb04e"><rect x="0" width="171" y="0" height="60"/></clipPath><clipPath id="7e845e73f3"><path d="M 34 50 L 44 50 L 44 79.707031 L 34 79.707031 Z M 34 50 " clip-rule="nonzero"/></clipPath><clipPath id="fc727fcbce"><rect x="0" width="123" y="0" height="80"/></clipPath></defs><g clip-path="url(#71635a7c1d)"><path fill="#ffffff" d="M 0.0078125 0 L 337.410156 0 L 337.410156 269.921875 L 0.0078125 269.921875 Z M 0.0078125 0 " fill-opacity="1" fill-rule="nonzero"/><path fill="#d5f2ef" d="M 0.0078125 0 L 337.410156 0 L 337.410156 269.921875 L 0.0078125 269.921875 Z M 0.0078125 0 " fill-opacity="1" fill-rule="nonzero"/></g><path fill="#fcd22b" d="M 226.082031 99.066406 C 226.707031 99.695312 227.300781 100.351562 227.863281 101.035156 C 228.421875 101.722656 228.949219 102.433594 229.441406 103.167969 C 229.933594 103.90625 230.386719 104.664062 230.804688 105.445312 C 231.21875 106.226562 231.597656 107.027344 231.9375 107.847656 C 232.273438 108.664062 232.574219 109.5 232.828125 110.347656 C 233.085938 111.195312 233.300781 112.054688 233.472656 112.921875 C 233.644531 113.792969 233.777344 114.667969 233.863281 115.550781 C 233.949219 116.433594 233.992188 117.316406 233.992188 118.203125 C 233.992188 119.089844 233.949219 119.972656 233.863281 120.855469 C 233.777344 121.738281 233.644531 122.613281 233.472656 123.480469 C 233.300781 124.351562 233.085938 125.210938 232.828125 126.058594 C 232.574219 126.90625 232.273438 127.738281 231.9375 128.558594 C 231.597656 129.375 231.21875 130.175781 230.804688 130.957031 C 230.386719 131.738281 229.933594 132.5 229.441406 133.234375 C 228.949219 133.972656 228.421875 134.683594 227.863281 135.367188 C 227.300781 136.054688 226.707031 136.710938 226.082031 137.335938 C 225.457031 137.964844 224.804688 138.558594 224.117188 139.121094 C 223.433594 139.683594 222.726562 140.210938 221.992188 140.703125 C 221.253906 141.195312 220.496094 141.648438 219.71875 142.066406 C 218.9375 142.484375 218.136719 142.863281 217.320312 143.203125 C 216.503906 143.542969 215.671875 143.839844 214.824219 144.097656 C 213.980469 144.355469 213.121094 144.570312 212.253906 144.742188 C 211.386719 144.914062 210.515625 145.042969 209.632812 145.132812 C 208.753906 145.21875 207.871094 145.261719 206.988281 145.261719 C 206.101562 145.261719 205.21875 145.21875 204.339844 145.132812 C 203.460938 145.042969 202.585938 144.914062 201.71875 144.742188 C 200.851562 144.570312 199.992188 144.355469 199.148438 144.097656 C 198.300781 143.839844 197.46875 143.542969 196.652344 143.203125 C 195.835938 142.863281 195.035156 142.484375 194.257812 142.066406 C 193.476562 141.648438 192.71875 141.195312 191.984375 140.703125 C 191.246094 140.210938 190.539062 139.683594 189.855469 139.121094 C 189.171875 138.558594 188.515625 137.964844 187.890625 137.335938 C 187.265625 136.710938 186.671875 136.054688 186.109375 135.367188 C 185.550781 134.683594 185.023438 133.972656 184.53125 133.234375 C 184.039062 132.5 183.585938 131.738281 183.167969 130.957031 C 182.753906 130.175781 182.375 129.375 182.035156 128.558594 C 181.699219 127.738281 181.402344 126.90625 181.144531 126.058594 C 180.886719 125.210938 180.671875 124.351562 180.5 123.480469 C 180.328125 122.613281 180.199219 121.738281 180.109375 120.855469 C 180.023438 119.972656 179.980469 119.089844 179.980469 118.203125 C 179.980469 117.316406 180.023438 116.433594 180.109375 115.550781 C 180.199219 114.667969 180.328125 113.792969 180.5 112.921875 C 180.671875 112.054688 180.886719 111.195312 181.144531 110.347656 C 181.402344 109.5 181.699219 108.664062 182.035156 107.847656 C 182.375 107.027344 182.753906 106.226562 183.167969 105.445312 C 183.585938 104.664062 184.039062 103.90625 184.53125 103.167969 C 185.023438 102.433594 185.550781 101.722656 186.109375 101.035156 C 186.671875 100.351562 187.265625 99.695312 187.890625 99.066406 C 188.515625 98.441406 189.171875 97.847656 189.855469 97.285156 C 190.539062 96.722656 191.246094 96.195312 191.984375 95.703125 C 192.71875 95.210938 193.476562 94.753906 194.257812 94.335938 C 195.035156 93.921875 195.835938 93.542969 196.652344 93.203125 C 197.46875 92.863281 198.300781 92.566406 199.148438 92.308594 C 199.992188 92.050781 200.851562 91.835938 201.71875 91.664062 C 202.585938 91.488281 203.460938 91.359375 204.339844 91.273438 C 205.21875 91.1875 206.101562 91.144531 206.988281 91.144531 C 207.871094 91.144531 208.753906 91.1875 209.632812 91.273438 C 210.515625 91.359375 211.386719 91.488281 212.253906 91.664062 C 213.121094 91.835938 213.980469 92.050781 214.824219 92.308594 C 215.671875 92.566406 216.503906 92.863281 217.320312 93.203125 C 218.136719 93.542969 218.9375 93.921875 219.71875 94.335938 C 220.496094 94.753906 221.253906 95.210938 221.992188 95.703125 C 222.726562 96.195312 223.433594 96.722656 224.117188 97.285156 C 224.804688 97.847656 225.457031 98.441406 226.082031 99.066406 Z M 226.082031 99.066406 " fill-opacity="1" fill-rule="nonzero"/><path fill="#ffe259" d="M 205.65625 145.230469 C 191.359375 144.535156 179.980469 132.699219 179.980469 118.203125 C 179.980469 103.703125 191.359375 91.871094 205.65625 91.175781 C 219.953125 91.871094 231.332031 103.703125 231.332031 118.203125 C 231.332031 132.699219 219.953125 144.535156 205.65625 145.230469 Z M 205.65625 145.230469 " fill-opacity="1" fill-rule="evenodd"/><path fill="#9c939c" d="M 208.992188 130.765625 C 208.644531 130.765625 208.296875 130.652344 208.003906 130.417969 C 207.324219 129.871094 207.21875 128.875 207.765625 128.195312 C 208.769531 126.945312 209.078125 126.296875 209.175781 126.011719 C 208.492188 125.710938 206.546875 125.53125 204.953125 125.386719 L 204.773438 125.371094 C 200.074219 124.945312 197.265625 123.445312 196.875 121.148438 C 196.523438 119.089844 198.113281 117.238281 201.597656 115.636719 C 202.296875 115.316406 202.945312 115.113281 203.628906 114.894531 C 204.089844 114.746094 204.570312 114.59375 205.132812 114.390625 C 205.699219 114.179688 206.0625 113.800781 206.160156 113.320312 C 206.253906 112.859375 206.089844 112.378906 205.722656 112.039062 C 205.421875 111.753906 204.953125 111.457031 204.464844 111.140625 C 203.019531 110.214844 201.042969 108.945312 201.199219 106.503906 C 201.296875 104.953125 201.988281 104.042969 202.542969 103.308594 C 203.210938 102.429688 203.652344 101.851562 203.152344 99.707031 C 202.953125 98.859375 203.476562 98.007812 204.328125 97.808594 C 205.171875 97.609375 206.023438 98.136719 206.222656 98.984375 C 207 102.308594 206.113281 103.832031 205.054688 105.222656 C 204.589844 105.835938 204.382812 106.132812 204.34375 106.703125 C 204.308594 107.246094 205.042969 107.761719 206.164062 108.480469 C 206.753906 108.855469 207.363281 109.25 207.875 109.730469 C 209.046875 110.824219 209.566406 112.402344 209.253906 113.945312 C 208.9375 115.515625 207.832031 116.761719 206.21875 117.355469 C 205.589844 117.585938 205.054688 117.757812 204.578125 117.910156 C 203.941406 118.109375 203.433594 118.273438 202.910156 118.511719 C 200.398438 119.664062 200.03125 120.503906 199.992188 120.625 C 200.121094 120.890625 201.324219 121.886719 205.058594 122.222656 L 205.238281 122.242188 C 208.910156 122.574219 211.332031 122.792969 212.15625 124.738281 C 212.894531 126.480469 211.664062 128.382812 210.21875 130.179688 C 209.910156 130.566406 209.453125 130.765625 208.992188 130.765625 Z M 208.992188 130.765625 " fill-opacity="1" fill-rule="evenodd"/><path fill="#f4494e" d="M 223.535156 116.761719 L 222.835938 114.140625 C 222.609375 113.300781 223.109375 112.433594 223.949219 112.207031 C 224.789062 111.984375 225.65625 112.480469 225.882812 113.324219 L 226.582031 115.945312 C 226.804688 116.785156 226.308594 117.652344 225.464844 117.875 C 224.628906 118.101562 223.761719 117.609375 223.535156 116.761719 Z M 191.824219 126.671875 L 190.472656 124.324219 C 190.035156 123.570312 190.292969 122.605469 191.046875 122.167969 C 191.804688 121.730469 192.765625 121.988281 193.203125 122.746094 L 194.558594 125.09375 C 194.992188 125.847656 194.734375 126.816406 193.980469 127.25 C 193.230469 127.6875 192.261719 127.433594 191.824219 126.671875 Z M 196.480469 134.273438 C 196.046875 133.519531 196.304688 132.554688 197.058594 132.117188 L 199.402344 130.761719 C 200.15625 130.324219 201.121094 130.585938 201.558594 131.339844 C 201.992188 132.097656 201.734375 133.0625 200.980469 133.5 L 198.636719 134.855469 C 197.886719 135.285156 196.921875 135.03125 196.480469 134.273438 Z M 211.90625 138.367188 C 211.035156 138.367188 210.328125 137.65625 210.328125 136.785156 L 210.328125 134.074219 C 210.328125 133.199219 211.035156 132.496094 211.90625 132.496094 C 212.773438 132.496094 213.480469 133.199219 213.480469 134.074219 L 213.480469 136.785156 C 213.480469 137.65625 212.777344 138.367188 211.90625 138.367188 Z M 212.625 118.007812 C 212.402344 117.164062 212.898438 116.300781 213.742188 116.070312 L 216.355469 115.371094 C 217.195312 115.144531 218.058594 115.644531 218.285156 116.488281 C 218.507812 117.332031 218.011719 118.199219 217.167969 118.425781 L 214.558594 119.125 C 213.71875 119.347656 212.851562 118.855469 212.625 118.007812 Z M 212.625 118.007812 " fill-opacity="1" fill-rule="evenodd"/><g clip-path="url(#7bfc1c8988)"><path fill="#fdc0b1" d="M 248.707031 169.121094 C 250.011719 169.753906 250.195312 171.433594 250.195312 172.726562 L 250.195312 173.628906 C 250.195312 175.429688 249.023438 176.949219 247.285156 177.40625 L 223.511719 183.621094 C 217.277344 185.25 213.066406 190.707031 213.066406 197.167969 L 213.066406 220.152344 L 308.738281 220.152344 L 308.738281 197.167969 C 308.738281 190.710938 304.527344 185.25 298.292969 183.621094 L 274.558594 177.414062 C 272.820312 176.960938 271.644531 175.4375 271.644531 173.636719 L 271.644531 171.628906 C 271.644531 164.230469 271.425781 162.824219 276.574219 153.726562 C 281.148438 145.648438 283.226562 136.847656 277.449219 128.574219 C 273.292969 122.625 265.964844 119.675781 258.695312 119.539062 C 247.597656 119.332031 235.179688 127.066406 236.851562 139.5 C 237.117188 141.453125 238.195312 142.953125 238.152344 144.605469 C 238.125 145.691406 236.570312 147.726562 234.414062 151.035156 C 232.578125 153.882812 233.074219 154.867188 234.667969 155.507812 C 235.921875 156.015625 238.195312 156.148438 238.246094 157.898438 C 238.296875 159.695312 237.851562 163.949219 237.851562 166.019531 C 237.851562 170.003906 241.214844 170.046875 245.140625 169.707031 C 246.484375 169.527344 247.65625 169.335938 248.707031 169.125 Z M 248.707031 169.121094 " fill-opacity="1" fill-rule="evenodd"/></g><g clip-path="url(#74726ea2b0)"><path fill="#ffcec0" d="M 248.707031 169.121094 C 250.125 168.804688 250.902344 168.941406 251.535156 169.121094 C 252.875 169.71875 253.035156 171.425781 253.027344 172.726562 L 253.027344 173.628906 C 253.027344 175.429688 251.851562 176.949219 250.113281 177.40625 L 226.34375 183.621094 C 220.105469 185.25 215.898438 190.707031 215.898438 197.167969 L 215.898438 220.152344 L 308.738281 220.152344 L 308.738281 197.167969 C 308.738281 190.707031 304.527344 185.25 298.292969 183.621094 L 274.558594 177.414062 C 272.820312 176.960938 271.644531 175.4375 271.644531 173.636719 L 271.644531 171.628906 C 271.644531 164.230469 271.425781 162.824219 276.574219 153.726562 C 281.148438 145.648438 283.226562 136.847656 277.449219 128.570312 C 273.488281 122.898438 266.640625 119.957031 259.710938 119.578125 C 249.121094 120.1875 238.101562 127.738281 239.683594 139.5 C 239.945312 141.453125 241.023438 142.953125 240.980469 144.605469 C 240.953125 145.691406 239.398438 147.726562 237.242188 151.03125 C 235.40625 153.882812 235.902344 154.867188 237.496094 155.507812 C 238.75 156.011719 241.023438 156.148438 241.074219 157.894531 C 241.125 159.695312 240.679688 163.949219 240.679688 166.019531 C 240.679688 168.632812 242.128906 169.550781 244.234375 169.777344 C 244.53125 169.757812 244.832031 169.730469 245.140625 169.707031 C 246.484375 169.527344 247.65625 169.335938 248.707031 169.121094 Z M 248.707031 169.121094 " fill-opacity="1" fill-rule="evenodd"/></g><g clip-path="url(#881a52bf7f)"><path fill="#f4494e" d="M 299.539062 169.050781 C 298.925781 168.433594 298.925781 167.429688 299.539062 166.816406 C 300.15625 166.199219 301.15625 166.199219 301.769531 166.816406 L 305.8125 170.867188 C 306.429688 171.480469 306.429688 172.484375 305.8125 173.097656 C 305.195312 173.714844 304.199219 173.714844 303.582031 173.097656 Z M 302.964844 163.714844 C 302.09375 163.714844 301.386719 163.007812 301.386719 162.136719 C 301.386719 161.261719 302.09375 160.554688 302.964844 160.554688 L 308.769531 160.554688 C 309.640625 160.554688 310.34375 161.261719 310.34375 162.136719 C 310.34375 163.007812 309.640625 163.714844 308.769531 163.714844 Z M 301.695312 157.53125 C 301.082031 158.148438 300.082031 158.148438 299.464844 157.53125 C 298.851562 156.914062 298.851562 155.914062 299.464844 155.296875 L 303.582031 151.171875 C 304.199219 150.554688 305.195312 150.554688 305.8125 151.171875 C 306.429688 151.789062 306.429688 152.789062 305.8125 153.40625 Z M 296.449219 153.929688 C 296.449219 154.800781 295.742188 155.507812 294.871094 155.507812 C 294 155.507812 293.292969 154.800781 293.292969 153.929688 L 293.292969 148.210938 C 293.292969 147.339844 294 146.632812 294.871094 146.632812 C 295.742188 146.632812 296.449219 147.339844 296.449219 148.210938 Z M 290.152344 155.175781 C 290.769531 155.789062 290.769531 156.792969 290.152344 157.410156 C 289.539062 158.027344 288.539062 158.027344 287.921875 157.410156 L 283.929688 153.40625 C 283.316406 152.789062 283.316406 151.789062 283.929688 151.171875 C 284.546875 150.554688 285.542969 150.554688 286.160156 151.171875 Z M 286.730469 160.554688 C 287.601562 160.554688 288.304688 161.261719 288.304688 162.136719 C 288.304688 163.007812 287.601562 163.714844 286.730469 163.714844 L 280.976562 163.714844 C 280.105469 163.714844 279.398438 163.007812 279.398438 162.136719 C 279.398438 161.261719 280.105469 160.554688 280.976562 160.554688 Z M 288.023438 166.765625 C 288.636719 166.148438 289.636719 166.148438 290.25 166.765625 C 290.867188 167.382812 290.867188 168.382812 290.25 169 L 286.160156 173.097656 C 285.542969 173.714844 284.546875 173.714844 283.929688 173.097656 C 283.3125 172.480469 283.3125 171.480469 283.929688 170.863281 Z M 293.292969 170.292969 C 293.292969 169.421875 294 168.714844 294.871094 168.714844 C 295.742188 168.714844 296.449219 169.421875 296.449219 170.292969 L 296.449219 176.058594 C 296.449219 176.933594 295.742188 177.640625 294.871094 177.640625 C 294 177.640625 293.292969 176.933594 293.292969 176.058594 Z M 293.292969 170.292969 " fill-opacity="1" fill-rule="evenodd"/></g><path fill="#e8333c" d="M 217.351562 101.777344 C 217.832031 101.890625 218.277344 102.09375 218.679688 102.382812 C 219.082031 102.675781 219.414062 103.03125 219.675781 103.453125 C 219.9375 103.878906 220.105469 104.335938 220.1875 104.828125 C 220.265625 105.316406 220.25 105.804688 220.132812 106.289062 C 220.019531 106.773438 219.816406 107.21875 219.527344 107.621094 C 219.238281 108.027344 218.882812 108.359375 218.457031 108.621094 C 218.035156 108.882812 217.578125 109.050781 217.089844 109.132812 C 216.597656 109.210938 216.113281 109.195312 215.628906 109.082031 C 215.144531 108.964844 214.703125 108.761719 214.300781 108.472656 C 213.898438 108.179688 213.566406 107.824219 213.304688 107.402344 C 213.042969 106.976562 212.871094 106.519531 212.792969 106.027344 C 212.714844 105.539062 212.730469 105.050781 212.84375 104.566406 C 212.957031 104.082031 213.160156 103.636719 213.449219 103.234375 C 213.742188 102.828125 214.097656 102.496094 214.519531 102.234375 C 214.941406 101.972656 215.398438 101.804688 215.890625 101.722656 C 216.378906 101.644531 216.867188 101.660156 217.351562 101.777344 Z M 217.351562 101.777344 " fill-opacity="1" fill-rule="nonzero"/><path fill="#e8333c" d="M 221.652344 122.265625 C 222.136719 122.378906 222.578125 122.582031 222.980469 122.871094 C 223.386719 123.164062 223.71875 123.519531 223.976562 123.941406 C 224.238281 124.367188 224.410156 124.824219 224.488281 125.316406 C 224.570312 125.804688 224.550781 126.292969 224.4375 126.777344 C 224.324219 127.261719 224.121094 127.707031 223.832031 128.109375 C 223.539062 128.515625 223.183594 128.847656 222.761719 129.109375 C 222.339844 129.371094 221.882812 129.539062 221.390625 129.621094 C 220.902344 129.699219 220.414062 129.683594 219.929688 129.570312 C 219.449219 129.453125 219.003906 129.25 218.601562 128.960938 C 218.199219 128.667969 217.867188 128.3125 217.605469 127.890625 C 217.34375 127.464844 217.175781 127.007812 217.09375 126.515625 C 217.015625 126.027344 217.03125 125.539062 217.148438 125.054688 C 217.261719 124.570312 217.464844 124.125 217.753906 123.722656 C 218.042969 123.316406 218.402344 122.984375 218.824219 122.722656 C 219.246094 122.460938 219.703125 122.292969 220.191406 122.210938 C 220.683594 122.132812 221.167969 122.148438 221.652344 122.265625 Z M 221.652344 122.265625 " fill-opacity="1" fill-rule="nonzero"/><path fill="#e8333c" d="M 194.84375 109.339844 C 195.195312 109.691406 195.464844 110.097656 195.652344 110.554688 C 195.84375 111.015625 195.9375 111.496094 195.9375 111.992188 C 195.9375 112.488281 195.84375 112.96875 195.652344 113.429688 C 195.464844 113.886719 195.195312 114.292969 194.84375 114.644531 C 194.492188 114.996094 194.085938 115.269531 193.628906 115.457031 C 193.167969 115.648438 192.691406 115.746094 192.195312 115.746094 C 191.695312 115.746094 191.21875 115.648438 190.761719 115.457031 C 190.300781 115.269531 189.898438 114.996094 189.546875 114.644531 C 189.195312 114.292969 188.921875 113.886719 188.734375 113.429688 C 188.542969 112.96875 188.449219 112.488281 188.449219 111.992188 C 188.449219 111.496094 188.542969 111.015625 188.734375 110.554688 C 188.921875 110.097656 189.195312 109.691406 189.546875 109.339844 C 189.898438 108.984375 190.300781 108.714844 190.761719 108.523438 C 191.21875 108.335938 191.695312 108.238281 192.195312 108.238281 C 192.691406 108.238281 193.167969 108.335938 193.628906 108.523438 C 194.085938 108.714844 194.492188 108.984375 194.84375 109.339844 Z M 194.84375 109.339844 " fill-opacity="1" fill-rule="nonzero"/><path fill="#ff6161" d="M 215.800781 109.117188 C 214.058594 108.792969 212.742188 107.265625 212.742188 105.429688 C 212.742188 103.589844 214.058594 102.0625 215.800781 101.738281 C 217.539062 102.0625 218.855469 103.589844 218.855469 105.429688 C 218.855469 107.265625 217.539062 108.792969 215.800781 109.117188 Z M 215.800781 109.117188 " fill-opacity="1" fill-rule="evenodd"/><path fill="#ff6161" d="M 220.101562 129.605469 C 218.363281 129.28125 217.046875 127.753906 217.046875 125.917969 C 217.046875 124.082031 218.363281 122.550781 220.101562 122.226562 C 221.839844 122.550781 223.15625 124.082031 223.15625 125.917969 C 223.15625 127.753906 221.839844 129.28125 220.101562 129.605469 Z M 220.101562 129.605469 " fill-opacity="1" fill-rule="evenodd"/><path fill="#ff6161" d="M 191.503906 115.679688 C 189.765625 115.355469 188.449219 113.828125 188.449219 111.992188 C 188.449219 110.15625 189.765625 108.628906 191.503906 108.300781 C 193.242188 108.628906 194.558594 110.15625 194.558594 111.992188 C 194.558594 113.828125 193.242188 115.355469 191.503906 115.679688 Z M 191.503906 115.679688 " fill-opacity="1" fill-rule="evenodd"/><path fill="#ff9494" d="M 251.710938 156.507812 C 250.871094 156.730469 250.007812 156.230469 249.78125 155.390625 C 249.558594 154.546875 250.058594 153.683594 250.898438 153.457031 L 253.511719 152.757812 C 254.351562 152.53125 255.214844 153.03125 255.4375 153.875 C 255.664062 154.714844 255.164062 155.582031 254.324219 155.804688 Z M 265.128906 212.101562 C 265.128906 212.972656 264.421875 213.679688 263.550781 213.679688 C 262.679688 213.679688 261.972656 212.972656 261.972656 212.101562 L 261.972656 209.390625 C 261.972656 208.519531 262.679688 207.8125 263.550781 207.8125 C 264.421875 207.8125 265.128906 208.519531 265.128906 209.390625 Z M 265.355469 184.484375 C 264.605469 184.914062 263.644531 184.65625 263.214844 183.902344 C 262.78125 183.148438 263.039062 182.1875 263.792969 181.753906 L 264.640625 181.261719 C 265.394531 180.832031 266.351562 181.089844 266.785156 181.84375 C 267.214844 182.597656 266.957031 183.558594 266.207031 183.992188 Z M 261.480469 192.007812 C 261.480469 192.878906 260.773438 193.585938 259.902344 193.585938 C 259.03125 193.585938 258.328125 192.878906 258.328125 192.007812 L 258.328125 191.023438 C 258.328125 190.152344 259.03125 189.445312 259.902344 189.445312 C 260.773438 189.445312 261.480469 190.152344 261.480469 191.023438 Z M 243.246094 186.476562 C 243.246094 187.347656 242.542969 188.054688 241.671875 188.054688 C 240.800781 188.054688 240.09375 187.347656 240.09375 186.476562 L 240.09375 185.496094 C 240.09375 184.621094 240.800781 183.914062 241.671875 183.914062 C 242.542969 183.914062 243.246094 184.621094 243.246094 185.496094 Z M 224.1875 194.445312 C 225.03125 194.671875 225.527344 195.535156 225.304688 196.378906 C 225.078125 197.21875 224.214844 197.71875 223.375 197.496094 L 220.761719 196.792969 C 219.921875 196.566406 219.425781 195.703125 219.648438 194.859375 C 219.871094 194.019531 220.738281 193.519531 221.578125 193.742188 Z M 227.050781 214.949219 C 226.4375 214.332031 226.4375 213.332031 227.050781 212.714844 C 227.667969 212.097656 228.664062 212.097656 229.28125 212.714844 L 230.238281 213.675781 C 230.855469 214.292969 230.855469 215.292969 230.238281 215.910156 C 229.621094 216.527344 228.625 216.527344 228.007812 215.910156 Z M 220.21875 202.253906 C 220.652344 201.5 221.617188 201.242188 222.367188 201.679688 C 223.121094 202.113281 223.375 203.078125 222.941406 203.832031 L 222.378906 204.808594 C 221.941406 205.5625 220.980469 205.820312 220.226562 205.382812 C 219.476562 204.949219 219.21875 203.984375 219.65625 203.230469 Z M 255.5625 183.238281 C 256.3125 183.671875 256.570312 184.632812 256.140625 185.386719 C 255.707031 186.140625 254.75 186.398438 253.996094 185.964844 L 253.148438 185.476562 C 252.394531 185.042969 252.136719 184.082031 252.570312 183.328125 C 253 182.574219 253.960938 182.316406 254.710938 182.746094 Z M 231.734375 197.046875 C 232.167969 196.292969 233.132812 196.035156 233.882812 196.472656 C 234.636719 196.910156 234.890625 197.871094 234.457031 198.625 L 233.894531 199.605469 C 233.457031 200.359375 232.496094 200.613281 231.742188 200.179688 C 230.992188 199.742188 230.734375 198.777344 231.171875 198.023438 Z M 251.144531 214.285156 C 251.984375 214.507812 252.484375 215.375 252.257812 216.214844 C 252.035156 217.058594 251.171875 217.558594 250.332031 217.332031 L 249.242188 217.039062 C 248.402344 216.816406 247.902344 215.949219 248.125 215.109375 C 248.351562 214.265625 249.214844 213.765625 250.054688 213.992188 Z M 247.761719 206.171875 C 247.761719 207.042969 247.054688 207.75 246.183594 207.75 C 245.3125 207.75 244.605469 207.042969 244.605469 206.171875 L 244.605469 205.1875 C 244.605469 204.316406 245.3125 203.609375 246.183594 203.609375 C 247.054688 203.609375 247.761719 204.316406 247.761719 205.1875 Z M 221.988281 214.4375 C 221.988281 215.3125 221.28125 216.019531 220.410156 216.019531 C 219.539062 216.019531 218.832031 215.3125 218.832031 214.4375 L 218.832031 211.726562 C 218.832031 210.855469 219.539062 210.148438 220.410156 210.148438 C 221.28125 210.148438 221.988281 210.855469 221.988281 211.726562 Z M 235.125 206.933594 C 235.558594 206.179688 236.519531 205.917969 237.269531 206.351562 C 238.023438 206.785156 238.28125 207.746094 237.847656 208.5 L 237.171875 209.671875 C 236.742188 210.425781 235.78125 210.6875 235.03125 210.253906 C 234.277344 209.820312 234.019531 208.859375 234.449219 208.105469 Z M 254.890625 196.3125 C 255.730469 196.535156 256.230469 197.402344 256.003906 198.242188 C 255.78125 199.085938 254.917969 199.585938 254.078125 199.359375 L 251.464844 198.660156 C 250.625 198.433594 250.125 197.570312 250.347656 196.726562 C 250.574219 195.886719 251.4375 195.386719 252.277344 195.609375 Z M 280.898438 186.476562 C 280.898438 187.347656 280.191406 188.054688 279.320312 188.054688 C 278.449219 188.054688 277.742188 187.347656 277.742188 186.476562 L 277.742188 185.496094 C 277.742188 184.621094 278.449219 183.914062 279.320312 183.914062 C 280.191406 183.914062 280.898438 184.621094 280.898438 185.496094 Z M 287.191406 188.128906 C 287.808594 187.511719 288.804688 187.511719 289.421875 188.128906 C 290.039062 188.746094 290.039062 189.746094 289.421875 190.363281 L 288.625 191.160156 C 288.007812 191.777344 287.011719 191.777344 286.394531 191.160156 C 285.78125 190.542969 285.78125 189.542969 286.394531 188.925781 Z M 297.613281 197.496094 C 296.773438 197.71875 295.910156 197.21875 295.6875 196.378906 C 295.460938 195.535156 295.960938 194.671875 296.800781 194.445312 L 299.414062 193.742188 C 300.253906 193.519531 301.117188 194.019531 301.34375 194.859375 C 301.566406 195.703125 301.066406 196.566406 300.226562 196.792969 Z M 291.808594 213.734375 C 292.421875 213.117188 293.421875 213.117188 294.035156 213.734375 C 294.652344 214.351562 294.652344 215.351562 294.035156 215.96875 L 293.082031 216.925781 C 292.464844 217.542969 291.464844 217.542969 290.851562 216.925781 C 290.234375 216.308594 290.234375 215.308594 290.851562 214.691406 Z M 298.050781 203.832031 C 297.613281 203.078125 297.871094 202.113281 298.621094 201.675781 C 299.375 201.242188 300.335938 201.5 300.773438 202.25 L 301.335938 203.230469 C 301.773438 203.984375 301.515625 204.949219 300.761719 205.382812 C 300.011719 205.820312 299.050781 205.5625 298.613281 204.808594 Z M 282.476562 199.757812 C 281.726562 200.1875 280.765625 199.929688 280.332031 199.175781 C 279.902344 198.421875 280.160156 197.460938 280.914062 197.027344 L 281.761719 196.539062 C 282.511719 196.105469 283.472656 196.363281 283.90625 197.117188 C 284.335938 197.871094 284.078125 198.832031 283.324219 199.265625 Z M 288.308594 203.859375 C 287.871094 203.105469 288.128906 202.140625 288.878906 201.703125 C 289.632812 201.269531 290.59375 201.523438 291.03125 202.277344 L 291.59375 203.257812 C 292.027344 204.007812 291.773438 204.972656 291.019531 205.410156 C 290.269531 205.847656 289.304688 205.589844 288.871094 204.835938 Z M 274.105469 216.242188 C 273.261719 216.46875 272.398438 215.96875 272.175781 215.125 C 271.949219 214.28125 272.449219 213.417969 273.289062 213.191406 L 274.378906 212.902344 C 275.21875 212.675781 276.082031 213.175781 276.308594 214.019531 C 276.53125 214.859375 276.03125 215.726562 275.191406 215.949219 Z M 276.382812 206.171875 C 276.382812 207.042969 275.675781 207.75 274.808594 207.75 C 273.9375 207.75 273.230469 207.042969 273.230469 206.171875 L 273.230469 205.1875 C 273.230469 204.316406 273.9375 203.609375 274.808594 203.609375 C 275.675781 203.609375 276.382812 204.316406 276.382812 205.1875 Z M 302.15625 214.4375 C 302.15625 215.308594 301.449219 216.015625 300.578125 216.015625 C 299.710938 216.015625 299.003906 215.308594 299.003906 214.4375 L 299.003906 211.726562 C 299.003906 210.855469 299.710938 210.148438 300.578125 210.148438 C 301.449219 210.148438 302.15625 210.855469 302.15625 211.726562 Z M 282.992188 211.316406 C 282.558594 210.5625 282.820312 209.601562 283.570312 209.167969 C 284.324219 208.734375 285.28125 208.996094 285.714844 209.746094 L 286.390625 210.921875 C 286.824219 211.675781 286.5625 212.636719 285.8125 213.070312 C 285.058594 213.503906 284.101562 213.242188 283.667969 212.488281 Z M 227.804688 190.039062 C 227.371094 189.285156 227.625 188.320312 228.378906 187.882812 C 229.128906 187.449219 230.09375 187.703125 230.527344 188.457031 L 231.089844 189.4375 C 231.527344 190.1875 231.269531 191.152344 230.519531 191.589844 C 229.765625 192.027344 228.804688 191.769531 228.367188 191.015625 Z M 240.800781 194.371094 C 240.367188 193.617188 240.628906 192.65625 241.378906 192.222656 C 242.132812 191.789062 243.089844 192.050781 243.523438 192.804688 L 244.875 195.152344 C 245.308594 195.90625 245.046875 196.867188 244.296875 197.300781 C 243.542969 197.730469 242.585938 197.472656 242.152344 196.71875 Z M 270.253906 192.292969 C 270.027344 191.449219 270.527344 190.585938 271.367188 190.359375 C 272.207031 190.132812 273.070312 190.632812 273.296875 191.476562 L 273.996094 194.09375 C 274.21875 194.9375 273.722656 195.800781 272.882812 196.027344 C 272.039062 196.25 271.175781 195.75 270.953125 194.910156 Z M 263.144531 202.320312 C 262.304688 202.546875 261.441406 202.046875 261.214844 201.203125 C 260.992188 200.363281 261.492188 199.496094 262.332031 199.273438 L 264.945312 198.570312 C 265.785156 198.34375 266.648438 198.847656 266.871094 199.6875 C 267.097656 200.53125 266.597656 201.394531 265.757812 201.621094 Z M 255.589844 162.59375 C 256.207031 161.976562 257.203125 161.976562 257.820312 162.59375 C 258.433594 163.210938 258.433594 164.210938 257.820312 164.828125 L 257.023438 165.628906 C 256.40625 166.246094 255.410156 166.246094 254.792969 165.628906 C 254.175781 165.011719 254.175781 164.011719 254.792969 163.394531 Z M 261.394531 170.980469 C 260.554688 171.203125 259.691406 170.703125 259.464844 169.863281 C 259.242188 169.019531 259.738281 168.15625 260.582031 167.929688 L 263.191406 167.226562 C 264.03125 167.003906 264.894531 167.503906 265.121094 168.34375 C 265.34375 169.1875 264.847656 170.050781 264.007812 170.277344 L 261.394531 170.976562 Z M 254.5625 175.375 C 254.128906 174.621094 254.386719 173.65625 255.136719 173.21875 C 255.890625 172.785156 256.851562 173.039062 257.289062 173.792969 L 257.851562 174.773438 C 258.285156 175.523438 258.03125 176.488281 257.277344 176.925781 C 256.527344 177.363281 255.5625 177.105469 255.128906 176.351562 Z M 263.449219 135.976562 C 263.011719 135.222656 263.269531 134.257812 264.023438 133.820312 C 264.773438 133.386719 265.734375 133.640625 266.171875 134.394531 L 266.734375 135.371094 C 267.171875 136.125 266.914062 137.089844 266.164062 137.527344 C 265.410156 137.964844 264.449219 137.707031 264.011719 136.953125 Z M 262.054688 147.882812 C 262.671875 147.265625 263.667969 147.265625 264.285156 147.882812 C 264.902344 148.5 264.902344 149.5 264.285156 150.117188 L 263.328125 151.074219 C 262.714844 151.691406 261.714844 151.691406 261.097656 151.074219 C 260.484375 150.457031 260.484375 149.457031 261.097656 148.839844 Z M 269.347656 135.277344 C 268.914062 134.527344 269.167969 133.5625 269.921875 133.125 C 270.671875 132.6875 271.636719 132.945312 272.070312 133.699219 L 272.636719 134.675781 C 273.070312 135.429688 272.8125 136.394531 272.0625 136.832031 C 271.308594 137.269531 270.347656 137.011719 269.914062 136.257812 Z M 253.777344 131.203125 C 253.023438 131.636719 252.0625 131.375 251.632812 130.625 C 251.199219 129.871094 251.460938 128.910156 252.210938 128.476562 L 253.058594 127.984375 C 253.8125 127.550781 254.773438 127.8125 255.203125 128.566406 C 255.636719 129.316406 255.375 130.28125 254.625 130.714844 Z M 260.984375 129.753906 C 260.550781 129 260.804688 128.035156 261.558594 127.597656 C 262.308594 127.164062 263.273438 127.421875 263.707031 128.171875 L 264.269531 129.152344 C 264.707031 129.90625 264.449219 130.867188 263.699219 131.304688 C 262.945312 131.742188 261.984375 131.484375 261.546875 130.730469 Z M 263.054688 158.691406 C 262.621094 157.9375 262.875 156.972656 263.628906 156.535156 C 264.378906 156.097656 265.34375 156.355469 265.777344 157.109375 L 266.339844 158.085938 C 266.777344 158.839844 266.519531 159.804688 265.769531 160.242188 C 265.015625 160.679688 264.054688 160.421875 263.617188 159.667969 Z M 245.742188 162.4375 C 245.304688 161.683594 245.5625 160.71875 246.3125 160.28125 C 247.066406 159.84375 248.027344 160.101562 248.464844 160.855469 L 249.027344 161.832031 C 249.464844 162.585938 249.207031 163.550781 248.453125 163.988281 C 247.703125 164.425781 246.738281 164.167969 246.304688 163.414062 Z M 243.601562 149.632812 C 242.757812 149.859375 241.894531 149.359375 241.671875 148.515625 C 241.445312 147.675781 241.945312 146.808594 242.785156 146.585938 L 243.875 146.292969 C 244.714844 146.066406 245.578125 146.566406 245.804688 147.410156 C 246.027344 148.25 245.527344 149.117188 244.6875 149.339844 Z M 247.683594 137.617188 C 247.683594 138.492188 246.976562 139.199219 246.105469 139.199219 C 245.234375 139.199219 244.527344 138.492188 244.527344 137.617188 L 244.527344 136.636719 C 244.527344 135.761719 245.234375 135.054688 246.105469 135.054688 C 246.976562 135.054688 247.683594 135.761719 247.683594 136.636719 Z M 273.457031 145.886719 C 273.457031 146.757812 272.75 147.464844 271.878906 147.464844 C 271.007812 147.464844 270.300781 146.757812 270.300781 145.886719 L 270.300781 143.175781 C 270.300781 142.300781 271.007812 141.59375 271.878906 141.59375 C 272.75 141.59375 273.457031 142.300781 273.457031 143.175781 Z M 254.289062 142.761719 C 253.859375 142.011719 254.117188 141.046875 254.871094 140.613281 C 255.621094 140.183594 256.582031 140.441406 257.011719 141.195312 L 257.691406 142.367188 C 258.121094 143.121094 257.863281 144.082031 257.109375 144.515625 C 256.359375 144.949219 255.398438 144.691406 254.96875 143.9375 Z M 254.289062 142.761719 " fill-opacity="1" fill-rule="evenodd"/><path fill="#ff6161" d="M 296.453125 152.371094 C 297.089844 152.476562 297.714844 152.640625 298.320312 152.867188 C 298.929688 153.097656 299.507812 153.378906 300.058594 153.722656 C 300.613281 154.0625 301.125 154.453125 301.597656 154.898438 C 302.074219 155.339844 302.5 155.824219 302.878906 156.351562 C 303.257812 156.878906 303.582031 157.4375 303.851562 158.027344 C 304.121094 158.621094 304.328125 159.230469 304.476562 159.863281 C 304.625 160.496094 304.714844 161.136719 304.734375 161.785156 C 304.757812 162.433594 304.71875 163.078125 304.613281 163.71875 C 304.511719 164.359375 304.34375 164.984375 304.117188 165.59375 C 303.890625 166.203125 303.609375 166.78125 303.269531 167.335938 C 302.925781 167.886719 302.535156 168.402344 302.09375 168.878906 C 301.652344 169.351562 301.167969 169.78125 300.640625 170.160156 C 300.117188 170.539062 299.558594 170.863281 298.96875 171.132812 C 298.378906 171.402344 297.769531 171.613281 297.136719 171.761719 C 296.507812 171.910156 295.867188 171.996094 295.21875 172.019531 C 294.574219 172.042969 293.929688 172.003906 293.289062 171.898438 C 292.648438 171.796875 292.027344 171.628906 291.417969 171.402344 C 290.8125 171.175781 290.230469 170.890625 289.679688 170.550781 C 289.128906 170.207031 288.617188 169.816406 288.140625 169.375 C 287.667969 168.929688 287.242188 168.445312 286.863281 167.917969 C 286.484375 167.390625 286.160156 166.832031 285.890625 166.242188 C 285.621094 165.652344 285.410156 165.039062 285.261719 164.40625 C 285.113281 163.777344 285.027344 163.136719 285.003906 162.488281 C 284.980469 161.835938 285.023438 161.191406 285.125 160.550781 C 285.230469 159.910156 285.394531 159.285156 285.621094 158.675781 C 285.847656 158.070312 286.132812 157.488281 286.472656 156.933594 C 286.8125 156.382812 287.207031 155.867188 287.648438 155.394531 C 288.089844 154.917969 288.574219 154.492188 289.097656 154.113281 C 289.625 153.730469 290.183594 153.40625 290.773438 153.136719 C 291.359375 152.867188 291.972656 152.65625 292.601562 152.507812 C 293.234375 152.359375 293.871094 152.273438 294.519531 152.25 C 295.167969 152.226562 295.8125 152.269531 296.453125 152.371094 Z M 296.453125 152.371094 " fill-opacity="1" fill-rule="nonzero"/><path fill="#ff7373" d="M 294.328125 172.011719 C 289.128906 171.730469 285 167.417969 285 162.136719 C 285 156.855469 289.128906 152.542969 294.328125 152.261719 C 299.527344 152.542969 303.660156 156.855469 303.660156 162.136719 C 303.660156 167.417969 299.527344 171.730469 294.328125 172.011719 Z M 294.328125 172.011719 " fill-opacity="1" fill-rule="evenodd"/><path fill="#d92730" d="M 292.214844 161.140625 C 291.433594 161.824219 290.25 161.746094 289.570312 160.964844 C 288.886719 160.183594 288.96875 159 289.746094 158.316406 L 290.480469 157.675781 C 291.257812 156.992188 292.441406 157.070312 293.125 157.851562 C 293.804688 158.628906 293.726562 159.816406 292.949219 160.5 Z M 301.382812 163.179688 C 301.121094 164.183594 300.09375 164.78125 299.09375 164.519531 C 298.089844 164.253906 297.492188 163.226562 297.757812 162.222656 C 297.882812 161.75 297.929688 161.320312 297.835938 160.988281 C 297.765625 160.742188 297.574219 160.496094 297.199219 160.261719 C 296.316406 159.714844 296.046875 158.554688 296.59375 157.671875 C 297.144531 156.789062 298.300781 156.519531 299.179688 157.070312 C 300.433594 157.851562 301.132812 158.855469 301.449219 159.988281 C 301.742188 161.035156 301.664062 162.113281 301.382812 163.179688 Z M 295.113281 165.71875 C 295.339844 166.730469 294.703125 167.738281 293.695312 167.964844 C 292.683594 168.191406 291.683594 167.554688 291.453125 166.542969 L 291.386719 166.242188 C 291.160156 165.230469 291.792969 164.226562 292.804688 164 C 293.8125 163.773438 294.816406 164.40625 295.042969 165.417969 Z M 295.113281 165.71875 " fill-opacity="1" fill-rule="evenodd"/><path fill="#e8333c" d="M 290.535156 161.554688 C 290.175781 161.464844 289.835938 161.269531 289.570312 160.964844 C 288.886719 160.183594 288.96875 159 289.746094 158.316406 L 290.480469 157.675781 C 290.714844 157.46875 290.988281 157.332031 291.269531 157.261719 C 291.632812 157.351562 291.972656 157.546875 292.238281 157.851562 C 292.917969 158.628906 292.839844 159.816406 292.0625 160.5 L 291.328125 161.140625 C 291.09375 161.347656 290.820312 161.484375 290.535156 161.554688 Z M 300.496094 163.179688 C 300.316406 163.871094 299.773438 164.367188 299.128906 164.527344 L 299.09375 164.519531 C 298.089844 164.253906 297.492188 163.226562 297.757812 162.222656 C 297.882812 161.75 297.929688 161.320312 297.835938 160.988281 C 297.765625 160.742188 297.574219 160.496094 297.199219 160.261719 C 296.316406 159.714844 296.046875 158.554688 296.59375 157.671875 C 296.867188 157.234375 297.285156 156.949219 297.746094 156.835938 C 297.933594 156.882812 298.121094 156.960938 298.292969 157.070312 C 299.546875 157.851562 300.246094 158.855469 300.5625 159.988281 C 300.855469 161.035156 300.777344 162.113281 300.496094 163.179688 Z M 294.222656 165.71875 C 294.449219 166.722656 293.828125 167.714844 292.839844 167.957031 C 292.167969 167.792969 291.617188 167.261719 291.453125 166.542969 L 291.386719 166.242188 C 291.160156 165.242188 291.78125 164.246094 292.773438 164.007812 C 293.441406 164.171875 293.996094 164.699219 294.15625 165.417969 Z M 294.222656 165.71875 " fill-opacity="1" fill-rule="evenodd"/><path fill="#f4494e" d="M 203.859375 157.863281 C 203.859375 158.734375 203.152344 159.441406 202.28125 159.441406 C 201.410156 159.441406 200.703125 158.734375 200.703125 157.863281 L 200.703125 151.371094 C 200.703125 150.5 201.410156 149.789062 202.28125 149.789062 C 203.152344 149.789062 203.859375 150.5 203.859375 151.371094 Z M 209.671875 161.582031 C 209.054688 162.199219 208.058594 162.199219 207.441406 161.582031 C 206.828125 160.964844 206.828125 159.964844 207.441406 159.347656 L 212.023438 154.761719 C 212.636719 154.144531 213.636719 154.144531 214.253906 154.761719 C 214.867188 155.375 214.867188 156.378906 214.253906 156.992188 Z M 211.15625 168.335938 C 210.285156 168.335938 209.578125 167.628906 209.578125 166.753906 C 209.578125 165.882812 210.285156 165.175781 211.15625 165.175781 L 217.632812 165.175781 C 218.503906 165.175781 219.210938 165.882812 219.210938 166.753906 C 219.210938 167.628906 218.503906 168.335938 217.632812 168.335938 Z M 207.441406 174.160156 C 206.828125 173.542969 206.828125 172.542969 207.441406 171.925781 C 208.058594 171.308594 209.054688 171.308594 209.671875 171.925781 L 214.253906 176.515625 C 214.867188 177.132812 214.867188 178.132812 214.253906 178.75 C 213.636719 179.367188 212.636719 179.367188 212.023438 178.75 Z M 200.703125 175.648438 C 200.703125 174.777344 201.410156 174.070312 202.28125 174.070312 C 203.152344 174.070312 203.859375 174.777344 203.859375 175.648438 L 203.859375 182.140625 C 203.859375 183.011719 203.152344 183.71875 202.28125 183.71875 C 201.410156 183.71875 200.703125 183.011719 200.703125 182.140625 Z M 194.890625 171.925781 C 195.503906 171.308594 196.503906 171.308594 197.121094 171.925781 C 197.734375 172.542969 197.734375 173.542969 197.121094 174.160156 L 192.539062 178.75 C 191.921875 179.367188 190.925781 179.367188 190.308594 178.75 C 189.691406 178.132812 189.691406 177.132812 190.308594 176.515625 Z M 193.40625 165.175781 C 194.277344 165.175781 194.980469 165.882812 194.980469 166.753906 C 194.980469 167.628906 194.277344 168.335938 193.40625 168.335938 L 186.925781 168.335938 C 186.054688 168.335938 185.351562 167.628906 185.351562 166.753906 C 185.351562 165.882812 186.054688 165.175781 186.925781 165.175781 Z M 197.121094 159.347656 C 197.734375 159.964844 197.734375 160.96875 197.121094 161.582031 C 196.503906 162.199219 195.503906 162.199219 194.890625 161.582031 L 190.308594 156.992188 C 189.691406 156.378906 189.691406 155.375 190.308594 154.761719 C 190.925781 154.144531 191.921875 154.144531 192.539062 154.761719 Z M 197.121094 159.347656 " fill-opacity="1" fill-rule="evenodd"/><path fill="#f4494e" d="M 205.09375 156.238281 C 210.890625 157.792969 214.332031 163.765625 212.777344 169.574219 C 211.222656 175.382812 205.265625 178.828125 199.46875 177.273438 C 193.671875 175.714844 190.230469 169.746094 191.785156 163.9375 C 193.335938 158.128906 199.296875 154.679688 205.09375 156.238281 Z M 205.09375 156.238281 " fill-opacity="1" fill-rule="evenodd"/><path fill="#ff7373" d="M 198.667969 177.023438 C 193.359375 175.15625 190.304688 169.472656 191.785156 163.9375 C 193.265625 158.402344 198.746094 155.011719 204.277344 156.050781 C 209.582031 157.921875 212.640625 163.601562 211.160156 169.140625 C 209.679688 174.675781 204.195312 178.066406 198.667969 177.023438 Z M 198.667969 177.023438 " fill-opacity="1" fill-rule="evenodd"/><path fill="#d92730" d="M 203.511719 163.71875 C 202.835938 162.945312 202.914062 161.773438 203.683594 161.097656 C 204.457031 160.421875 205.628906 160.5 206.300781 161.273438 L 207.003906 162.078125 C 207.675781 162.847656 207.597656 164.023438 206.828125 164.699219 C 206.058594 165.375 204.886719 165.296875 204.210938 164.523438 Z M 201.1875 173.710938 C 200.195312 173.449219 199.605469 172.429688 199.863281 171.4375 C 200.125 170.445312 201.140625 169.851562 202.132812 170.113281 C 202.679688 170.257812 203.183594 170.308594 203.582031 170.199219 C 203.898438 170.109375 204.203125 169.871094 204.488281 169.414062 C 205.03125 168.539062 206.175781 168.273438 207.046875 168.816406 C 207.921875 169.359375 208.1875 170.507812 207.644531 171.378906 C 206.816406 172.707031 205.761719 173.449219 204.570312 173.78125 C 203.464844 174.089844 202.320312 174.007812 201.1875 173.710938 Z M 198.324219 166.832031 C 197.324219 167.058594 196.332031 166.429688 196.105469 165.429688 C 195.882812 164.425781 196.507812 163.429688 197.507812 163.207031 L 197.835938 163.132812 C 198.835938 162.90625 199.828125 163.535156 200.054688 164.535156 C 200.277344 165.539062 199.652344 166.535156 198.652344 166.757812 Z M 198.324219 166.832031 " fill-opacity="1" fill-rule="evenodd"/><path fill="#e8333c" d="M 203.089844 162.113281 C 203.171875 161.730469 203.371094 161.371094 203.683594 161.097656 C 204.457031 160.421875 205.628906 160.5 206.300781 161.273438 L 207.003906 162.078125 C 207.21875 162.324219 207.359375 162.617188 207.421875 162.917969 C 207.34375 163.296875 207.144531 163.65625 206.828125 163.933594 C 206.058594 164.609375 204.886719 164.53125 204.210938 163.757812 L 203.511719 162.953125 C 203.292969 162.703125 203.152344 162.414062 203.089844 162.113281 Z M 201.1875 172.945312 C 200.484375 172.757812 199.984375 172.195312 199.84375 171.527344 C 199.851562 171.496094 199.855469 171.46875 199.867188 171.4375 C 200.125 170.441406 201.140625 169.851562 202.132812 170.109375 C 202.679688 170.253906 203.183594 170.308594 203.582031 170.199219 C 203.898438 170.109375 204.207031 169.871094 204.488281 169.414062 C 205.03125 168.539062 206.175781 168.273438 207.050781 168.816406 C 207.496094 169.097656 207.785156 169.535156 207.886719 170.015625 C 207.84375 170.222656 207.761719 170.425781 207.644531 170.613281 C 206.816406 171.945312 205.761719 172.683594 204.574219 173.015625 C 203.464844 173.324219 202.320312 173.242188 201.1875 172.945312 Z M 198.324219 166.070312 C 197.324219 166.292969 196.332031 165.664062 196.105469 164.664062 L 196.101562 164.636719 C 196.246094 163.945312 196.777344 163.371094 197.507812 163.207031 L 197.835938 163.132812 C 198.835938 162.90625 199.828125 163.535156 200.054688 164.535156 L 200.058594 164.5625 C 199.914062 165.253906 199.382812 165.828125 198.652344 165.992188 L 198.324219 166.066406 Z M 198.324219 166.070312 " fill-opacity="1" fill-rule="evenodd"/><g transform="matrix(1, 0, 0, 1, 83, 13)"><g clip-path="url(#779f1fb04e)"><g clip-path="url(#b72a249ab9)"><path fill="#ddf6ef" d="M 15.445312 1.628906 L 155.964844 1.628906 C 163.863281 1.628906 170.265625 8.03125 170.265625 15.929688 L 170.265625 44.535156 C 170.265625 52.429688 163.863281 58.835938 155.964844 58.835938 L 15.445312 58.835938 C 7.546875 58.835938 1.140625 52.429688 1.140625 44.535156 L 1.140625 15.929688 C 1.140625 8.03125 7.546875 1.628906 15.445312 1.628906 Z M 15.445312 1.628906 " fill-opacity="1" fill-rule="nonzero"/></g><g fill="#02bdc0" fill-opacity="1"><g transform="translate(14.941413, 43.253826)"><g><path d="M 2.765625 0 L 2.765625 -18.875 L 2.0625 -22.328125 L 2.765625 -24.390625 L 8.3125 -24.390625 L 15.28125 -15 L 16.9375 -12.140625 L 17.28125 -12.140625 L 17.28125 -24.390625 L 23.8125 -24.390625 L 23.8125 -22.328125 L 23.453125 -18.875 L 23.453125 0 L 18.046875 0 L 9.390625 -12.140625 L 9.03125 -12.140625 L 9.03125 -10.078125 L 9.390625 0 Z M 2.765625 0 "/></g></g></g><g fill="#02bdc0" fill-opacity="1"><g transform="translate(40.809119, 43.253826)"><g><path d="M 2.421875 0 L 2.421875 -18.875 L 2.0625 -22.328125 L 2.421875 -24.421875 L 8.625 -24.421875 L 8.625 -15.078125 L 17.21875 -15.078125 L 17.21875 -24.421875 L 23.421875 -24.421875 L 23.421875 -11.453125 L 23.765625 -9.078125 L 23.765625 0 L 17.21875 0 L 17.21875 -9.109375 L 8.625 -9.109375 L 8.625 -7.03125 L 8.96875 0 Z M 2.421875 0 "/></g></g></g><g fill="#02bdc0" fill-opacity="1"><g transform="translate(66.642337, 43.253826)"><g><path d="M 13.078125 0.34375 C 11.609375 0.34375 10.175781 0.164062 8.78125 -0.1875 C 7.382812 -0.539062 6.128906 -1.175781 5.015625 -2.09375 C 3.898438 -3.019531 3.015625 -4.300781 2.359375 -5.9375 C 1.703125 -7.570312 1.375 -9.664062 1.375 -12.21875 C 1.375 -14.769531 1.703125 -16.859375 2.359375 -18.484375 C 3.015625 -20.117188 3.898438 -21.394531 5.015625 -22.3125 C 6.128906 -23.238281 7.382812 -23.878906 8.78125 -24.234375 C 10.175781 -24.585938 11.609375 -24.765625 13.078125 -24.765625 C 14.546875 -24.765625 15.972656 -24.582031 17.359375 -24.21875 C 18.753906 -23.851562 20.007812 -23.207031 21.125 -22.28125 C 22.238281 -21.363281 23.125 -20.085938 23.78125 -18.453125 C 24.4375 -16.828125 24.765625 -14.75 24.765625 -12.21875 C 24.765625 -9.6875 24.4375 -7.601562 23.78125 -5.96875 C 23.125 -4.332031 22.238281 -3.054688 21.125 -2.140625 C 20.007812 -1.222656 18.753906 -0.578125 17.359375 -0.203125 C 15.972656 0.160156 14.546875 0.34375 13.078125 0.34375 Z M 13.078125 -5.515625 C 14.773438 -5.515625 16.0625 -6.019531 16.9375 -7.03125 C 17.8125 -8.050781 18.25 -9.78125 18.25 -12.21875 C 18.25 -14.65625 17.8125 -16.378906 16.9375 -17.390625 C 16.0625 -18.398438 14.773438 -18.90625 13.078125 -18.90625 C 11.398438 -18.90625 10.125 -18.382812 9.25 -17.34375 C 8.375 -16.3125 7.9375 -14.601562 7.9375 -12.21875 C 7.9375 -9.820312 8.375 -8.101562 9.25 -7.0625 C 10.125 -6.03125 11.398438 -5.515625 13.078125 -5.515625 Z M 10.859375 -26.1875 L 13.140625 -32.8125 L 17.34375 -32.8125 L 17.34375 -30.703125 L 12.59375 -26.1875 Z M 10.859375 -26.1875 "/></g></g></g><g fill="#02bdc0" fill-opacity="1"><g transform="translate(92.785966, 43.253826)"><g><path d="M 2.765625 0 L 2.765625 -18.875 L 2.0625 -22.328125 L 2.796875 -24.390625 L 9.390625 -24.390625 L 16.140625 -11.28125 L 16.84375 -11.28125 L 22.421875 -24.390625 L 29.296875 -24.390625 L 29.640625 -22.328125 L 29.296875 -19.015625 L 29.296875 0 L 23.046875 0 L 23.15625 -2.9375 L 23.15625 -12.5625 L 22.765625 -12.5625 L 21.390625 -9.25 L 18.28125 -3.453125 L 14.140625 -3.453125 L 9.390625 -12.5625 L 9.03125 -12.5625 L 9.03125 -9.765625 L 9.390625 0 Z M 2.765625 0 "/></g></g></g><g fill="#02bdc0" fill-opacity="1"><g transform="translate(124.482527, 43.253826)"><g/></g></g><g fill="#02bdc0" fill-opacity="1"><g transform="translate(132.760192, 43.253826)"><g><path d="M 12.484375 0.34375 C 10.253906 0.34375 8.304688 -0.0664062 6.640625 -0.890625 C 4.972656 -1.722656 3.675781 -3.015625 2.75 -4.765625 C 1.832031 -6.515625 1.375 -8.753906 1.375 -11.484375 C 1.375 -14.035156 1.703125 -16.164062 2.359375 -17.875 C 3.015625 -19.59375 3.898438 -20.953125 5.015625 -21.953125 C 6.128906 -22.953125 7.382812 -23.671875 8.78125 -24.109375 C 10.175781 -24.546875 11.609375 -24.765625 13.078125 -24.765625 C 14.242188 -24.765625 15.382812 -24.671875 16.5 -24.484375 C 17.625 -24.304688 18.4375 -24.101562 18.9375 -23.875 L 22.078125 -21.078125 L 18.96875 -16.078125 L 13.421875 -18.9375 C 11.898438 -18.9375 10.628906 -18.503906 9.609375 -17.640625 C 8.585938 -16.785156 8.078125 -15.5625 8.078125 -13.96875 L 13.171875 -15 C 14.804688 -15 16.316406 -14.773438 17.703125 -14.328125 C 19.097656 -13.878906 20.21875 -13.109375 21.0625 -12.015625 C 21.90625 -10.929688 22.328125 -9.421875 22.328125 -7.484375 C 22.328125 -5.117188 21.503906 -3.222656 19.859375 -1.796875 C 18.210938 -0.367188 15.753906 0.34375 12.484375 0.34375 Z M 12.453125 -5.59375 C 13.515625 -5.59375 14.335938 -5.78125 14.921875 -6.15625 C 15.503906 -6.539062 15.796875 -7.050781 15.796875 -7.6875 C 15.796875 -8.351562 15.53125 -8.960938 15 -9.515625 C 14.476562 -10.066406 13.65625 -10.34375 12.53125 -10.34375 C 11.539062 -10.34375 10.695312 -10.128906 10 -9.703125 C 9.3125 -9.285156 8.84375 -8.925781 8.59375 -8.625 C 8.769531 -7.769531 9.175781 -7.050781 9.8125 -6.46875 C 10.445312 -5.882812 11.328125 -5.59375 12.453125 -5.59375 Z M 12.453125 -5.59375 "/></g></g></g></g></g><g transform="matrix(1, 0, 0, 1, 25, 100)"><g clip-path="url(#fc727fcbce)"><g fill="#c9fffe" fill-opacity="1"><g transform="translate(2.0105, 33.310089)"><g><path d="M 1.144531 0 L 1.144531 -14.746094 L 2.15625 -14.746094 L 1.164062 -14.550781 L 0.574219 -17.503906 L 1.425781 -20.097656 L 10.191406 -20.097656 C 11.550781 -20.097656 12.863281 -19.972656 14.125 -19.714844 C 15.460938 -19.445312 16.65625 -18.933594 17.714844 -18.1875 C 18.8125 -17.417969 19.671875 -16.324219 20.296875 -14.914062 C 20.902344 -13.542969 21.203125 -11.796875 21.203125 -9.679688 C 21.203125 -7.558594 20.898438 -5.800781 20.28125 -4.40625 C 19.652344 -2.972656 18.789062 -1.855469 17.691406 -1.046875 C 16.625 -0.261719 15.425781 0.28125 14.09375 0.582031 C 12.824219 0.867188 11.523438 1.011719 10.191406 1.011719 L 1.144531 1.011719 Z M 3.167969 0 L 2.15625 0 L 2.15625 -1.011719 L 10.191406 -1.011719 C 11.375 -1.011719 12.527344 -1.136719 13.648438 -1.390625 C 14.707031 -1.628906 15.65625 -2.058594 16.492188 -2.675781 C 17.300781 -3.269531 17.945312 -4.117188 18.433594 -5.21875 C 18.933594 -6.355469 19.183594 -7.84375 19.183594 -9.679688 C 19.183594 -11.511719 18.9375 -12.984375 18.445312 -14.097656 C 17.972656 -15.164062 17.339844 -15.976562 16.550781 -16.535156 C 15.722656 -17.121094 14.78125 -17.519531 13.722656 -17.734375 C 12.59375 -17.960938 11.417969 -18.078125 10.191406 -18.078125 L 2.15625 -18.078125 L 2.15625 -19.085938 L 3.117188 -18.773438 L 2.578125 -17.128906 L 1.617188 -17.441406 L 2.609375 -17.640625 L 3.167969 -14.847656 Z M 7.0625 -5.324219 L 10.191406 -5.324219 C 11.496094 -5.324219 12.472656 -5.644531 13.121094 -6.285156 C 13.765625 -6.925781 14.085938 -8.054688 14.085938 -9.679688 C 14.085938 -11.277344 13.773438 -12.347656 13.152344 -12.894531 C 12.488281 -13.472656 11.5 -13.761719 10.191406 -13.761719 L 7.0625 -13.761719 L 7.0625 -14.773438 L 8.074219 -14.773438 L 8.074219 -4.3125 L 7.0625 -4.3125 Z M 6.050781 -3.300781 L 6.050781 -15.785156 L 10.191406 -15.785156 C 12.007812 -15.785156 13.4375 -15.328125 14.480469 -14.417969 C 15.566406 -13.46875 16.109375 -11.890625 16.109375 -9.679688 C 16.109375 -7.492188 15.585938 -5.882812 14.542969 -4.847656 C 13.5 -3.816406 12.050781 -3.300781 10.191406 -3.300781 Z M -0.847656 -8.628906 L -0.847656 -11.796875 L 11.6875 -11.796875 L 11.6875 -7.617188 L -0.847656 -7.617188 Z M 1.171875 -8.628906 L 0.160156 -8.628906 L 0.160156 -9.636719 L 10.675781 -9.636719 L 10.675781 -8.628906 L 9.664062 -8.628906 L 9.664062 -10.785156 L 10.675781 -10.785156 L 10.675781 -9.773438 L 0.160156 -9.773438 L 0.160156 -10.785156 L 1.171875 -10.785156 Z M 1.171875 -8.628906 "/></g></g></g><g fill="#c9fffe" fill-opacity="1"><g transform="translate(23.278644, 33.310089)"><g><path d="M 0.875 0 L 0.875 -14.773438 L 1.886719 -14.773438 L 0.882812 -14.671875 L 0.597656 -17.503906 L 1.03125 -20.097656 L 7.777344 -20.097656 L 7.777344 1.011719 L 0.875 1.011719 Z M 2.898438 0 L 1.886719 0 L 1.886719 -1.011719 L 6.765625 -1.011719 L 6.765625 0 L 5.757812 0 L 5.757812 -19.085938 L 6.765625 -19.085938 L 6.765625 -18.078125 L 1.886719 -18.078125 L 1.886719 -19.085938 L 2.882812 -18.921875 L 2.613281 -17.304688 L 1.617188 -17.46875 L 2.625 -17.570312 L 2.898438 -14.824219 Z M 2.898438 0 "/></g></g></g><g fill="#c9fffe" fill-opacity="1"><g transform="translate(31.661905, 33.310089)"><g><path d="M 1.199219 0.320312 L 0.574219 -1.550781 L 1.164062 -4.511719 L 2.15625 -4.3125 L 1.144531 -4.3125 L 1.144531 -20.097656 L 15.78125 -20.097656 L 18.15625 -18.675781 L 15.675781 -13.417969 L 12.53125 -13.769531 L 12.644531 -14.773438 L 12.644531 -13.761719 L 7.007812 -13.761719 L 7.007812 -14.773438 L 8.019531 -14.773438 L 8.019531 -11.808594 L 7.007812 -11.808594 L 7.007812 -12.820312 L 15.273438 -12.820312 L 15.273438 -6.617188 L 11.046875 -6.617188 L 6.941406 -6.890625 L 7.007812 -7.898438 L 8.019531 -7.898438 L 8.019531 -4.3125 L 7.007812 -4.3125 L 7.007812 -5.324219 L 15.425781 -5.324219 L 19.753906 -1.835938 L 17.132812 1.011719 L 1.429688 1.011719 Z M 3.117188 -0.320312 L 2.15625 0 L 2.15625 -1.011719 L 16.6875 -1.011719 L 16.6875 0 L 15.945312 -0.683594 L 17.535156 -2.410156 L 18.277344 -1.726562 L 17.644531 -0.9375 L 14.4375 -3.527344 L 15.070312 -4.3125 L 15.070312 -3.300781 L 6 -3.300781 L 6 -8.980469 L 11.148438 -8.636719 L 11.082031 -7.628906 L 11.082031 -8.640625 L 14.261719 -8.640625 L 14.261719 -7.628906 L 13.25 -7.628906 L 13.25 -11.808594 L 14.261719 -11.808594 L 14.261719 -10.796875 L 6 -10.796875 L 6 -15.785156 L 12.699219 -15.785156 L 15.183594 -15.507812 L 15.070312 -14.503906 L 14.15625 -14.9375 L 15.933594 -18.710938 L 16.851562 -18.277344 L 16.328125 -17.410156 L 14.980469 -18.222656 L 15.503906 -19.085938 L 15.503906 -18.078125 L 2.15625 -18.078125 L 2.15625 -19.085938 L 3.167969 -19.085938 L 3.167969 -4.214844 L 2.609375 -1.417969 L 1.617188 -1.617188 L 2.578125 -1.9375 Z M 4.027344 -21.703125 L 7.269531 -25.867188 L 10.984375 -25.867188 L 15.457031 -20.070312 L 10.878906 -20.070312 L 8.53125 -21.839844 L 9.140625 -22.644531 L 9.734375 -21.828125 L 7.3125 -20.070312 L 2.757812 -20.070312 Z M 5.625 -20.460938 L 4.824219 -21.082031 L 4.824219 -22.09375 L 6.984375 -22.09375 L 6.984375 -21.082031 L 6.390625 -21.902344 L 9.152344 -23.902344 L 11.824219 -21.890625 L 11.214844 -21.082031 L 11.214844 -22.09375 L 13.398438 -22.09375 L 13.398438 -21.082031 L 12.597656 -20.464844 L 9.6875 -24.238281 L 10.488281 -24.855469 L 10.488281 -23.847656 L 7.765625 -23.847656 L 7.765625 -24.855469 L 8.5625 -24.234375 Z M 8.578125 -25.148438 L 4.542969 -28.980469 L 4.542969 -32.070312 L 9.589844 -32.070312 L 12.066406 -24.871094 L 8.871094 -24.871094 Z M 9.96875 -26.613281 L 9.273438 -25.882812 L 9.273438 -26.894531 L 10.648438 -26.894531 L 10.648438 -25.882812 L 9.691406 -25.554688 L 7.914062 -30.730469 L 8.871094 -31.058594 L 8.871094 -30.046875 L 5.554688 -30.046875 L 5.554688 -31.058594 L 6.566406 -31.058594 L 6.566406 -29.414062 L 5.554688 -29.414062 L 6.25 -30.148438 Z M 9.96875 -26.613281 "/></g></g></g><g fill="#c9fffe" fill-opacity="1"><g transform="translate(50.207508, 33.310089)"><g><path d="M 9.949219 1.28125 C 6.917969 1.28125 4.613281 0.558594 3.027344 -0.882812 C 1.414062 -2.351562 0.605469 -4.636719 0.605469 -7.738281 L 0.605469 -14.746094 L 0.632812 -17.480469 L 1.644531 -17.46875 L 0.632812 -17.453125 L 0.589844 -20.097656 L 7.535156 -20.097656 L 7.535156 -8.277344 C 7.535156 -7.214844 7.734375 -6.378906 8.128906 -5.765625 C 8.433594 -5.292969 9.039062 -5.054688 9.949219 -5.054688 C 10.882812 -5.054688 11.511719 -5.28125 11.839844 -5.730469 C 12.242188 -6.28125 12.441406 -7.128906 12.441406 -8.277344 L 12.441406 -20.097656 L 19.289062 -20.097656 L 19.289062 -7.738281 C 19.289062 -4.699219 18.507812 -2.433594 16.941406 -0.941406 C 15.390625 0.539062 13.058594 1.28125 9.949219 1.28125 Z M 9.949219 -0.742188 C 12.519531 -0.742188 14.382812 -1.296875 15.546875 -2.402344 C 16.695312 -3.5 17.269531 -5.277344 17.269531 -7.738281 L 17.269531 -19.085938 L 18.277344 -19.085938 L 18.277344 -18.078125 L 13.453125 -18.078125 L 13.453125 -19.085938 L 14.464844 -19.085938 L 14.464844 -8.277344 C 14.464844 -6.691406 14.132812 -5.445312 13.476562 -4.539062 C 12.742188 -3.535156 11.566406 -3.03125 9.949219 -3.03125 C 8.304688 -3.03125 7.132812 -3.578125 6.429688 -4.667969 C 5.820312 -5.617188 5.511719 -6.820312 5.511719 -8.277344 L 5.511719 -19.085938 L 6.523438 -19.085938 L 6.523438 -18.078125 L 1.617188 -18.078125 L 1.617188 -19.085938 L 2.628906 -19.105469 L 2.65625 -17.472656 L 2.628906 -14.746094 L 2.628906 -7.738281 C 2.628906 -5.230469 3.214844 -3.445312 4.386719 -2.378906 C 5.585938 -1.289062 7.441406 -0.742188 9.949219 -0.742188 Z M 9.949219 -0.742188 "/></g></g></g><g fill="#c9fffe" fill-opacity="1"><g transform="translate(70.1009, 33.310089)"><g/></g></g><g fill="#c9fffe" fill-opacity="1"><g transform="translate(76.570296, 33.310089)"><g><path d="M 4.921875 0 L 4.921875 -14.773438 L 5.929688 -14.773438 L 5.980469 -13.765625 L -0.472656 -13.441406 L -0.472656 -20.097656 L 17.320312 -20.097656 L 17.320312 -13.441406 L 10.734375 -13.765625 L 10.785156 -14.773438 L 11.796875 -14.773438 L 11.796875 -4.3125 L 10.785156 -4.3125 L 11.789062 -4.425781 L 12.101562 -1.582031 L 11.625 1.011719 L 4.921875 1.011719 Z M 6.941406 0 L 5.929688 0 L 5.929688 -1.011719 L 10.785156 -1.011719 L 10.785156 0 L 9.789062 -0.183594 L 10.085938 -1.800781 L 11.082031 -1.617188 L 10.074219 -1.507812 L 9.773438 -4.257812 L 9.773438 -15.835938 L 16.359375 -15.515625 L 16.3125 -14.503906 L 15.300781 -14.503906 L 15.300781 -19.085938 L 16.3125 -19.085938 L 16.3125 -18.078125 L 0.539062 -18.078125 L 0.539062 -19.085938 L 1.550781 -19.085938 L 1.550781 -14.503906 L 0.539062 -14.503906 L 0.488281 -15.515625 L 6.941406 -15.835938 Z M 6.941406 0 "/></g></g></g><g fill="#c9fffe" fill-opacity="1"><g transform="translate(93.417682, 33.310089)"><g><path d="M 1.144531 0 L 1.144531 -14.746094 L 2.15625 -14.746094 L 1.164062 -14.550781 L 0.574219 -17.535156 L 1.429688 -20.097656 L 10.785156 -20.097656 C 12.222656 -20.097656 13.523438 -19.875 14.691406 -19.425781 C 15.949219 -18.941406 16.945312 -18.125 17.6875 -16.980469 C 18.414062 -15.851562 18.777344 -14.34375 18.777344 -12.457031 C 18.777344 -10.742188 18.453125 -9.335938 17.800781 -8.234375 C 17.140625 -7.113281 16.21875 -6.273438 15.042969 -5.71875 L 14.613281 -6.632812 L 15.359375 -7.3125 L 15.652344 -6.992188 L 18.339844 -3.625 L 17.550781 -2.992188 L 18.226562 -3.746094 L 20.097656 -2.070312 L 20.097656 1.011719 L 12.476562 1.011719 L 8.402344 -5.1875 L 9.246094 -5.742188 L 9.246094 -4.730469 L 7.007812 -4.730469 L 7.007812 -5.742188 L 8.019531 -5.742188 L 8.019531 -4.339844 L 7.007812 -4.339844 L 8.015625 -4.441406 L 8.296875 -1.613281 L 7.867188 1.011719 L 1.144531 1.011719 Z M 3.167969 0 L 2.15625 0 L 2.15625 -1.011719 L 7.007812 -1.011719 L 7.007812 0 L 6.011719 -0.164062 L 6.28125 -1.808594 L 7.277344 -1.644531 L 6.273438 -1.542969 L 6 -4.289062 L 6 -6.753906 L 9.792969 -6.753906 L 13.867188 -0.554688 L 13.023438 0 L 13.023438 -1.011719 L 19.085938 -1.011719 L 19.085938 0 L 18.078125 0 L 18.078125 -1.617188 L 19.085938 -1.617188 L 18.414062 -0.863281 L 16.8125 -2.296875 L 14.09375 -5.703125 L 14.882812 -6.335938 L 14.132812 -5.65625 L 12.945312 -6.960938 L 14.179688 -7.546875 C 14.980469 -7.925781 15.609375 -8.496094 16.058594 -9.261719 C 16.523438 -10.046875 16.753906 -11.113281 16.753906 -12.457031 C 16.753906 -13.945312 16.5 -15.089844 15.988281 -15.882812 C 15.484375 -16.660156 14.8125 -17.210938 13.964844 -17.539062 C 13.03125 -17.898438 11.972656 -18.078125 10.785156 -18.078125 L 2.15625 -18.078125 L 2.15625 -19.085938 L 3.117188 -18.769531 L 2.578125 -17.152344 L 1.617188 -17.46875 L 2.609375 -17.667969 L 3.167969 -14.847656 Z M 7.007812 -10.984375 L 9.652344 -10.984375 C 10.390625 -10.984375 10.957031 -11.109375 11.351562 -11.355469 C 11.59375 -11.507812 11.714844 -11.875 11.714844 -12.457031 C 11.714844 -12.882812 11.65625 -13.167969 11.535156 -13.316406 C 11.414062 -13.464844 11.226562 -13.570312 10.980469 -13.625 C 10.574219 -13.71875 10.097656 -13.761719 9.542969 -13.761719 L 6.738281 -13.761719 L 6.738281 -14.773438 L 7.75 -14.832031 L 8.019531 -10.03125 L 7.007812 -9.976562 Z M 6.054688 -8.964844 L 5.671875 -15.785156 L 9.542969 -15.785156 C 10.25 -15.785156 10.875 -15.722656 11.425781 -15.597656 C 12.128906 -15.4375 12.691406 -15.101562 13.105469 -14.589844 C 13.527344 -14.070312 13.734375 -13.359375 13.734375 -12.457031 C 13.734375 -11.128906 13.300781 -10.195312 12.425781 -9.644531 C 11.707031 -9.191406 10.78125 -8.964844 9.652344 -8.964844 Z M 6.054688 -8.964844 "/></g></g></g><g fill="#c9fffe" fill-opacity="1"><g transform="translate(112.771962, 33.310089)"><g><path d="M 0.875 0 L 0.875 -14.773438 L 1.886719 -14.773438 L 0.882812 -14.671875 L 0.597656 -17.503906 L 1.03125 -20.097656 L 7.777344 -20.097656 L 7.777344 1.011719 L 0.875 1.011719 Z M 2.898438 0 L 1.886719 0 L 1.886719 -1.011719 L 6.765625 -1.011719 L 6.765625 0 L 5.757812 0 L 5.757812 -19.085938 L 6.765625 -19.085938 L 6.765625 -18.078125 L 1.886719 -18.078125 L 1.886719 -19.085938 L 2.882812 -18.921875 L 2.613281 -17.304688 L 1.617188 -17.46875 L 2.625 -17.570312 L 2.898438 -14.824219 Z M 3.542969 7.589844 L -0.136719 3.910156 L 4.257812 -0.484375 L 8.65625 3.910156 L 4.257812 8.304688 Z M 4.976562 6.160156 L 4.257812 6.875 L 3.542969 6.160156 L 6.511719 3.195312 L 7.226562 3.910156 L 6.511719 4.625 L 3.542969 1.660156 L 4.257812 0.945312 L 4.976562 1.660156 L 2.007812 4.625 L 1.292969 3.910156 L 2.007812 3.195312 Z M 4.976562 6.160156 "/></g></g></g><g fill="#c9fffe" fill-opacity="1"><g transform="translate(13.074251, 70.934552)"><g><path d="M 1.144531 0 L 1.144531 -14.746094 L 2.15625 -14.746094 L 1.164062 -14.550781 L 0.574219 -17.503906 L 1.425781 -20.097656 L 10.191406 -20.097656 C 11.550781 -20.097656 12.863281 -19.972656 14.125 -19.714844 C 15.460938 -19.445312 16.65625 -18.933594 17.714844 -18.1875 C 18.8125 -17.417969 19.671875 -16.324219 20.296875 -14.914062 C 20.902344 -13.542969 21.203125 -11.796875 21.203125 -9.679688 C 21.203125 -7.558594 20.898438 -5.800781 20.28125 -4.40625 C 19.652344 -2.972656 18.789062 -1.855469 17.691406 -1.046875 C 16.625 -0.261719 15.425781 0.28125 14.09375 0.582031 C 12.824219 0.867188 11.523438 1.011719 10.191406 1.011719 L 1.144531 1.011719 Z M 3.167969 0 L 2.15625 0 L 2.15625 -1.011719 L 10.191406 -1.011719 C 11.375 -1.011719 12.527344 -1.136719 13.648438 -1.390625 C 14.707031 -1.628906 15.65625 -2.058594 16.492188 -2.675781 C 17.300781 -3.269531 17.945312 -4.117188 18.433594 -5.21875 C 18.933594 -6.355469 19.183594 -7.84375 19.183594 -9.679688 C 19.183594 -11.511719 18.9375 -12.984375 18.445312 -14.097656 C 17.972656 -15.164062 17.339844 -15.976562 16.550781 -16.535156 C 15.722656 -17.121094 14.78125 -17.519531 13.722656 -17.734375 C 12.59375 -17.960938 11.417969 -18.078125 10.191406 -18.078125 L 2.15625 -18.078125 L 2.15625 -19.085938 L 3.117188 -18.773438 L 2.578125 -17.128906 L 1.617188 -17.441406 L 2.609375 -17.640625 L 3.167969 -14.847656 Z M 7.0625 -5.324219 L 10.191406 -5.324219 C 11.496094 -5.324219 12.472656 -5.644531 13.121094 -6.285156 C 13.765625 -6.925781 14.085938 -8.054688 14.085938 -9.679688 C 14.085938 -11.277344 13.773438 -12.347656 13.152344 -12.894531 C 12.488281 -13.472656 11.5 -13.761719 10.191406 -13.761719 L 7.0625 -13.761719 L 7.0625 -14.773438 L 8.074219 -14.773438 L 8.074219 -4.3125 L 7.0625 -4.3125 Z M 6.050781 -3.300781 L 6.050781 -15.785156 L 10.191406 -15.785156 C 12.007812 -15.785156 13.4375 -15.328125 14.480469 -14.417969 C 15.566406 -13.46875 16.109375 -11.890625 16.109375 -9.679688 C 16.109375 -7.492188 15.585938 -5.882812 14.542969 -4.847656 C 13.5 -3.816406 12.050781 -3.300781 10.191406 -3.300781 Z M 6.050781 -3.300781 "/></g></g></g><g clip-path="url(#7e845e73f3)"><g fill="#c9fffe" fill-opacity="1"><g transform="translate(34.342395, 70.934552)"><g><path d="M 0.875 0 L 0.875 -14.773438 L 1.886719 -14.773438 L 0.882812 -14.671875 L 0.597656 -17.503906 L 1.03125 -20.097656 L 7.777344 -20.097656 L 7.777344 1.011719 L 0.875 1.011719 Z M 2.898438 0 L 1.886719 0 L 1.886719 -1.011719 L 6.765625 -1.011719 L 6.765625 0 L 5.757812 0 L 5.757812 -19.085938 L 6.765625 -19.085938 L 6.765625 -18.078125 L 1.886719 -18.078125 L 1.886719 -19.085938 L 2.882812 -18.921875 L 2.613281 -17.304688 L 1.617188 -17.46875 L 2.625 -17.570312 L 2.898438 -14.824219 Z M 3.542969 7.589844 L -0.136719 3.910156 L 4.257812 -0.484375 L 8.65625 3.910156 L 4.257812 8.304688 Z M 4.976562 6.160156 L 4.257812 6.875 L 3.542969 6.160156 L 6.511719 3.195312 L 7.226562 3.910156 L 6.511719 4.625 L 3.542969 1.660156 L 4.257812 0.945312 L 4.976562 1.660156 L 2.007812 4.625 L 1.292969 3.910156 L 2.007812 3.195312 Z M 4.976562 6.160156 "/></g></g></g></g><g fill="#c9fffe" fill-opacity="1"><g transform="translate(42.725656, 70.934552)"><g/></g></g><g fill="#c9fffe" fill-opacity="1"><g transform="translate(49.195052, 70.934552)"><g><path d="M 9.949219 1.28125 C 6.917969 1.28125 4.613281 0.558594 3.027344 -0.882812 C 1.414062 -2.351562 0.605469 -4.636719 0.605469 -7.738281 L 0.605469 -14.746094 L 0.632812 -17.480469 L 1.644531 -17.46875 L 0.632812 -17.453125 L 0.589844 -20.097656 L 7.535156 -20.097656 L 7.535156 -8.277344 C 7.535156 -7.214844 7.734375 -6.378906 8.128906 -5.765625 C 8.433594 -5.292969 9.039062 -5.054688 9.949219 -5.054688 C 10.882812 -5.054688 11.511719 -5.28125 11.839844 -5.730469 C 12.242188 -6.28125 12.441406 -7.128906 12.441406 -8.277344 L 12.441406 -20.097656 L 19.289062 -20.097656 L 19.289062 -7.738281 C 19.289062 -4.699219 18.507812 -2.433594 16.941406 -0.941406 C 15.390625 0.539062 13.058594 1.28125 9.949219 1.28125 Z M 9.949219 -0.742188 C 12.519531 -0.742188 14.382812 -1.296875 15.546875 -2.402344 C 16.695312 -3.5 17.269531 -5.277344 17.269531 -7.738281 L 17.269531 -19.085938 L 18.277344 -19.085938 L 18.277344 -18.078125 L 13.453125 -18.078125 L 13.453125 -19.085938 L 14.464844 -19.085938 L 14.464844 -8.277344 C 14.464844 -6.691406 14.132812 -5.445312 13.476562 -4.539062 C 12.742188 -3.535156 11.566406 -3.03125 9.949219 -3.03125 C 8.304688 -3.03125 7.132812 -3.578125 6.429688 -4.667969 C 5.820312 -5.617188 5.511719 -6.820312 5.511719 -8.277344 L 5.511719 -19.085938 L 6.523438 -19.085938 L 6.523438 -18.078125 L 1.617188 -18.078125 L 1.617188 -19.085938 L 2.628906 -19.105469 L 2.65625 -17.472656 L 2.628906 -14.746094 L 2.628906 -7.738281 C 2.628906 -5.230469 3.214844 -3.445312 4.386719 -2.378906 C 5.585938 -1.289062 7.441406 -0.742188 9.949219 -0.742188 Z M 17.902344 -16.460938 C 17.191406 -16.460938 16.617188 -16.566406 16.179688 -16.777344 L 15.164062 -17.269531 L 15.164062 -20.097656 L 17.011719 -20.097656 C 17.210938 -20.097656 17.359375 -20.117188 17.453125 -20.15625 C 17.460938 -20.160156 17.46875 -20.164062 17.472656 -20.164062 C 17.472656 -20.164062 17.46875 -20.164062 17.464844 -20.160156 C 17.449219 -20.144531 17.4375 -20.128906 17.425781 -20.109375 C 17.535156 -20.304688 17.589844 -20.621094 17.589844 -21.054688 L 17.589844 -23.65625 L 22.363281 -23.65625 L 22.363281 -20.652344 C 22.363281 -19.625 22.132812 -18.792969 21.671875 -18.15625 C 21.21875 -17.535156 20.632812 -17.089844 19.914062 -16.820312 C 19.269531 -16.578125 18.597656 -16.460938 17.902344 -16.460938 Z M 17.902344 -18.480469 C 18.355469 -18.480469 18.789062 -18.558594 19.207031 -18.714844 C 19.546875 -18.839844 19.820312 -19.050781 20.035156 -19.34375 C 20.238281 -19.625 20.339844 -20.0625 20.339844 -20.652344 L 20.339844 -22.644531 L 21.351562 -22.644531 L 21.351562 -21.636719 L 18.601562 -21.636719 L 18.601562 -22.644531 L 19.613281 -22.644531 L 19.613281 -21.054688 C 19.613281 -20.269531 19.472656 -19.621094 19.1875 -19.117188 C 18.796875 -18.421875 18.070312 -18.078125 17.011719 -18.078125 L 16.175781 -18.078125 L 16.175781 -19.085938 L 17.1875 -19.085938 L 17.1875 -17.902344 L 16.175781 -17.902344 L 16.617188 -18.8125 L 17.0625 -18.59375 C 17.21875 -18.519531 17.5 -18.480469 17.902344 -18.480469 Z M 7.238281 -20.792969 L 9.253906 -26.648438 L 14.277344 -26.648438 L 14.277344 -23.558594 L 9.949219 -19.453125 L 6.777344 -19.453125 Z M 9.152344 -20.132812 L 8.195312 -20.460938 L 8.195312 -21.472656 L 9.542969 -21.472656 L 9.542969 -20.460938 L 8.847656 -21.195312 L 12.566406 -24.726562 L 13.265625 -23.996094 L 12.253906 -23.996094 L 12.253906 -25.640625 L 13.265625 -25.640625 L 13.265625 -24.628906 L 9.976562 -24.628906 L 9.976562 -25.640625 L 10.929688 -25.308594 Z M 9.152344 -20.132812 "/></g></g></g><g fill="#c9fffe" fill-opacity="1"><g transform="translate(69.088444, 70.934552)"><g><path d="M 1.144531 0 L 1.144531 -14.746094 L 2.15625 -14.746094 L 1.164062 -14.550781 L 0.574219 -17.507812 L 1.429688 -20.070312 L 7.007812 -20.070312 L 12.789062 -12.285156 L 14.113281 -9.996094 L 13.238281 -9.488281 L 13.238281 -10.5 L 13.507812 -10.5 L 13.507812 -9.488281 L 12.496094 -9.488281 L 12.496094 -20.070312 L 19.613281 -20.070312 L 19.613281 -17.394531 L 19.339844 -14.648438 L 18.332031 -14.746094 L 19.34375 -14.746094 L 19.34375 1.011719 L 13.578125 1.011719 L 6.511719 -8.902344 L 7.332031 -9.488281 L 7.332031 -8.480469 L 7.0625 -8.480469 L 7.0625 -9.488281 L 8.074219 -9.488281 L 8.074219 -7.871094 L 7.0625 -7.871094 L 8.074219 -7.90625 L 8.378906 1.011719 L 1.144531 1.011719 Z M 3.167969 0 L 2.15625 0 L 2.15625 -1.011719 L 7.332031 -1.011719 L 7.332031 0 L 6.324219 0.0351562 L 6.050781 -7.855469 L 6.050781 -10.5 L 7.855469 -10.5 L 14.921875 -0.585938 L 14.101562 0 L 14.101562 -1.011719 L 18.332031 -1.011719 L 18.332031 0 L 17.320312 0 L 17.320312 -14.796875 L 17.597656 -17.542969 L 18.601562 -17.441406 L 17.589844 -17.441406 L 17.589844 -19.0625 L 18.601562 -19.0625 L 18.601562 -18.050781 L 13.507812 -18.050781 L 13.507812 -19.0625 L 14.519531 -19.0625 L 14.519531 -8.480469 L 12.652344 -8.480469 L 11.066406 -11.222656 L 11.941406 -11.726562 L 11.132812 -11.125 L 5.6875 -18.457031 L 6.496094 -19.0625 L 6.496094 -18.050781 L 2.15625 -18.050781 L 2.15625 -19.0625 L 3.117188 -18.742188 L 2.578125 -17.125 L 1.617188 -17.441406 L 2.609375 -17.640625 L 3.167969 -14.847656 Z M 3.167969 0 "/></g></g></g><g fill="#c9fffe" fill-opacity="1"><g transform="translate(89.30531, 70.934552)"><g><path d="M 11.296875 1.28125 C 9.835938 1.28125 8.453125 1.132812 7.152344 0.835938 C 5.777344 0.527344 4.558594 -0.03125 3.5 -0.839844 C 2.414062 -1.667969 1.566406 -2.800781 0.957031 -4.242188 C 0.363281 -5.644531 0.0664062 -7.414062 0.0664062 -9.542969 C 0.0664062 -11.613281 0.386719 -13.347656 1.019531 -14.746094 C 1.664062 -16.167969 2.535156 -17.296875 3.632812 -18.136719 C 4.703125 -18.957031 5.890625 -19.539062 7.199219 -19.878906 C 8.460938 -20.203125 9.738281 -20.367188 11.027344 -20.367188 C 11.953125 -20.367188 12.765625 -20.320312 13.457031 -20.222656 C 14.136719 -20.128906 14.789062 -20.007812 15.417969 -19.855469 L 15.558594 -19.820312 L 20.140625 -17.15625 L 17.496094 -11.300781 L 10.664062 -13.710938 L 11 -14.667969 L 11 -13.65625 C 10.289062 -13.65625 9.636719 -13.515625 9.042969 -13.238281 C 8.503906 -12.984375 8.066406 -12.574219 7.730469 -12.007812 C 7.386719 -11.421875 7.210938 -10.589844 7.210938 -9.515625 C 7.210938 -7.785156 7.554688 -6.613281 8.238281 -5.996094 C 8.953125 -5.351562 9.972656 -5.027344 11.296875 -5.027344 C 12.046875 -5.027344 12.621094 -5.0625 13.019531 -5.132812 C 13.46875 -5.210938 13.808594 -5.277344 14.050781 -5.328125 L 14.261719 -4.339844 L 13.25 -4.339844 L 13.25 -6.390625 L 14.261719 -6.390625 L 14.261719 -5.378906 L 9.828125 -5.378906 L 9.828125 -11.390625 L 20.253906 -11.390625 L 20.742188 -8.722656 L 20.09375 -6.265625 L 19.113281 -6.523438 L 20.125 -6.523438 L 20.125 -0.15625 L 19.460938 0.0859375 C 19.234375 0.171875 18.757812 0.304688 18.035156 0.492188 C 17.308594 0.683594 16.371094 0.859375 15.230469 1.027344 C 14.078125 1.195312 12.765625 1.28125 11.296875 1.28125 Z M 11.296875 -0.742188 C 12.667969 -0.742188 13.882812 -0.820312 14.9375 -0.972656 C 16.007812 -1.128906 16.871094 -1.292969 17.527344 -1.464844 C 18.1875 -1.636719 18.601562 -1.75 18.769531 -1.8125 L 19.113281 -0.863281 L 18.105469 -0.863281 L 18.105469 -6.65625 L 18.730469 -9.019531 L 19.707031 -8.761719 L 18.714844 -8.578125 L 18.417969 -10.199219 L 19.410156 -10.378906 L 19.410156 -9.367188 L 10.839844 -9.367188 L 10.839844 -10.378906 L 11.847656 -10.378906 L 11.847656 -6.390625 L 10.839844 -6.390625 L 10.839844 -7.402344 L 15.273438 -7.402344 L 15.273438 -3.523438 L 14.472656 -3.351562 C 14.210938 -3.296875 13.84375 -3.226562 13.371094 -3.144531 C 12.855469 -3.050781 12.164062 -3.007812 11.296875 -3.007812 C 9.457031 -3.007812 7.984375 -3.5 6.886719 -4.492188 C 5.753906 -5.511719 5.191406 -7.1875 5.191406 -9.515625 C 5.191406 -10.960938 5.457031 -12.132812 5.992188 -13.035156 C 6.535156 -13.960938 7.269531 -14.640625 8.183594 -15.070312 C 9.046875 -15.476562 9.988281 -15.675781 11 -15.675781 L 11.171875 -15.675781 L 17.292969 -13.515625 L 16.957031 -12.5625 L 16.035156 -12.980469 L 17.921875 -17.160156 L 18.84375 -16.742188 L 18.335938 -15.867188 L 14.671875 -17.996094 L 15.179688 -18.871094 L 14.941406 -17.890625 C 14.378906 -18.023438 13.792969 -18.136719 13.179688 -18.222656 C 12.578125 -18.304688 11.859375 -18.347656 11.027344 -18.347656 C 9.910156 -18.347656 8.800781 -18.203125 7.707031 -17.921875 C 6.664062 -17.648438 5.714844 -17.1875 4.859375 -16.53125 C 4.035156 -15.898438 3.367188 -15.023438 2.863281 -13.910156 C 2.347656 -12.777344 2.089844 -11.320312 2.089844 -9.542969 C 2.089844 -7.683594 2.332031 -6.179688 2.820312 -5.03125 C 3.289062 -3.917969 3.921875 -3.058594 4.722656 -2.449219 C 5.550781 -1.820312 6.507812 -1.378906 7.597656 -1.132812 C 8.753906 -0.871094 9.988281 -0.742188 11.296875 -0.742188 Z M 11.296875 -0.742188 "/></g></g></g><g fill="#02bdc0" fill-opacity="1"><g transform="translate(2.0105, 33.310089)"><g><path d="M 2.15625 0 L 2.15625 -14.75 L 1.625 -17.4375 L 2.15625 -19.078125 L 10.1875 -19.078125 C 11.476562 -19.078125 12.722656 -18.957031 13.921875 -18.71875 C 15.117188 -18.476562 16.1875 -18.023438 17.125 -17.359375 C 18.070312 -16.691406 18.816406 -15.738281 19.359375 -14.5 C 19.910156 -13.257812 20.1875 -11.648438 20.1875 -9.671875 C 20.1875 -7.703125 19.90625 -6.082031 19.34375 -4.8125 C 18.789062 -3.539062 18.035156 -2.554688 17.078125 -1.859375 C 16.128906 -1.160156 15.054688 -0.675781 13.859375 -0.40625 C 12.671875 -0.132812 11.445312 0 10.1875 0 Z M 7.0625 -4.3125 L 10.1875 -4.3125 C 11.769531 -4.3125 12.984375 -4.726562 13.828125 -5.5625 C 14.671875 -6.394531 15.09375 -7.765625 15.09375 -9.671875 C 15.09375 -11.578125 14.664062 -12.898438 13.8125 -13.640625 C 12.957031 -14.390625 11.75 -14.765625 10.1875 -14.765625 L 7.0625 -14.765625 Z M 0.15625 -8.640625 L 0.15625 -10.796875 L 10.671875 -10.796875 L 10.671875 -8.640625 Z M 0.15625 -8.640625 "/></g></g></g><g fill="#02bdc0" fill-opacity="1"><g transform="translate(23.278644, 33.310089)"><g><path d="M 1.890625 0 L 1.890625 -14.765625 L 1.625 -17.46875 L 1.890625 -19.078125 L 6.765625 -19.078125 L 6.765625 0 Z M 1.890625 0 "/></g></g></g><g fill="#02bdc0" fill-opacity="1"><g transform="translate(31.661905, 33.310089)"><g><path d="M 2.15625 0 L 1.625 -1.625 L 2.15625 -4.3125 L 2.15625 -19.078125 L 15.5 -19.078125 L 16.84375 -18.28125 L 15.0625 -14.5 L 12.640625 -14.765625 L 7.015625 -14.765625 L 7.015625 -11.8125 L 14.265625 -11.8125 L 14.265625 -7.625 L 11.078125 -7.625 L 7.015625 -7.890625 L 7.015625 -4.3125 L 15.0625 -4.3125 L 18.28125 -1.71875 L 16.6875 0 Z M 4.8125 -21.078125 L 7.765625 -24.84375 L 10.484375 -24.84375 L 13.390625 -21.078125 L 11.203125 -21.078125 L 9.125 -22.640625 L 6.96875 -21.078125 Z M 9.265625 -25.875 L 5.546875 -29.40625 L 5.546875 -31.046875 L 8.859375 -31.046875 L 10.640625 -25.875 Z M 9.265625 -25.875 "/></g></g></g><g fill="#02bdc0" fill-opacity="1"><g transform="translate(50.207508, 33.310089)"><g><path d="M 9.953125 0.265625 C 7.179688 0.265625 5.097656 -0.363281 3.703125 -1.625 C 2.316406 -2.894531 1.625 -4.929688 1.625 -7.734375 L 1.625 -14.75 L 1.640625 -17.46875 L 1.625 -19.078125 L 6.515625 -19.078125 L 6.515625 -8.28125 C 6.515625 -7.019531 6.765625 -6 7.265625 -5.21875 C 7.773438 -4.4375 8.671875 -4.046875 9.953125 -4.046875 C 11.222656 -4.046875 12.125 -4.40625 12.65625 -5.125 C 13.1875 -5.851562 13.453125 -6.90625 13.453125 -8.28125 L 13.453125 -19.078125 L 18.28125 -19.078125 L 18.28125 -7.734375 C 18.28125 -4.984375 17.597656 -2.960938 16.234375 -1.671875 C 14.878906 -0.378906 12.785156 0.265625 9.953125 0.265625 Z M 9.953125 0.265625 "/></g></g></g><g fill="#02bdc0" fill-opacity="1"><g transform="translate(70.1009, 33.310089)"><g/></g></g><g fill="#02bdc0" fill-opacity="1"><g transform="translate(76.570296, 33.310089)"><g><path d="M 5.9375 0 L 5.9375 -14.765625 L 0.546875 -14.5 L 0.546875 -19.078125 L 16.3125 -19.078125 L 16.3125 -14.5 L 10.78125 -14.765625 L 10.78125 -4.3125 L 11.078125 -1.625 L 10.78125 0 Z M 5.9375 0 "/></g></g></g><g fill="#02bdc0" fill-opacity="1"><g transform="translate(93.417682, 33.310089)"><g><path d="M 2.15625 0 L 2.15625 -14.75 L 1.625 -17.46875 L 2.15625 -19.078125 L 10.78125 -19.078125 C 12.09375 -19.078125 13.273438 -18.875 14.328125 -18.46875 C 15.378906 -18.070312 16.210938 -17.390625 16.828125 -16.421875 C 17.453125 -15.460938 17.765625 -14.140625 17.765625 -12.453125 C 17.765625 -10.921875 17.484375 -9.679688 16.921875 -8.734375 C 16.367188 -7.796875 15.597656 -7.09375 14.609375 -6.625 L 14.875 -6.328125 L 17.546875 -2.984375 L 19.078125 -1.625 L 19.078125 0 L 13.015625 0 L 9.25 -5.734375 L 7.015625 -5.734375 L 7.015625 -4.34375 L 7.28125 -1.640625 L 7.015625 0 Z M 7.015625 -9.96875 L 9.65625 -9.96875 C 10.582031 -9.96875 11.320312 -10.144531 11.875 -10.5 C 12.4375 -10.851562 12.71875 -11.503906 12.71875 -12.453125 C 12.71875 -13.117188 12.582031 -13.617188 12.3125 -13.953125 C 12.039062 -14.285156 11.664062 -14.503906 11.1875 -14.609375 C 10.71875 -14.710938 10.171875 -14.765625 9.546875 -14.765625 L 6.734375 -14.765625 Z M 7.015625 -9.96875 "/></g></g></g><g fill="#02bdc0" fill-opacity="1"><g transform="translate(112.771962, 33.310089)"><g><path d="M 1.890625 0 L 1.890625 -14.765625 L 1.625 -17.46875 L 1.890625 -19.078125 L 6.765625 -19.078125 L 6.765625 0 Z M 4.265625 6.875 L 1.296875 3.90625 L 4.265625 0.9375 L 7.234375 3.90625 Z M 4.265625 6.875 "/></g></g></g><g fill="#02bdc0" fill-opacity="1"><g transform="translate(13.074251, 70.934552)"><g><path d="M 2.15625 0 L 2.15625 -14.75 L 1.625 -17.4375 L 2.15625 -19.078125 L 10.1875 -19.078125 C 11.476562 -19.078125 12.722656 -18.957031 13.921875 -18.71875 C 15.117188 -18.476562 16.1875 -18.023438 17.125 -17.359375 C 18.070312 -16.691406 18.816406 -15.738281 19.359375 -14.5 C 19.910156 -13.257812 20.1875 -11.648438 20.1875 -9.671875 C 20.1875 -7.703125 19.90625 -6.082031 19.34375 -4.8125 C 18.789062 -3.539062 18.035156 -2.554688 17.078125 -1.859375 C 16.128906 -1.160156 15.054688 -0.675781 13.859375 -0.40625 C 12.671875 -0.132812 11.445312 0 10.1875 0 Z M 7.0625 -4.3125 L 10.1875 -4.3125 C 11.769531 -4.3125 12.984375 -4.726562 13.828125 -5.5625 C 14.671875 -6.394531 15.09375 -7.765625 15.09375 -9.671875 C 15.09375 -11.578125 14.664062 -12.898438 13.8125 -13.640625 C 12.957031 -14.390625 11.75 -14.765625 10.1875 -14.765625 L 7.0625 -14.765625 Z M 7.0625 -4.3125 "/></g></g></g><g fill="#02bdc0" fill-opacity="1"><g transform="translate(34.342395, 70.934552)"><g><path d="M 1.890625 0 L 1.890625 -14.765625 L 1.625 -17.46875 L 1.890625 -19.078125 L 6.765625 -19.078125 L 6.765625 0 Z M 4.265625 6.875 L 1.296875 3.90625 L 4.265625 0.9375 L 7.234375 3.90625 Z M 4.265625 6.875 "/></g></g></g><g fill="#02bdc0" fill-opacity="1"><g transform="translate(42.725656, 70.934552)"><g/></g></g><g fill="#02bdc0" fill-opacity="1"><g transform="translate(49.195052, 70.934552)"><g><path d="M 9.953125 0.265625 C 7.179688 0.265625 5.097656 -0.363281 3.703125 -1.625 C 2.316406 -2.894531 1.625 -4.929688 1.625 -7.734375 L 1.625 -14.75 L 1.640625 -17.46875 L 1.625 -19.078125 L 6.515625 -19.078125 L 6.515625 -8.28125 C 6.515625 -7.019531 6.765625 -6 7.265625 -5.21875 C 7.773438 -4.4375 8.671875 -4.046875 9.953125 -4.046875 C 11.222656 -4.046875 12.125 -4.40625 12.65625 -5.125 C 13.1875 -5.851562 13.453125 -6.90625 13.453125 -8.28125 L 13.453125 -19.078125 L 18.28125 -19.078125 L 18.28125 -7.734375 C 18.28125 -4.984375 17.597656 -2.960938 16.234375 -1.671875 C 14.878906 -0.378906 12.785156 0.265625 9.953125 0.265625 Z M 17.890625 -17.46875 C 17.335938 -17.46875 16.910156 -17.539062 16.609375 -17.6875 C 16.316406 -17.832031 16.171875 -17.90625 16.171875 -17.90625 L 16.171875 -19.09375 L 17 -19.09375 C 17.664062 -19.09375 18.097656 -19.265625 18.296875 -19.609375 C 18.492188 -19.960938 18.59375 -20.445312 18.59375 -21.0625 L 18.59375 -22.640625 L 21.34375 -22.640625 L 21.34375 -20.65625 C 21.34375 -19.84375 21.175781 -19.207031 20.84375 -18.75 C 20.507812 -18.289062 20.078125 -17.960938 19.546875 -17.765625 C 19.023438 -17.566406 18.472656 -17.46875 17.890625 -17.46875 Z M 8.203125 -20.46875 L 9.984375 -25.640625 L 13.265625 -25.640625 L 13.265625 -24 L 9.546875 -20.46875 Z M 8.203125 -20.46875 "/></g></g></g><g fill="#02bdc0" fill-opacity="1"><g transform="translate(69.088444, 70.934552)"><g><path d="M 2.15625 0 L 2.15625 -14.75 L 1.625 -17.4375 L 2.15625 -19.0625 L 6.5 -19.0625 L 11.9375 -11.71875 L 13.234375 -9.484375 L 13.5 -9.484375 L 13.5 -19.0625 L 18.59375 -19.0625 L 18.59375 -17.4375 L 18.328125 -14.75 L 18.328125 0 L 14.09375 0 L 7.328125 -9.484375 L 7.0625 -9.484375 L 7.0625 -7.875 L 7.328125 0 Z M 2.15625 0 "/></g></g></g><g fill="#02bdc0" fill-opacity="1"><g transform="translate(89.30531, 70.934552)"><g><path d="M 11.296875 0.265625 C 9.910156 0.265625 8.601562 0.128906 7.375 -0.140625 C 6.144531 -0.421875 5.054688 -0.921875 4.109375 -1.640625 C 3.171875 -2.359375 2.429688 -3.351562 1.890625 -4.625 C 1.347656 -5.90625 1.078125 -7.546875 1.078125 -9.546875 C 1.078125 -11.460938 1.363281 -13.050781 1.9375 -14.3125 C 2.507812 -15.582031 3.273438 -16.585938 4.234375 -17.328125 C 5.203125 -18.066406 6.273438 -18.585938 7.453125 -18.890625 C 8.628906 -19.203125 9.820312 -19.359375 11.03125 -19.359375 C 11.90625 -19.359375 12.664062 -19.3125 13.3125 -19.21875 C 13.957031 -19.125 14.578125 -19.007812 15.171875 -18.875 L 18.84375 -16.734375 L 16.953125 -12.5625 L 11 -14.65625 C 10.132812 -14.65625 9.335938 -14.484375 8.609375 -14.140625 C 7.878906 -13.804688 7.296875 -13.265625 6.859375 -12.515625 C 6.421875 -11.773438 6.203125 -10.773438 6.203125 -9.515625 C 6.203125 -7.484375 6.65625 -6.054688 7.5625 -5.234375 C 8.46875 -4.421875 9.710938 -4.015625 11.296875 -4.015625 C 12.097656 -4.015625 12.726562 -4.054688 13.1875 -4.140625 C 13.644531 -4.222656 14.003906 -4.289062 14.265625 -4.34375 L 14.265625 -6.390625 L 10.828125 -6.390625 L 10.828125 -10.375 L 19.40625 -10.375 L 19.703125 -8.765625 L 19.109375 -6.515625 L 19.109375 -0.859375 C 18.910156 -0.785156 18.460938 -0.660156 17.765625 -0.484375 C 17.078125 -0.304688 16.179688 -0.140625 15.078125 0.015625 C 13.972656 0.179688 12.710938 0.265625 11.296875 0.265625 Z M 11.296875 0.265625 "/></g></g></g></g></g></svg>